  0
SECTION
  2
HEADER
  9
$ACADVER
  1
AC1018
  9
$ACADMAINTVER
 70
     0
  9
$DWGCODEPAGE
  3
ANSI_1252
  9
$INSBASE
 10
0.0
 20
0.0
 30
0.0
  9
$EXTMIN
 10
-250.0
 20
0.0
 30
0.0
  9
$EXTMAX
 10
8000.0
 20
5000.0
 30
0.0
  9
$LIMMIN
 10
-9000.0
 20
-8800.0
  9
$LIMMAX
 10
41000.0
 20
41200.0
  9
$ORTHOMODE
 70
     0
  9
$REGENMODE
 70
     1
  9
$FILLMODE
 70
     1
  9
$QTEXTMODE
 70
     0
  9
$MIRRTEXT
 70
     0
  9
$LTSCALE
 40
1.0
  9
$ATTMODE
 70
     0
  9
$TEXTSIZE
 40
0.2
  9
$TRACEWID
 40
0.05
  9
$TEXTSTYLE
  7
STANDARD
  9
$CLAYER
  8
0
  9
$CELTYPE
  6
CONTINUOUS
  9
$CECOLOR
 62
   256
  9
$CELTSCALE
 40
1.0
  9
$DISPSILH
 70
     0
  9
$DIMSCALE
 40
1.0
  9
$DIMASZ
 40
0.18
  9
$DIMEXO
 40
0.0625
  9
$DIMDLI
 40
0.38
  9
$DIMRND
 40
0.0
  9
$DIMDLE
 40
0.0
  9
$DIMEXE
 40
0.18
  9
$DIMTP
 40
0.0
  9
$DIMTM
 40
0.0
  9
$DIMTXT
 40
0.18
  9
$DIMCEN
 40
0.09
  9
$DIMTSZ
 40
0.0
  9
$DIMTOL
 70
     0
  9
$DIMLIM
 70
     0
  9
$DIMTIH
 70
     1
  9
$DIMTOH
 70
     1
  9
$DIMSE1
 70
     0
  9
$DIMSE2
 70
     0
  9
$DIMTAD
 70
     0
  9
$DIMZIN
 70
     0
  9
$DIMBLK
  1

  9
$DIMASO
 70
     1
  9
$DIMSHO
 70
     1
  9
$DIMPOST
  1

  9
$DIMAPOST
  1

  9
$DIMALT
 70
     0
  9
$DIMALTD
 70
     2
  9
$DIMALTF
 40
25.4
  9
$DIMLFAC
 40
1.0
  9
$DIMTOFL
 70
     0
  9
$DIMTVP
 40
0.0
  9
$DIMTIX
 70
     0
  9
$DIMSOXD
 70
     0
  9
$DIMSAH
 70
     0
  9
$DIMBLK1
  1

  9
$DIMBLK2
  1

  9
$DIMSTYLE
  2
Standard
  9
$DIMCLRD
 70
     0
  9
$DIMCLRE
 70
     0
  9
$DIMCLRT
 70
     0
  9
$DIMTFAC
 40
1.0
  9
$DIMGAP
 40
0.09
  9
$DIMJUST
 70
     0
  9
$DIMSD1
 70
     0
  9
$DIMSD2
 70
     0
  9
$DIMTOLJ
 70
     1
  9
$DIMTZIN
 70
     0
  9
$DIMALTZ
 70
     0
  9
$DIMALTTZ
 70
     0
  9
$DIMUPT
 70
     0
  9
$DIMDEC
 70
     4
  9
$DIMTDEC
 70
     4
  9
$DIMALTU
 70
     2
  9
$DIMALTTD
 70
     2
  9
$DIMTXSTY
  7
STANDARD
  9
$DIMAUNIT
 70
     0
  9
$DIMADEC
 70
     0
  9
$DIMALTRND
 40
0.0
  9
$DIMAZIN
 70
     0
  9
$DIMDSEP
 70
    46
  9
$DIMATFIT
 70
     3
  9
$DIMFRAC
 70
     0
  9
$DIMLDRBLK
  1

  9
$DIMLUNIT
 70
     2
  9
$DIMLWD
 70
    -2
  9
$DIMLWE
 70
    -2
  9
$DIMTMOVE
 70
     0
  9
$LUNITS
 70
     2
  9
$LUPREC
 70
     3
  9
$SKETCHINC
 40
0.1
  9
$FILLETRAD
 40
0.0
  9
$AUNITS
 70
     0
  9
$AUPREC
 70
     0
  9
$MENU
  1
.
  9
$ELEVATION
 40
0.0
  9
$PELEVATION
 40
0.0
  9
$THICKNESS
 40
102.4
  9
$LIMCHECK
 70
     0
  9
$CHAMFERA
 40
0.0
  9
$CHAMFERB
 40
0.0
  9
$CHAMFERC
 40
0.0
  9
$CHAMFERD
 40
0.0
  9
$SKPOLY
 70
     0
  9
$TDCREATE
 40
2454657.837392940
  9
$TDUCREATE
 40
2454658.129059607
  9
$TDUPDATE
 40
2454657.837825879
  9
$TDUUPDATE
 40
2454658.129492547
  9
$TDINDWG
 40
0.0004332986
  9
$TDUSRTIMER
 40
0.0004332986
  9
$USRTIMER
 70
     1
  9
$ANGBASE
 50
0.0
  9
$ANGDIR
 70
     0
  9
$PDMODE
 70
     0
  9
$PDSIZE
 40
0.0
  9
$PLINEWID
 40
0.0
  9
$SPLFRAME
 70
     0
  9
$SPLINETYPE
 70
     6
  9
$SPLINESEGS
 70
     8
  9
$HANDSEED
  5
3A9
  9
$SURFTAB1
 70
     6
  9
$SURFTAB2
 70
     6
  9
$SURFTYPE
 70
     6
  9
$SURFU
 70
     6
  9
$SURFV
 70
     6
  9
$UCSBASE
  2

  9
$UCSNAME
  2

  9
$UCSORG
 10
0.0
 20
0.0
 30
0.0
  9
$UCSXDIR
 10
1.0
 20
0.0
 30
0.0
  9
$UCSYDIR
 10
0.0
 20
1.0
 30
0.0
  9
$UCSORTHOREF
  2

  9
$UCSORTHOVIEW
 70
     0
  9
$UCSORGTOP
 10
0.0
 20
0.0
 30
0.0
  9
$UCSORGBOTTOM
 10
0.0
 20
0.0
 30
0.0
  9
$UCSORGLEFT
 10
0.0
 20
0.0
 30
0.0
  9
$UCSORGRIGHT
 10
0.0
 20
0.0
 30
0.0
  9
$UCSORGFRONT
 10
0.0
 20
0.0
 30
0.0
  9
$UCSORGBACK
 10
0.0
 20
0.0
 30
0.0
  9
$PUCSBASE
  2

  9
$PUCSNAME
  2

  9
$PUCSORG
 10
0.0
 20
0.0
 30
0.0
  9
$PUCSXDIR
 10
1.0
 20
0.0
 30
0.0
  9
$PUCSYDIR
 10
0.0
 20
1.0
 30
0.0
  9
$PUCSORTHOREF
  2

  9
$PUCSORTHOVIEW
 70
     0
  9
$PUCSORGTOP
 10
0.0
 20
0.0
 30
0.0
  9
$PUCSORGBOTTOM
 10
0.0
 20
0.0
 30
0.0
  9
$PUCSORGLEFT
 10
0.0
 20
0.0
 30
0.0
  9
$PUCSORGRIGHT
 10
0.0
 20
0.0
 30
0.0
  9
$PUCSORGFRONT
 10
0.0
 20
0.0
 30
0.0
  9
$PUCSORGBACK
 10
0.0
 20
0.0
 30
0.0
  9
$USERI1
 70
     0
  9
$USERI2
 70
     0
  9
$USERI3
 70
     0
  9
$USERI4
 70
     0
  9
$USERI5
 70
     0
  9
$USERR1
 40
0.0
  9
$USERR2
 40
0.0
  9
$USERR3
 40
0.0
  9
$USERR4
 40
0.0
  9
$USERR5
 40
0.0
  9
$WORLDVIEW
 70
     1
  9
$SHADEDGE
 70
     3
  9
$SHADEDIF
 70
    70
  9
$TILEMODE
 70
     1
  9
$MAXACTVP
 70
    64
  9
$PINSBASE
 10
0.0
 20
0.0
 30
0.0
  9
$PLIMCHECK
 70
     0
  9
$PEXTMIN
 10
1.000000000000000E+20
 20
1.000000000000000E+20
 30
1.000000000000000E+20
  9
$PEXTMAX
 10
-1.000000000000000E+20
 20
-1.000000000000000E+20
 30
-1.000000000000000E+20
  9
$PLIMMIN
 10
0.0
 20
0.0
  9
$PLIMMAX
 10
12.0
 20
9.0
  9
$UNITMODE
 70
     0
  9
$VISRETAIN
 70
     1
  9
$PLINEGEN
 70
     0
  9
$PSLTSCALE
 70
     1
  9
$TREEDEPTH
 70
  3020
  9
$CMLSTYLE
  2
Standard
  9
$CMLJUST
 70
     0
  9
$CMLSCALE
 40
1.0
  9
$PROXYGRAPHICS
 70
     1
  9
$MEASUREMENT
 70
     0
  9
$CELWEIGHT
370
    -1
  9
$ENDCAPS
280
     0
  9
$JOINSTYLE
280
     0
  9
$LWDISPLAY
290
     0
  9
$INSUNITS
 70
     0
  9
$HYPERLINKBASE
  1

  9
$STYLESHEET
  1

  9
$XEDIT
290
     1
  9
$CEPSNTYPE
380
     0
  9
$PSTYLEMODE
290
     1
  9
$FINGERPRINTGUID
  2
{99059985-05C5-481A-B10B-209C704DC622}
  9
$VERSIONGUID
  2
{576A3197-E4B6-4AC2-A165-15692CFC7758}
  9
$EXTNAMES
290
     1
  9
$PSVPSCALE
 40
0.0
  9
$OLESTARTUP
290
     0
  9
$SORTENTS
280
   127
  9
$INDEXCTL
280
     0
  9
$HIDETEXT
280
     0
  9
$XCLIPFRAME
290
     0
  9
$HALOGAP
280
     0
  9
$OBSCOLOR
 70
   257
  9
$OBSLTYPE
280
     0
  9
$INTERSECTIONDISPLAY
280
     0
  9
$INTERSECTIONCOLOR
 70
   257
  9
$DIMASSOC
280
     1
  9
$PROJECTNAME
  1

  0
ENDSEC
  0
SECTION
  2
CLASSES
  0
CLASS
  1
ACDBDICTIONARYWDFLT
  2
AcDbDictionaryWithDefault
  3
ObjectDBX Classes
 90
        0
 91
        1
280
     0
281
     0
  0
ENDSEC
  0
SECTION
  2
TABLES
  0
TABLE
  2
VPORT
  5
8
330
0
100
AcDbSymbolTable
 70
     2
  0
VPORT
  5
3A8
330
8
100
AcDbSymbolTableRecord
100
AcDbViewportTableRecord
  2
*Active
 70
     0
 10
0.0
 20
0.0
 11
1.0
 21
1.0
 12
5400.131858844704
 22
1220.057387870476
 13
0.0
 23
0.0
 14
1.0
 24
1.0
 15
0.0
 25
0.0
 16
0.0
 26
0.0
 36
1.0
 17
0.0
 27
0.0
 37
0.0
 40
10552.62617540348
 41
1.530456852791878
 42
50.0
 43
0.0
 44
0.0
 50
0.0
 51
0.0
 71
     0
 72
   100
 73
     1
 74
     1
 75
     0
 76
     0
 77
     0
 78
     0
281
     0
 65
     1
110
0.0
120
0.0
130
0.0
111
1.0
121
0.0
131
0.0
112
0.0
122
1.0
132
0.0
 79
     0
146
0.0
  0
ENDTAB
  0
TABLE
  2
LTYPE
  5
5
330
0
100
AcDbSymbolTable
 70
     1
  0
LTYPE
  5
13
330
5
100
AcDbSymbolTableRecord
100
AcDbLinetypeTableRecord
  2
ByBlock
 70
     0
  3

 72
    65
 73
     0
 40
0.0
  0
LTYPE
  5
14
330
5
100
AcDbSymbolTableRecord
100
AcDbLinetypeTableRecord
  2
ByLayer
 70
     0
  3

 72
    65
 73
     0
 40
0.0
  0
LTYPE
  5
15
330
5
100
AcDbSymbolTableRecord
100
AcDbLinetypeTableRecord
  2
CONTINUOUS
 70
     0
  3
Solid line
 72
    65
 73
     0
 40
0.0
  0
ENDTAB
  0
TABLE
  2
LAYER
  5
2
330
0
100
AcDbSymbolTable
 70
     2
  0
LAYER
  5
10
330
2
100
AcDbSymbolTableRecord
100
AcDbLayerTableRecord
  2
0
 70
     0
 62
     1
  6
CONTINUOUS
370
    -3
390
F
  0
LAYER
  5
26
330
2
100
AcDbSymbolTableRecord
100
AcDbLayerTableRecord
  2
CDN_FIGURES
 70
     0
 62
     7
  6
CONTINUOUS
370
    -3
390
F
  0
ENDTAB
  0
TABLE
  2
STYLE
  5
3
330
0
100
AcDbSymbolTable
 70
     1
  0
STYLE
  5
11
330
3
100
AcDbSymbolTableRecord
100
AcDbTextStyleTableRecord
  2
STANDARD
 70
     0
 40
0.0
 41
1.0
 50
0.0
 71
     0
 42
0.2
  3
txt
  4

  0
ENDTAB
  0
TABLE
  2
VIEW
  5
6
330
0
100
AcDbSymbolTable
 70
     0
  0
ENDTAB
  0
TABLE
  2
UCS
  5
7
330
0
100
AcDbSymbolTable
 70
     0
  0
ENDTAB
  0
TABLE
  2
APPID
  5
9
330
0
100
AcDbSymbolTable
 70
     1
  0
APPID
  5
12
330
9
100
AcDbSymbolTableRecord
100
AcDbRegAppTableRecord
  2
ACAD
 70
     0
  0
ENDTAB
  0
TABLE
  2
DIMSTYLE
  5
A
330
0
100
AcDbSymbolTable
 70
     1
100
AcDbDimStyleTable
 71
     0
  0
DIMSTYLE
105
3A6
330
A
100
AcDbSymbolTableRecord
100
AcDbDimStyleTableRecord
  2
Standard
 70
     0
340
11
  0
ENDTAB
  0
TABLE
  2
BLOCK_RECORD
  5
1
330
0
100
AcDbSymbolTable
 70
     8
  0
BLOCK_RECORD
  5
20
330
1
100
AcDbSymbolTableRecord
100
AcDbBlockTableRecord
  2
*Model_Space
340
23
  0
BLOCK_RECORD
  5
1C
330
1
100
AcDbSymbolTableRecord
100
AcDbBlockTableRecord
  2
*Paper_Space
340
1F
  0
BLOCK_RECORD
  5
27
330
1
100
AcDbSymbolTableRecord
100
AcDbBlockTableRecord
  2
FIGURE_CIRCLE
340
0
  0
BLOCK_RECORD
  5
2B
330
1
100
AcDbSymbolTableRecord
100
AcDbBlockTableRecord
  2
FIGURE_SQUARE
340
0
  0
BLOCK_RECORD
  5
34
330
1
100
AcDbSymbolTableRecord
100
AcDbBlockTableRecord
  2
FIGURE_HEX
340
0
  0
BLOCK_RECORD
  5
3F
330
1
100
AcDbSymbolTableRecord
100
AcDbBlockTableRecord
  2
FIGURE_OCT
340
0
  0
BLOCK_RECORD
  5
4C
330
1
100
AcDbSymbolTableRecord
100
AcDbBlockTableRecord
  2
FIGURE_OBLONG
340
0
  0
BLOCK_RECORD
  5
5D
330
1
100
AcDbSymbolTableRecord
100
AcDbBlockTableRecord
  2
FIGURE_TRI
340
0
  0
BLOCK_RECORD
  5
65
330
1
100
AcDbSymbolTableRecord
100
AcDbBlockTableRecord
  2
FIGURE_CROSS
340
0
  0
BLOCK_RECORD
  5
70
330
1
100
AcDbSymbolTableRecord
100
AcDbBlockTableRecord
  2
FIGURE_DIAMOND
340
0
  0
ENDTAB
  0
ENDSEC
  0
SECTION
  2
BLOCKS
  0
BLOCK
  5
21
330
20
100
AcDbEntity
  8
0
100
AcDbBlockBegin
  2
*Model_Space
 70
     0
 10
0.0
 20
0.0
 30
0.0
  3
*Model_Space
  1

  0
ENDBLK
  5
22
330
20
100
AcDbEntity
  8
0
100
AcDbBlockEnd
  0
BLOCK
  5
1D
330
1C
100
AcDbEntity
 67
     1
  8
0
100
AcDbBlockBegin
  2
*Paper_Space
 70
     0
 10
0.0
 20
0.0
 30
0.0
  3
*Paper_Space
  1

  0
ENDBLK
  5
1E
330
1C
100
AcDbEntity
 67
     1
  8
0
100
AcDbBlockEnd
  0
BLOCK
  5
28
330
27
100
AcDbEntity
  8
CDN_FIGURES
100
AcDbBlockBegin
  2
FIGURE_CIRCLE
 70
     0
 10
0.0
 20
0.0
 30
0.0
  3
FIGURE_CIRCLE
  1

  0
CIRCLE
  5
29
330
27
100
AcDbEntity
  8
CDN_FIGURES
100
AcDbCircle
 10
0.0
 20
0.0
 30
0.0
 40
0.5
  0
ENDBLK
  5
2A
330
27
100
AcDbEntity
  8
0
100
AcDbBlockEnd
  0
BLOCK
  5
2C
330
2B
100
AcDbEntity
  8
CDN_FIGURES
100
AcDbBlockBegin
  2
FIGURE_SQUARE
 70
     0
 10
0.0
 20
0.0
 30
0.0
  3
FIGURE_SQUARE
  1

  0
LWPOLYLINE
  5
2D
330
2B
100
AcDbEntity
  8
CDN_FIGURES
100
AcDbPolyline
 90
        4
 70
     1
 43
0.0
 10
-0.5
 20
-0.5
 10
-0.5
 20
0.5
 10
0.5
 20
0.5
 10
0.5
 20
-0.5
  0
ENDBLK
  5
33
330
2B
100
AcDbEntity
  8
0
100
AcDbBlockEnd
  0
BLOCK
  5
35
330
34
100
AcDbEntity
  8
CDN_FIGURES
100
AcDbBlockBegin
  2
FIGURE_HEX
 70
     0
 10
0.0
 20
0.0
 30
0.0
  3
FIGURE_HEX
  1

  0
LWPOLYLINE
  5
36
330
34
100
AcDbEntity
  8
CDN_FIGURES
100
AcDbPolyline
 90
        6
 70
     1
 43
0.0
 10
-0.5
 20
0.0
 10
-0.25
 20
0.5
 10
0.25
 20
0.5
 10
0.5
 20
0.0
 10
0.25
 20
-0.5
 10
-0.25
 20
-0.5
  0
ENDBLK
  5
3E
330
34
100
AcDbEntity
  8
0
100
AcDbBlockEnd
  0
BLOCK
  5
40
330
3F
100
AcDbEntity
  8
CDN_FIGURES
100
AcDbBlockBegin
  2
FIGURE_OCT
 70
     0
 10
0.0
 20
0.0
 30
0.0
  3
FIGURE_OCT
  1

  0
LWPOLYLINE
  5
41
330
3F
100
AcDbEntity
  8
CDN_FIGURES
100
AcDbPolyline
 90
        8
 70
     1
 43
0.0
 10
-0.5
 20
-0.2071
 10
-0.5
 20
0.2071
 10
-0.2071
 20
0.5
 10
0.2071
 20
0.5
 10
0.5
 20
0.2071
 10
0.5
 20
-0.2071
 10
0.2071
 20
-0.5
 10
-0.2071
 20
-0.5
  0
ENDBLK
  5
4B
330
3F
100
AcDbEntity
  8
0
100
AcDbBlockEnd
  0
BLOCK
  5
4D
330
4C
100
AcDbEntity
  8
CDN_FIGURES
100
AcDbBlockBegin
  2
FIGURE_OBLONG
 70
     0
 10
0.0
 20
0.0
 30
0.0
  3
FIGURE_OBLONG
  1

  0
LWPOLYLINE
  5
4E
330
4C
100
AcDbEntity
  8
CDN_FIGURES
100
AcDbPolyline
 90
       12
 70
     1
 43
0.0
 10
-0.5
 20
-0.125
 10
-0.5
 20
0.125
 10
-0.4160000000000001
 20
0.375
 10
-0.25
 20
0.5
 10
0.25
 20
0.5
 10
0.4160000000000001
 20
0.375
 10
0.5
 20
0.125
 10
0.5
 20
-0.125
 10
0.4160000000000001
 20
-0.375
 10
0.25
 20
-0.5
 10
-0.25
 20
-0.5
 10
-0.4160000000000001
 20
-0.375
  0
ENDBLK
  5
5C
330
4C
100
AcDbEntity
  8
0
100
AcDbBlockEnd
  0
BLOCK
  5
5E
330
5D
100
AcDbEntity
  8
CDN_FIGURES
100
AcDbBlockBegin
  2
FIGURE_TRI
 70
     0
 10
0.0
 20
0.0
 30
0.0
  3
FIGURE_TRI
  1

  0
LWPOLYLINE
  5
5F
330
5D
100
AcDbEntity
  8
CDN_FIGURES
100
AcDbPolyline
 90
        3
 70
     1
 43
0.0
 10
-0.5
 20
-0.5
 10
0.0
 20
0.5
 10
0.5
 20
-0.5
  0
ENDBLK
  5
64
330
5D
100
AcDbEntity
  8
0
100
AcDbBlockEnd
  0
BLOCK
  5
66
330
65
100
AcDbEntity
  8
CDN_FIGURES
100
AcDbBlockBegin
  2
FIGURE_CROSS
 70
     0
 10
0.0
 20
0.0
 30
0.0
  3
FIGURE_CROSS
  1

  0
LWPOLYLINE
  5
67
330
65
100
AcDbEntity
  8
CDN_FIGURES
100
AcDbPolyline
 90
        2
 70
     0
 43
0.0
 10
-0.5
 20
0.0
 10
0.5
 20
0.0
  0
LWPOLYLINE
  5
6B
330
65
100
AcDbEntity
  8
CDN_FIGURES
100
AcDbPolyline
 90
        2
 70
     0
 43
0.0
 10
0.0
 20
0.5
 10
0.0
 20
-0.5
  0
ENDBLK
  5
6F
330
65
100
AcDbEntity
  8
0
100
AcDbBlockEnd
  0
BLOCK
  5
71
330
70
100
AcDbEntity
  8
CDN_FIGURES
100
AcDbBlockBegin
  2
FIGURE_DIAMOND
 70
     0
 10
0.0
 20
0.0
 30
0.0
  3
FIGURE_DIAMOND
  1

  0
LWPOLYLINE
  5
72
330
70
100
AcDbEntity
  8
CDN_FIGURES
100
AcDbPolyline
 90
        4
 70
     1
 43
0.0
 10
-0.5
 20
0.0
 10
0.0
 20
0.5
 10
0.5
 20
0.0
 10
0.0
 20
-0.5
  0
ENDBLK
  5
78
330
70
100
AcDbEntity
  8
0
100
AcDbBlockEnd
  0
ENDSEC
  0
SECTION
  2
ENTITIES
  0
LWPOLYLINE
  5
79
330
20
100
AcDbEntity
  8
0
100
AcDbPolyline
 90
       59
 70
     1
 43
0.0
 10
7875.0
 20
250.0
 10
7875.0
 20
261.57
 10
7872.69
 20
275.46
 10
7870.37
 20
287.04
 10
7865.739999999999
 20
298.61
 10
7858.800000000001
 20
310.19
 10
7854.17
 20
319.44
 10
7847.22
 20
328.7
 10
7828.700000000001
 20
347.22
 10
7819.44
 20
354.17
 10
7810.19
 20
358.8
 10
7798.61
 20
365.74
 10
7787.040000000001
 20
370.37
 10
7775.459999999999
 20
372.69
 10
7763.89
 20
375.0
 10
7736.11
 20
375.0
 10
7724.540000000001
 20
372.69
 10
7712.959999999999
 20
370.37
 10
7701.39
 20
365.74
 10
7689.81
 20
358.8
 10
7680.560000000001
 20
354.17
 10
7671.300000000001
 20
347.22
 10
7652.779999999999
 20
328.7
 10
7645.83
 20
319.44
 10
7641.200000000001
 20
310.19
 10
7634.260000000001
 20
298.61
 10
7629.63
 20
287.04
 10
7627.31
 20
275.46
 10
7625.0
 20
261.57
 10
7625.0
 20
236.11
 10
7627.31
 20
224.54
 10
7629.63
 20
212.96
 10
7634.260000000001
 20
201.39
 10
7641.200000000001
 20
189.81
 10
7645.83
 20
180.56
 10
7652.779999999999
 20
168.98
 10
7662.040000000001
 20
162.04
 10
7671.300000000001
 20
152.78
 10
7680.560000000001
 20
145.83
 10
7689.81
 20
138.89
 10
7701.39
 20
134.26
 10
7712.959999999999
 20
129.63
 10
7724.540000000001
 20
127.31
 10
7736.11
 20
125.0
 10
7763.89
 20
125.0
 10
7775.459999999999
 20
127.31
 10
7787.040000000001
 20
129.63
 10
7798.61
 20
134.26
 10
7810.19
 20
138.89
 10
7819.44
 20
145.83
 10
7828.700000000001
 20
152.78
 10
7837.959999999999
 20
162.04
 10
7847.22
 20
168.98
 10
7854.17
 20
180.56
 10
7858.800000000001
 20
189.81
 10
7865.739999999999
 20
201.39
 10
7870.37
 20
212.96
 10
7872.69
 20
224.54
 10
7875.0
 20
236.11
  0
LWPOLYLINE
  5
B6
330
20
100
AcDbEntity
  8
0
100
AcDbPolyline
 90
       60
 70
     1
 43
0.0
 10
375.0
 20
250.0
 10
375.0
 20
261.57
 10
372.69
 20
275.46
 10
370.37
 20
287.04
 10
365.74
 20
298.61
 10
361.11
 20
310.19
 10
354.17
 20
319.44
 10
347.22
 20
328.7
 10
340.28
 20
337.96
 10
331.02
 20
347.22
 10
321.76
 20
354.17
 10
310.19
 20
358.8
 10
298.61
 20
365.74
 10
287.04
 20
370.37
 10
275.46
 20
372.69
 10
263.89
 20
375.0
 10
238.43
 20
375.0
 10
224.54
 20
372.69
 10
212.96
 20
370.37
 10
201.39
 20
365.74
 10
192.13
 20
358.8
 10
180.56
 20
354.17
 10
171.3
 20
347.22
 10
162.04
 20
337.96
 10
155.09
 20
328.7
 10
148.15
 20
319.44
 10
141.2
 20
310.19
 10
134.26
 20
298.61
 10
131.94
 20
287.04
 10
127.31
 20
275.46
 10
125.0
 20
261.57
 10
125.0
 20
236.11
 10
127.31
 20
224.54
 10
131.94
 20
212.96
 10
134.26
 20
201.39
 10
141.2
 20
189.81
 10
148.15
 20
180.56
 10
155.09
 20
168.98
 10
162.04
 20
162.04
 10
171.3
 20
152.78
 10
180.56
 20
145.83
 10
192.13
 20
138.89
 10
201.39
 20
134.26
 10
212.96
 20
129.63
 10
224.54
 20
127.31
 10
238.43
 20
125.0
 10
263.89
 20
125.0
 10
275.46
 20
127.31
 10
287.04
 20
129.63
 10
298.61
 20
134.26
 10
310.19
 20
138.89
 10
321.76
 20
145.83
 10
331.02
 20
152.78
 10
347.22
 20
168.98
 10
354.17
 20
180.56
 10
361.11
 20
189.81
 10
365.74
 20
201.39
 10
370.37
 20
212.96
 10
372.69
 20
224.54
 10
375.0
 20
236.11
  0
LWPOLYLINE
  5
F4
330
20
100
AcDbEntity
  8
0
100
AcDbPolyline
 90
        4
 70
     1
 43
0.0
 10
6375.0
 20
650.46
 10
6375.0
 20
250.0
 10
6750.0
 20
250.0
 10
6750.0
 20
650.46
  0
LWPOLYLINE
  5
FA
330
20
100
AcDbEntity
  8
0
100
AcDbPolyline
 90
        4
 70
     1
 43
0.0
 10
4875.0
 20
500.0
 10
4875.0
 20
349.54
 10
5125.0
 20
349.54
 10
5125.0
 20
500.0
  0
LWPOLYLINE
  5
100
330
20
100
AcDbEntity
  8
0
100
AcDbPolyline
 90
        4
 70
     1
 43
0.0
 10
4000.0
 20
500.0
 10
4000.0
 20
250.0
 10
4687.5
 20
250.0
 10
4687.5
 20
500.0
  0
LWPOLYLINE
  5
106
330
20
100
AcDbEntity
  8
0
100
AcDbPolyline
 90
        4
 70
     1
 43
0.0
 10
2750.0
 20
650.46
 10
2750.0
 20
500.0
 10
2937.5
 20
500.0
 10
2937.5
 20
650.46
  0
LWPOLYLINE
  5
10C
330
20
100
AcDbEntity
  8
0
100
AcDbPolyline
 90
        4
 70
     1
 43
0.0
 10
4750.0
 20
750.0
 10
4750.0
 20
537.04
 10
5125.0
 20
537.04
 10
5125.0
 20
750.0
  0
LWPOLYLINE
  5
112
330
20
100
AcDbEntity
  8
0
100
AcDbPolyline
 90
        4
 70
     1
 43
0.0
 10
2250.0
 20
1000.0
 10
2250.0
 20
625.0
 10
2469.91
 20
625.0
 10
2469.91
 20
1000.0
  0
LWPOLYLINE
  5
118
330
20
100
AcDbEntity
  8
0
100
AcDbPolyline
 90
        4
 70
     1
 43
0.0
 10
1250.0
 20
1000.0
 10
1250.0
 20
500.0
 10
1750.0
 20
500.0
 10
1750.0
 20
1000.0
  0
LWPOLYLINE
  5
11E
330
20
100
AcDbEntity
  8
0
100
AcDbPolyline
 90
        4
 70
     1
 43
0.0
 10
0.0
 20
1000.0
 10
0.0
 20
500.0
 10
1000.0
 20
500.0
 10
1000.0
 20
1000.0
  0
LWPOLYLINE
  5
124
330
20
100
AcDbEntity
  8
0
100
AcDbPolyline
 90
        4
 70
     1
 43
0.0
 10
5875.0
 20
1050.93
 10
5875.0
 20
900.4599999999999
 10
6062.5
 20
900.4599999999999
 10
6062.5
 20
1050.93
  0
LWPOLYLINE
  5
12A
330
20
100
AcDbEntity
  8
0
100
AcDbPolyline
 90
        4
 70
     1
 43
0.0
 10
4750.0
 20
1250.0
 10
4750.0
 20
849.54
 10
5000.0
 20
849.54
 10
5000.0
 20
1250.0
  0
LWPOLYLINE
  5
130
330
20
100
AcDbEntity
  8
0
100
AcDbPolyline
 90
        4
 70
     1
 43
0.0
 10
4000.0
 20
1250.0
 10
4000.0
 20
833.3300000000001
 10
4625.0
 20
833.3300000000001
 10
4625.0
 20
1250.0
  0
LWPOLYLINE
  5
136
330
20
100
AcDbEntity
  8
0
100
AcDbPolyline
 90
        4
 70
     1
 43
0.0
 10
2750.0
 20
1250.0
 10
2750.0
 20
500.0
 10
3625.0
 20
500.0
 10
3625.0
 20
1250.0
  0
LWPOLYLINE
  5
13C
330
20
100
AcDbEntity
  8
0
100
AcDbPolyline
 90
        4
 70
     1
 43
0.0
 10
5312.5
 20
1460.65
 10
5312.5
 20
835.65
 10
5562.5
 20
835.65
 10
5562.5
 20
1460.65
  0
LWPOLYLINE
  5
142
330
20
100
AcDbEntity
  8
0
100
AcDbPolyline
 90
        4
 70
     1
 43
0.0
 10
2312.5
 20
1400.46
 10
2312.5
 20
1250.0
 10
2500.0
 20
1250.0
 10
2500.0
 20
1400.46
  0
LWPOLYLINE
  5
148
330
20
100
AcDbEntity
  8
0
100
AcDbPolyline
 90
        4
 70
     1
 43
0.0
 10
750.0
 20
1687.5
 10
750.0
 20
1187.5
 10
1250.0
 20
1187.5
 10
1250.0
 20
1687.5
  0
LWPOLYLINE
  5
14E
330
20
100
AcDbEntity
  8
0
100
AcDbPolyline
 90
        4
 70
     1
 43
0.0
 10
5875.0
 20
2150.46
 10
5875.0
 20
900.4599999999999
 10
7125.0
 20
900.4599999999999
 10
7125.0
 20
2150.46
  0
LWPOLYLINE
  5
154
330
20
100
AcDbEntity
  8
0
100
AcDbPolyline
 90
        4
 70
     1
 43
0.0
 10
750.0
 20
2187.5
 10
750.0
 20
1687.5
 10
1250.0
 20
1687.5
 10
1250.0
 20
2187.5
  0
LWPOLYLINE
  5
15A
330
20
100
AcDbEntity
  8
0
100
AcDbPolyline
 90
        4
 70
     1
 43
0.0
 10
5312.5
 20
2210.65
 10
5312.5
 20
1585.65
 10
5562.5
 20
1585.65
 10
5562.5
 20
2210.65
  0
LWPOLYLINE
  5
160
330
20
100
AcDbEntity
  8
0
100
AcDbPolyline
 90
        4
 70
     1
 43
0.0
 10
4375.0
 20
2250.0
 10
4375.0
 20
1750.0
 10
5125.0
 20
1750.0
 10
5125.0
 20
2250.0
  0
LWPOLYLINE
  5
166
330
20
100
AcDbEntity
  8
0
100
AcDbPolyline
 90
        4
 70
     1
 43
0.0
 10
1500.0
 20
2250.0
 10
1500.0
 20
1250.0
 10
2500.0
 20
1250.0
 10
2500.0
 20
2250.0
  0
LWPOLYLINE
  5
16C
330
20
100
AcDbEntity
  8
0
100
AcDbPolyline
 90
        4
 70
     1
 43
0.0
 10
7625.0
 20
2585.65
 10
7625.0
 20
2335.65
 10
7750.0
 20
2335.65
 10
7750.0
 20
2585.65
  0
LWPOLYLINE
  5
172
330
20
100
AcDbEntity
  8
0
100
AcDbPolyline
 90
        4
 70
     1
 43
0.0
 10
6875.0
 20
2585.65
 10
6875.0
 20
2335.65
 10
7500.0
 20
2335.65
 10
7500.0
 20
2585.65
  0
LWPOLYLINE
  5
178
330
20
100
AcDbEntity
  8
0
100
AcDbPolyline
 90
        4
 70
     1
 43
0.0
 10
5625.0
 20
2585.65
 10
5625.0
 20
2335.65
 10
6250.0
 20
2335.65
 10
6250.0
 20
2585.65
  0
LWPOLYLINE
  5
17E
330
20
100
AcDbEntity
  8
0
100
AcDbPolyline
 90
        4
 70
     1
 43
0.0
 10
5375.0
 20
2585.65
 10
5375.0
 20
2335.65
 10
5500.0
 20
2335.65
 10
5500.0
 20
2585.65
  0
LWPOLYLINE
  5
184
330
20
100
AcDbEntity
  8
0
100
AcDbPolyline
 90
        4
 70
     1
 43
0.0
 10
-250.0
 20
2750.0
 10
-250.0
 20
1500.0
 10
500.0
 20
1500.0
 10
500.0
 20
2750.0
  0
LWPOLYLINE
  5
18A
330
20
100
AcDbEntity
  8
0
100
AcDbPolyline
 90
        4
 70
     1
 43
0.0
 10
7625.0
 20
3025.46
 10
7625.0
 20
2775.46
 10
7750.0
 20
2775.46
 10
7750.0
 20
3025.46
  0
LWPOLYLINE
  5
190
330
20
100
AcDbEntity
  8
0
100
AcDbPolyline
 90
        4
 70
     1
 43
0.0
 10
7375.0
 20
3025.46
 10
7375.0
 20
2775.46
 10
7500.0
 20
2775.46
 10
7500.0
 20
3025.46
  0
LWPOLYLINE
  5
196
330
20
100
AcDbEntity
  8
0
100
AcDbPolyline
 90
        4
 70
     1
 43
0.0
 10
7125.0
 20
3025.46
 10
7125.0
 20
2775.46
 10
7250.0
 20
2775.46
 10
7250.0
 20
3025.46
  0
LWPOLYLINE
  5
19C
330
20
100
AcDbEntity
  8
0
100
AcDbPolyline
 90
        4
 70
     1
 43
0.0
 10
6875.0
 20
3025.46
 10
6875.0
 20
2775.46
 10
7000.0
 20
2775.46
 10
7000.0
 20
3025.46
  0
LWPOLYLINE
  5
1A2
330
20
100
AcDbEntity
  8
0
100
AcDbPolyline
 90
        4
 70
     1
 43
0.0
 10
6625.0
 20
3025.46
 10
6625.0
 20
2775.46
 10
6750.0
 20
2775.46
 10
6750.0
 20
3025.46
  0
LWPOLYLINE
  5
1A8
330
20
100
AcDbEntity
  8
0
100
AcDbPolyline
 90
        4
 70
     1
 43
0.0
 10
6375.0
 20
3025.46
 10
6375.0
 20
2775.46
 10
6500.0
 20
2775.46
 10
6500.0
 20
3025.46
  0
LWPOLYLINE
  5
1AE
330
20
100
AcDbEntity
  8
0
100
AcDbPolyline
 90
        4
 70
     1
 43
0.0
 10
6125.0
 20
3025.46
 10
6125.0
 20
2775.46
 10
6250.0
 20
2775.46
 10
6250.0
 20
3025.46
  0
LWPOLYLINE
  5
1B4
330
20
100
AcDbEntity
  8
0
100
AcDbPolyline
 90
        4
 70
     1
 43
0.0
 10
5875.0
 20
3025.46
 10
5875.0
 20
2775.46
 10
6000.0
 20
2775.46
 10
6000.0
 20
3025.46
  0
LWPOLYLINE
  5
1BA
330
20
100
AcDbEntity
  8
0
100
AcDbPolyline
 90
        4
 70
     1
 43
0.0
 10
5625.0
 20
3025.46
 10
5625.0
 20
2775.46
 10
5750.0
 20
2775.46
 10
5750.0
 20
3025.46
  0
LWPOLYLINE
  5
1C0
330
20
100
AcDbEntity
  8
0
100
AcDbPolyline
 90
        4
 70
     1
 43
0.0
 10
5375.0
 20
3025.46
 10
5375.0
 20
2775.46
 10
5500.0
 20
2775.46
 10
5500.0
 20
3025.46
  0
LWPOLYLINE
  5
1C6
330
20
100
AcDbEntity
  8
0
100
AcDbPolyline
 90
        4
 70
     1
 43
0.0
 10
4375.0
 20
3000.0
 10
4375.0
 20
2500.0
 10
5125.0
 20
2500.0
 10
5125.0
 20
3000.0
  0
LWPOLYLINE
  5
1CC
330
20
100
AcDbEntity
  8
0
100
AcDbPolyline
 90
        4
 70
     1
 43
0.0
 10
2875.0
 20
3000.0
 10
2875.0
 20
2849.54
 10
3062.5
 20
2849.54
 10
3062.5
 20
3000.0
  0
LWPOLYLINE
  5
1D2
330
20
100
AcDbEntity
  8
0
100
AcDbPolyline
 90
        4
 70
     1
 43
0.0
 10
2875.0
 20
3000.0
 10
2875.0
 20
1750.0
 10
4125.0
 20
1750.0
 10
4125.0
 20
3000.0
  0
LWPOLYLINE
  5
1D8
330
20
100
AcDbEntity
  8
0
100
AcDbPolyline
 90
        4
 70
     1
 43
0.0
 10
2062.5
 20
3000.0
 10
2062.5
 20
2500.0
 10
2312.5
 20
2500.0
 10
2312.5
 20
3000.0
  0
LWPOLYLINE
  5
1DE
330
20
100
AcDbEntity
  8
0
100
AcDbPolyline
 90
        4
 70
     1
 43
0.0
 10
1564.81
 20
3000.0
 10
1564.81
 20
2500.0
 10
1814.81
 20
2500.0
 10
1814.81
 20
3000.0
  0
LWPOLYLINE
  5
1E4
330
20
100
AcDbEntity
  8
0
100
AcDbPolyline
 90
        4
 70
     1
 43
0.0
 10
750.0
 20
2812.5
 10
750.0
 20
2312.5
 10
1250.0
 20
2312.5
 10
1250.0
 20
2812.5
  0
LWPOLYLINE
  5
1EA
330
20
100
AcDbEntity
  8
0
100
AcDbPolyline
 90
        4
 70
     1
 43
0.0
 10
7375.0
 20
3335.650000000001
 10
7375.0
 20
3210.650000000001
 10
7687.5
 20
3210.650000000001
 10
7687.5
 20
3335.650000000001
  0
LWPOLYLINE
  5
1F0
330
20
100
AcDbEntity
  8
0
100
AcDbPolyline
 90
        4
 70
     1
 43
0.0
 10
6875.0
 20
3335.650000000001
 10
6875.0
 20
3210.650000000001
 10
7187.5
 20
3210.650000000001
 10
7187.5
 20
3335.650000000001
  0
LWPOLYLINE
  5
1F6
330
20
100
AcDbEntity
  8
0
100
AcDbPolyline
 90
        4
 70
     1
 43
0.0
 10
6375.0
 20
3335.650000000001
 10
6375.0
 20
3210.650000000001
 10
6687.5
 20
3210.650000000001
 10
6687.5
 20
3335.650000000001
  0
LWPOLYLINE
  5
1FC
330
20
100
AcDbEntity
  8
0
100
AcDbPolyline
 90
        4
 70
     1
 43
0.0
 10
5875.0
 20
3335.650000000001
 10
5875.0
 20
3210.650000000001
 10
6187.5
 20
3210.650000000001
 10
6187.5
 20
3335.650000000001
  0
LWPOLYLINE
  5
202
330
20
100
AcDbEntity
  8
0
100
AcDbPolyline
 90
        4
 70
     1
 43
0.0
 10
5375.0
 20
3335.650000000001
 10
5375.0
 20
3210.650000000001
 10
5687.5
 20
3210.650000000001
 10
5687.5
 20
3335.650000000001
  0
LWPOLYLINE
  5
208
330
20
100
AcDbEntity
  8
0
100
AcDbPolyline
 90
        4
 70
     1
 43
0.0
 10
2750.0
 20
3375.0
 10
2750.0
 20
3250.0
 10
3500.0
 20
3250.0
 10
3500.0
 20
3375.0
  0
LWPOLYLINE
  5
20E
330
20
100
AcDbEntity
  8
0
100
AcDbPolyline
 90
        4
 70
     1
 43
0.0
 10
1000.0
 20
3125.0
 10
1000.0
 20
2912.04
 10
1375.0
 20
2912.04
 10
1375.0
 20
3125.0
  0
LWPOLYLINE
  5
214
330
20
100
AcDbEntity
  8
0
100
AcDbPolyline
 90
        4
 70
     1
 43
0.0
 10
7812.5
 20
3650.460000000001
 10
7812.5
 20
3400.460000000001
 10
7937.5
 20
3400.460000000001
 10
7937.5
 20
3650.460000000001
  0
LWPOLYLINE
  5
21A
330
20
100
AcDbEntity
  8
0
100
AcDbPolyline
 90
        4
 70
     1
 43
0.0
 10
4125.0
 20
3449.070000000001
 10
4125.0
 20
3298.61
 10
4437.5
 20
3298.61
 10
4437.5
 20
3449.070000000001
  0
LWPOLYLINE
  5
220
330
20
100
AcDbEntity
  8
0
100
AcDbPolyline
 90
        4
 70
     1
 43
0.0
 10
3750.0
 20
3449.070000000001
 10
3750.0
 20
3298.61
 10
4062.5
 20
3298.61
 10
4062.5
 20
3449.070000000001
  0
LWPOLYLINE
  5
226
330
20
100
AcDbEntity
  8
0
100
AcDbPolyline
 90
        4
 70
     1
 43
0.0
 10
2000.0
 20
3500.0
 10
2000.0
 20
3187.5
 10
2375.0
 20
3187.5
 10
2375.0
 20
3500.0
  0
LWPOLYLINE
  5
22C
330
20
100
AcDbEntity
  8
0
100
AcDbPolyline
 90
        4
 70
     1
 43
0.0
 10
1500.0
 20
3500.0
 10
1500.0
 20
3187.5
 10
1875.0
 20
3187.5
 10
1875.0
 20
3500.0
  0
LWPOLYLINE
  5
232
330
20
100
AcDbEntity
  8
0
100
AcDbPolyline
 90
        4
 70
     1
 43
0.0
 10
1000.0
 20
3500.0
 10
1000.0
 20
3187.5
 10
1375.0
 20
3187.5
 10
1375.0
 20
3500.0
  0
LWPOLYLINE
  5
238
330
20
100
AcDbEntity
  8
0
100
AcDbPolyline
 90
        4
 70
     1
 43
0.0
 10
314.81
 20
3562.5
 10
314.81
 20
3437.5
 10
625.0
 20
3437.5
 10
625.0
 20
3562.5
  0
LWPOLYLINE
  5
23E
330
20
100
AcDbEntity
  8
0
100
AcDbPolyline
 90
        4
 70
     1
 43
0.0
 10
314.81
 20
3685.19
 10
314.81
 20
3562.5
 10
625.0
 20
3562.5
 10
625.0
 20
3685.19
  0
LWPOLYLINE
  5
244
330
20
100
AcDbEntity
  8
0
100
AcDbPolyline
 90
        4
 70
     1
 43
0.0
 10
0.0
 20
3625.0
 10
0.0
 20
3000.0
 10
250.0
 20
3000.0
 10
250.0
 20
3625.0
  0
LWPOLYLINE
  5
24A
330
20
100
AcDbEntity
  8
0
100
AcDbPolyline
 90
        4
 70
     1
 43
0.0
 10
4000.0
 20
3750.0
 10
4000.0
 20
3625.0
 10
4250.0
 20
3625.0
 10
4250.0
 20
3750.0
  0
LWPOLYLINE
  5
250
330
20
100
AcDbEntity
  8
0
100
AcDbPolyline
 90
        4
 70
     1
 43
0.0
 10
4000.0
 20
4000.0
 10
4000.0
 20
3875.0
 10
4375.0
 20
3875.0
 10
4375.0
 20
4000.0
  0
LWPOLYLINE
  5
256
330
20
100
AcDbEntity
  8
0
100
AcDbPolyline
 90
        4
 70
     1
 43
0.0
 10
3500.0
 20
3750.0
 10
3500.0
 20
3625.0
 10
3750.0
 20
3625.0
 10
3750.0
 20
3750.0
  0
LWPOLYLINE
  5
25C
330
20
100
AcDbEntity
  8
0
100
AcDbPolyline
 90
        4
 70
     1
 43
0.0
 10
3500.0
 20
4000.0
 10
3500.0
 20
3875.0
 10
3875.0
 20
3875.0
 10
3875.0
 20
4000.0
  0
LWPOLYLINE
  5
262
330
20
100
AcDbEntity
  8
0
100
AcDbPolyline
 90
        4
 70
     1
 43
0.0
 10
3000.0
 20
3750.0
 10
3000.0
 20
3625.0
 10
3250.0
 20
3625.0
 10
3250.0
 20
3750.0
  0
LWPOLYLINE
  5
268
330
20
100
AcDbEntity
  8
0
100
AcDbPolyline
 90
        4
 70
     1
 43
0.0
 10
3000.0
 20
4000.0
 10
3000.0
 20
3875.0
 10
3375.0
 20
3875.0
 10
3375.0
 20
4000.0
  0
LWPOLYLINE
  5
26E
330
20
100
AcDbEntity
  8
0
100
AcDbPolyline
 90
        4
 70
     1
 43
0.0
 10
2500.0
 20
3750.0
 10
2500.0
 20
3625.0
 10
2750.0
 20
3625.0
 10
2750.0
 20
3750.0
  0
LWPOLYLINE
  5
274
330
20
100
AcDbEntity
  8
0
100
AcDbPolyline
 90
        4
 70
     1
 43
0.0
 10
2500.0
 20
4000.0
 10
2500.0
 20
3875.0
 10
2875.0
 20
3875.0
 10
2875.0
 20
4000.0
  0
LWPOLYLINE
  5
27A
330
20
100
AcDbEntity
  8
0
100
AcDbPolyline
 90
        4
 70
     1
 43
0.0
 10
2000.0
 20
3750.0
 10
2000.0
 20
3625.0
 10
2250.0
 20
3625.0
 10
2250.0
 20
3750.0
  0
LWPOLYLINE
  5
280
330
20
100
AcDbEntity
  8
0
100
AcDbPolyline
 90
        4
 70
     1
 43
0.0
 10
2000.0
 20
4000.0
 10
2000.0
 20
3875.0
 10
2375.0
 20
3875.0
 10
2375.0
 20
4000.0
  0
LWPOLYLINE
  5
286
330
20
100
AcDbEntity
  8
0
100
AcDbPolyline
 90
        4
 70
     1
 43
0.0
 10
1625.0
 20
4000.0
 10
1625.0
 20
3849.540000000001
 10
1875.0
 20
3849.540000000001
 10
1875.0
 20
4000.0
  0
LWPOLYLINE
  5
28C
330
20
100
AcDbEntity
  8
0
100
AcDbPolyline
 90
        4
 70
     1
 43
0.0
 10
625.0
 20
4000.0
 10
625.0
 20
3849.540000000001
 10
875.0
 20
3849.540000000001
 10
875.0
 20
4000.0
  0
LWPOLYLINE
  5
292
330
20
100
AcDbEntity
  8
0
100
AcDbPolyline
 90
        4
 70
     1
 43
0.0
 10
7125.0
 20
4210.65
 10
7125.0
 20
4085.65
 10
7437.5
 20
4085.65
 10
7437.5
 20
4210.65
  0
LWPOLYLINE
  5
298
330
20
100
AcDbEntity
  8
0
100
AcDbPolyline
 90
        4
 70
     1
 43
0.0
 10
7375.0
 20
4025.46
 10
7375.0
 20
3400.460000000001
 10
7750.0
 20
3400.460000000001
 10
7750.0
 20
4025.46
  0
LWPOLYLINE
  5
29E
330
20
100
AcDbEntity
  8
0
100
AcDbPolyline
 90
        4
 70
     1
 43
0.0
 10
6875.0
 20
4025.46
 10
6875.0
 20
3400.460000000001
 10
7250.0
 20
3400.460000000001
 10
7250.0
 20
4025.46
  0
LWPOLYLINE
  5
2A4
330
20
100
AcDbEntity
  8
0
100
AcDbPolyline
 90
        4
 70
     1
 43
0.0
 10
6625.0
 20
4210.65
 10
6625.0
 20
4085.65
 10
6937.5
 20
4085.65
 10
6937.5
 20
4210.65
  0
LWPOLYLINE
  5
2AA
330
20
100
AcDbEntity
  8
0
100
AcDbPolyline
 90
        4
 70
     1
 43
0.0
 10
6375.0
 20
4025.46
 10
6375.0
 20
3400.460000000001
 10
6750.0
 20
3400.460000000001
 10
6750.0
 20
4025.46
  0
LWPOLYLINE
  5
2B0
330
20
100
AcDbEntity
  8
0
100
AcDbPolyline
 90
        4
 70
     1
 43
0.0
 10
6125.0
 20
4210.65
 10
6125.0
 20
4085.65
 10
6437.5
 20
4085.65
 10
6437.5
 20
4210.65
  0
LWPOLYLINE
  5
2B6
330
20
100
AcDbEntity
  8
0
100
AcDbPolyline
 90
        4
 70
     1
 43
0.0
 10
5875.0
 20
4025.46
 10
5875.0
 20
3400.460000000001
 10
6250.0
 20
3400.460000000001
 10
6250.0
 20
4025.46
  0
LWPOLYLINE
  5
2BC
330
20
100
AcDbEntity
  8
0
100
AcDbPolyline
 90
        4
 70
     1
 43
0.0
 10
5625.0
 20
4210.65
 10
5625.0
 20
4085.65
 10
5937.5
 20
4085.65
 10
5937.5
 20
4210.65
  0
LWPOLYLINE
  5
2C2
330
20
100
AcDbEntity
  8
0
100
AcDbPolyline
 90
        4
 70
     1
 43
0.0
 10
5375.0
 20
4025.46
 10
5375.0
 20
3400.460000000001
 10
5750.0
 20
3400.460000000001
 10
5750.0
 20
4025.46
  0
LWPOLYLINE
  5
2C8
330
20
100
AcDbEntity
  8
0
100
AcDbPolyline
 90
        4
 70
     1
 43
0.0
 10
1625.0
 20
4400.46
 10
1625.0
 20
4250.0
 10
1875.0
 20
4250.0
 10
1875.0
 20
4400.46
  0
LWPOLYLINE
  5
2CE
330
20
100
AcDbEntity
  8
0
100
AcDbPolyline
 90
        4
 70
     1
 43
0.0
 10
1000.0
 20
4500.0
 10
1000.0
 20
3750.0
 10
1500.0
 20
3750.0
 10
1500.0
 20
4500.0
  0
LWPOLYLINE
  5
2D4
330
20
100
AcDbEntity
  8
0
100
AcDbPolyline
 90
        4
 70
     1
 43
0.0
 10
625.0
 20
4375.0
 10
625.0
 20
4224.54
 10
875.0
 20
4224.54
 10
875.0
 20
4375.0
  0
LWPOLYLINE
  5
2DA
330
20
100
AcDbEntity
  8
0
100
AcDbPolyline
 90
        4
 70
     1
 43
0.0
 10
0.0
 20
4500.0
 10
0.0
 20
3750.0
 10
500.0
 20
3750.0
 10
500.0
 20
4500.0
  0
LWPOLYLINE
  5
2E0
330
20
100
AcDbEntity
  8
0
100
AcDbPolyline
 90
       61
 70
     1
 43
0.0
 10
7875.0
 20
4750.0
 10
7875.0
 20
4761.569999999999
 10
7872.69
 20
4775.46
 10
7870.37
 20
4787.04
 10
7865.739999999999
 20
4798.61
 10
7858.800000000001
 20
4807.87
 10
7854.17
 20
4819.44
 10
7847.22
 20
4828.7
 10
7837.959999999999
 20
4837.96
 10
7828.700000000001
 20
4844.91
 10
7819.44
 20
4854.169999999999
 10
7810.19
 20
4858.8
 10
7798.61
 20
4865.739999999999
 10
7787.040000000001
 20
4868.06
 10
7775.459999999999
 20
4872.69
 10
7763.89
 20
4875.0
 10
7736.11
 20
4875.0
 10
7724.540000000001
 20
4872.69
 10
7712.959999999999
 20
4868.06
 10
7701.39
 20
4865.739999999999
 10
7689.81
 20
4858.8
 10
7680.560000000001
 20
4854.169999999999
 10
7671.300000000001
 20
4844.91
 10
7662.040000000001
 20
4837.96
 10
7652.779999999999
 20
4828.7
 10
7645.83
 20
4819.44
 10
7641.200000000001
 20
4807.87
 10
7634.260000000001
 20
4798.61
 10
7629.63
 20
4787.04
 10
7627.31
 20
4775.46
 10
7625.0
 20
4761.569999999999
 10
7625.0
 20
4736.11
 10
7627.31
 20
4724.54
 10
7629.63
 20
4712.96
 10
7634.260000000001
 20
4701.39
 10
7641.200000000001
 20
4689.81
 10
7645.83
 20
4678.239999999999
 10
7652.779999999999
 20
4668.98
 10
7662.040000000001
 20
4659.72
 10
7671.300000000001
 20
4652.779999999999
 10
7680.560000000001
 20
4645.83
 10
7689.81
 20
4638.89
 10
7701.39
 20
4634.26
 10
7712.959999999999
 20
4629.63
 10
7724.540000000001
 20
4627.31
 10
7736.11
 20
4625.0
 10
7763.89
 20
4625.0
 10
7775.459999999999
 20
4627.31
 10
7787.040000000001
 20
4629.63
 10
7798.61
 20
4634.26
 10
7810.19
 20
4638.89
 10
7819.44
 20
4645.83
 10
7828.700000000001
 20
4652.779999999999
 10
7837.959999999999
 20
4659.72
 10
7847.22
 20
4668.98
 10
7854.17
 20
4678.239999999999
 10
7858.800000000001
 20
4689.81
 10
7865.739999999999
 20
4701.39
 10
7870.37
 20
4712.96
 10
7872.69
 20
4724.54
 10
7875.0
 20
4736.11
  0
LWPOLYLINE
  5
31F
330
20
100
AcDbEntity
  8
0
100
AcDbPolyline
 90
        4
 70
     1
 43
0.0
 10
7125.0
 20
4900.46
 10
7125.0
 20
4275.46
 10
7500.0
 20
4275.46
 10
7500.0
 20
4900.46
  0
LWPOLYLINE
  5
325
330
20
100
AcDbEntity
  8
0
100
AcDbPolyline
 90
        4
 70
     1
 43
0.0
 10
6625.0
 20
4900.46
 10
6625.0
 20
4275.46
 10
7000.0
 20
4275.46
 10
7000.0
 20
4900.46
  0
LWPOLYLINE
  5
32B
330
20
100
AcDbEntity
  8
0
100
AcDbPolyline
 90
        4
 70
     1
 43
0.0
 10
6125.0
 20
4900.46
 10
6125.0
 20
4275.46
 10
6500.0
 20
4275.46
 10
6500.0
 20
4900.46
  0
LWPOLYLINE
  5
331
330
20
100
AcDbEntity
  8
0
100
AcDbPolyline
 90
        4
 70
     1
 43
0.0
 10
5625.0
 20
4900.46
 10
5625.0
 20
4275.46
 10
6000.0
 20
4275.46
 10
6000.0
 20
4900.46
  0
LWPOLYLINE
  5
337
330
20
100
AcDbEntity
  8
0
100
AcDbPolyline
 90
        4
 70
     1
 43
0.0
 10
4000.0
 20
4750.0
 10
4000.0
 20
4125.0
 10
4375.0
 20
4125.0
 10
4375.0
 20
4750.0
  0
LWPOLYLINE
  5
33D
330
20
100
AcDbEntity
  8
0
100
AcDbPolyline
 90
        4
 70
     1
 43
0.0
 10
3500.0
 20
4750.0
 10
3500.0
 20
4125.0
 10
3875.0
 20
4125.0
 10
3875.0
 20
4750.0
  0
LWPOLYLINE
  5
343
330
20
100
AcDbEntity
  8
0
100
AcDbPolyline
 90
        4
 70
     1
 43
0.0
 10
3000.0
 20
4750.0
 10
3000.0
 20
4125.0
 10
3375.0
 20
4125.0
 10
3375.0
 20
4750.0
  0
LWPOLYLINE
  5
349
330
20
100
AcDbEntity
  8
0
100
AcDbPolyline
 90
        4
 70
     1
 43
0.0
 10
2500.0
 20
4750.0
 10
2500.0
 20
4125.0
 10
2875.0
 20
4125.0
 10
2875.0
 20
4750.0
  0
LWPOLYLINE
  5
34F
330
20
100
AcDbEntity
  8
0
100
AcDbPolyline
 90
        4
 70
     1
 43
0.0
 10
2000.0
 20
4750.0
 10
2000.0
 20
4125.0
 10
2375.0
 20
4125.0
 10
2375.0
 20
4750.0
  0
LWPOLYLINE
  5
355
330
20
100
AcDbEntity
  8
0
100
AcDbPolyline
 90
        4
 70
     1
 43
0.0
 10
1250.0
 20
4750.0
 10
1250.0
 20
4599.54
 10
1500.0
 20
4599.54
 10
1500.0
 20
4750.0
  0
LWPOLYLINE
  5
35B
330
20
100
AcDbEntity
  8
0
100
AcDbPolyline
 90
        4
 70
     1
 43
0.0
 10
1000.0
 20
4750.0
 10
1000.0
 20
4599.54
 10
1250.0
 20
4599.54
 10
1250.0
 20
4750.0
  0
LWPOLYLINE
  5
361
330
20
100
AcDbEntity
  8
0
100
AcDbPolyline
 90
       61
 70
     1
 43
0.0
 10
375.0
 20
4750.0
 10
375.0
 20
4761.569999999999
 10
372.69
 20
4775.46
 10
370.37
 20
4787.04
 10
365.74
 20
4798.61
 10
361.11
 20
4807.87
 10
354.17
 20
4819.44
 10
347.22
 20
4828.7
 10
340.28
 20
4837.96
 10
331.02
 20
4844.91
 10
321.76
 20
4854.169999999999
 10
310.19
 20
4858.8
 10
298.61
 20
4865.739999999999
 10
287.04
 20
4868.06
 10
275.46
 20
4872.69
 10
263.89
 20
4875.0
 10
238.43
 20
4875.0
 10
224.54
 20
4872.69
 10
212.96
 20
4868.06
 10
201.39
 20
4865.739999999999
 10
192.13
 20
4858.8
 10
180.56
 20
4854.169999999999
 10
171.3
 20
4844.91
 10
162.04
 20
4837.96
 10
155.09
 20
4828.7
 10
148.15
 20
4819.44
 10
141.2
 20
4807.87
 10
134.26
 20
4798.61
 10
131.94
 20
4787.04
 10
127.31
 20
4775.46
 10
125.0
 20
4761.569999999999
 10
125.0
 20
4736.11
 10
127.31
 20
4724.54
 10
131.94
 20
4712.96
 10
134.26
 20
4701.39
 10
141.2
 20
4689.81
 10
148.15
 20
4678.239999999999
 10
155.09
 20
4668.98
 10
162.04
 20
4659.72
 10
171.3
 20
4652.779999999999
 10
180.56
 20
4645.83
 10
192.13
 20
4638.89
 10
201.39
 20
4634.26
 10
212.96
 20
4629.63
 10
224.54
 20
4627.31
 10
238.43
 20
4625.0
 10
263.89
 20
4625.0
 10
275.46
 20
4627.31
 10
287.04
 20
4629.63
 10
298.61
 20
4634.26
 10
310.19
 20
4638.89
 10
321.76
 20
4645.83
 10
331.02
 20
4652.779999999999
 10
340.28
 20
4659.72
 10
347.22
 20
4668.98
 10
354.17
 20
4678.239999999999
 10
361.11
 20
4689.81
 10
365.74
 20
4701.39
 10
370.37
 20
4712.96
 10
372.69
 20
4724.54
 10
375.0
 20
4736.11
  0
LWPOLYLINE
  5
3A0
330
20
100
AcDbEntity
  8
0
100
AcDbPolyline
 90
        4
 70
     1
 43
0.0
 10
0.0
 20
5000.0
 10
0.0
 20
0.0
 10
8000.0
 20
0.0
 10
8000.0
 20
5000.0
  0
ENDSEC
  0
SECTION
  2
OBJECTS
  0
DICTIONARY
  5
C
330
0
100
AcDbDictionary
281
     1
  3
ACAD_COLOR
350
1B
  3
ACAD_GROUP
350
D
  3
ACAD_LAYOUT
350
19
  3
ACAD_MATERIAL
350
1A
  3
ACAD_MLINESTYLE
350
16
  3
ACAD_PLOTSETTINGS
350
18
  3
ACAD_PLOTSTYLENAME
350
E
  0
DICTIONARY
  5
1B
102
{ACAD_REACTORS
330
C
102
}
330
C
100
AcDbDictionary
281
     1
  0
DICTIONARY
  5
D
102
{ACAD_REACTORS
330
C
102
}
330
C
100
AcDbDictionary
281
     1
  0
DICTIONARY
  5
19
102
{ACAD_REACTORS
330
C
102
}
330
C
100
AcDbDictionary
281
     1
  3
Layout1
350
1F
  3
Model
350
23
  0
DICTIONARY
  5
1A
102
{ACAD_REACTORS
330
C
102
}
330
C
100
AcDbDictionary
281
     1
  0
DICTIONARY
  5
16
102
{ACAD_REACTORS
330
C
102
}
330
C
100
AcDbDictionary
281
     1
  3
Standard
350
17
  0
DICTIONARY
  5
18
102
{ACAD_REACTORS
330
C
102
}
330
C
100
AcDbDictionary
281
     1
  0
ACDBDICTIONARYWDFLT
  5
E
102
{ACAD_REACTORS
330
C
102
}
330
C
100
AcDbDictionary
281
     1
  3
Normal
350
F
100
AcDbDictionaryWithDefault
340
F
  0
LAYOUT
  5
1F
102
{ACAD_REACTORS
330
19
102
}
330
19
100
AcDbPlotSettings
  1

  2
\\server\HP LaserJet 1100
  4

  6

 40
0.0
 41
0.0
 42
0.0
 43
0.0
 44
0.0
 45
0.0
 46
0.0
 47
0.0
 48
0.0
 49
0.0
140
0.0
141
0.0
142
1.0
143
1.0
 70
   688
 72
     0
 73
     0
 74
     5
  7

 75
    16
147
1.0
 76
     0
 77
     2
 78
   300
148
0.0
149
0.0
100
AcDbLayout
  1
Layout1
 70
     1
 71
     1
 10
0.0
 20
0.0
 11
12.0
 21
9.0
 12
0.0
 22
0.0
 32
0.0
 14
1.000000000000000E+20
 24
1.000000000000000E+20
 34
1.000000000000000E+20
 15
-1.000000000000000E+20
 25
-1.000000000000000E+20
 35
-1.000000000000000E+20
146
0.0
 13
0.0
 23
0.0
 33
0.0
 16
1.0
 26
0.0
 36
0.0
 17
0.0
 27
1.0
 37
0.0
 76
     0
330
1C
  0
LAYOUT
  5
23
102
{ACAD_REACTORS
330
19
102
}
330
19
100
AcDbPlotSettings
  1

  2
\\server\HP LaserJet 1100
  4

  6

 40
0.0
 41
0.0
 42
0.0
 43
0.0
 44
0.0
 45
0.0
 46
0.0
 47
0.0
 48
0.0
 49
0.0
140
0.0
141
0.0
142
1.0
143
1.0
 70
  1712
 72
     0
 73
     0
 74
     0
  7

 75
     0
147
1.0
 76
     0
 77
     2
 78
   300
148
0.0
149
0.0
100
AcDbLayout
  1
Model
 70
     1
 71
     0
 10
0.0
 20
0.0
 11
12.0
 21
9.0
 12
0.0
 22
0.0
 32
0.0
 14
0.0
 24
0.0
 34
0.0
 15
0.0
 25
0.0
 35
0.0
146
0.0
 13
0.0
 23
0.0
 33
0.0
 16
1.0
 26
0.0
 36
0.0
 17
0.0
 27
1.0
 37
0.0
 76
     0
330
20
  0
MLINESTYLE
  5
17
102
{ACAD_REACTORS
330
16
102
}
330
16
100
AcDbMlineStyle
  2
STANDARD
 70
     0
  3

 62
   256
 51
90.0
 52
90.0
 71
     2
 49
0.5
 62
   256
  6
BYLAYER
 49
-0.5
 62
   256
  6
BYLAYER
  0
ACDBPLACEHOLDER
  5
F
102
{ACAD_REACTORS
330
E
102
}
330
E
  0
ENDSEC
  0
EOF
