  0
SECTION
  2
HEADER
  9
$ACADVER
  1
AC1018
  9
$ACADMAINTVER
 70
     0
  9
$DWGCODEPAGE
  3
ANSI_1252
  9
$INSBASE
 10
0.0
 20
0.0
 30
0.0
  9
$EXTMIN
 10
89.0
 20
65.75735931288071
 30
0.0
  9
$EXTMAX
 10
7928.33366666667
 20
4800.0
 30
0.0
  9
$LIMMIN
 10
-9000.0
 20
-8800.0
  9
$LIMMAX
 10
41000.0
 20
41200.0
  9
$ORTHOMODE
 70
     0
  9
$REGENMODE
 70
     1
  9
$FILLMODE
 70
     1
  9
$QTEXTMODE
 70
     0
  9
$MIRRTEXT
 70
     0
  9
$LTSCALE
 40
1.0
  9
$ATTMODE
 70
     0
  9
$TEXTSIZE
 40
0.2
  9
$TRACEWID
 40
0.05
  9
$TEXTSTYLE
  7
STANDARD
  9
$CLAYER
  8
0
  9
$CELTYPE
  6
CONTINUOUS
  9
$CECOLOR
 62
   256
  9
$CELTSCALE
 40
1.0
  9
$DISPSILH
 70
     0
  9
$DIMSCALE
 40
1.0
  9
$DIMASZ
 40
0.18
  9
$DIMEXO
 40
0.0625
  9
$DIMDLI
 40
0.38
  9
$DIMRND
 40
0.0
  9
$DIMDLE
 40
0.0
  9
$DIMEXE
 40
0.18
  9
$DIMTP
 40
0.0
  9
$DIMTM
 40
0.0
  9
$DIMTXT
 40
0.18
  9
$DIMCEN
 40
0.09
  9
$DIMTSZ
 40
0.0
  9
$DIMTOL
 70
     0
  9
$DIMLIM
 70
     0
  9
$DIMTIH
 70
     1
  9
$DIMTOH
 70
     1
  9
$DIMSE1
 70
     0
  9
$DIMSE2
 70
     0
  9
$DIMTAD
 70
     0
  9
$DIMZIN
 70
     0
  9
$DIMBLK
  1

  9
$DIMASO
 70
     1
  9
$DIMSHO
 70
     1
  9
$DIMPOST
  1

  9
$DIMAPOST
  1

  9
$DIMALT
 70
     0
  9
$DIMALTD
 70
     2
  9
$DIMALTF
 40
25.4
  9
$DIMLFAC
 40
1.0
  9
$DIMTOFL
 70
     0
  9
$DIMTVP
 40
0.0
  9
$DIMTIX
 70
     0
  9
$DIMSOXD
 70
     0
  9
$DIMSAH
 70
     0
  9
$DIMBLK1
  1

  9
$DIMBLK2
  1

  9
$DIMSTYLE
  2
Standard
  9
$DIMCLRD
 70
     0
  9
$DIMCLRE
 70
     0
  9
$DIMCLRT
 70
     0
  9
$DIMTFAC
 40
1.0
  9
$DIMGAP
 40
0.09
  9
$DIMJUST
 70
     0
  9
$DIMSD1
 70
     0
  9
$DIMSD2
 70
     0
  9
$DIMTOLJ
 70
     1
  9
$DIMTZIN
 70
     0
  9
$DIMALTZ
 70
     0
  9
$DIMALTTZ
 70
     0
  9
$DIMUPT
 70
     0
  9
$DIMDEC
 70
     4
  9
$DIMTDEC
 70
     4
  9
$DIMALTU
 70
     2
  9
$DIMALTTD
 70
     2
  9
$DIMTXSTY
  7
STANDARD
  9
$DIMAUNIT
 70
     0
  9
$DIMADEC
 70
     0
  9
$DIMALTRND
 40
0.0
  9
$DIMAZIN
 70
     0
  9
$DIMDSEP
 70
    46
  9
$DIMATFIT
 70
     3
  9
$DIMFRAC
 70
     0
  9
$DIMLDRBLK
  1

  9
$DIMLUNIT
 70
     2
  9
$DIMLWD
 70
    -2
  9
$DIMLWE
 70
    -2
  9
$DIMTMOVE
 70
     0
  9
$LUNITS
 70
     2
  9
$LUPREC
 70
     3
  9
$SKETCHINC
 40
0.1
  9
$FILLETRAD
 40
0.0
  9
$AUNITS
 70
     0
  9
$AUPREC
 70
     0
  9
$MENU
  1
.
  9
$ELEVATION
 40
0.0
  9
$PELEVATION
 40
0.0
  9
$THICKNESS
 40
102.4
  9
$LIMCHECK
 70
     0
  9
$CHAMFERA
 40
0.0
  9
$CHAMFERB
 40
0.0
  9
$CHAMFERC
 40
0.0
  9
$CHAMFERD
 40
0.0
  9
$SKPOLY
 70
     0
  9
$TDCREATE
 40
2454658.004660012
  9
$TDUCREATE
 40
2454658.296326678
  9
$TDUPDATE
 40
2454658.005214120
  9
$TDUUPDATE
 40
2454658.296880787
  9
$TDINDWG
 40
0.0005541088
  9
$TDUSRTIMER
 40
0.0005541088
  9
$USRTIMER
 70
     1
  9
$ANGBASE
 50
0.0
  9
$ANGDIR
 70
     0
  9
$PDMODE
 70
     0
  9
$PDSIZE
 40
0.0
  9
$PLINEWID
 40
0.0
  9
$SPLFRAME
 70
     0
  9
$SPLINETYPE
 70
     6
  9
$SPLINESEGS
 70
     8
  9
$HANDSEED
  5
BBF
  9
$SURFTAB1
 70
     6
  9
$SURFTAB2
 70
     6
  9
$SURFTYPE
 70
     6
  9
$SURFU
 70
     6
  9
$SURFV
 70
     6
  9
$UCSBASE
  2

  9
$UCSNAME
  2

  9
$UCSORG
 10
0.0
 20
0.0
 30
0.0
  9
$UCSXDIR
 10
1.0
 20
0.0
 30
0.0
  9
$UCSYDIR
 10
0.0
 20
1.0
 30
0.0
  9
$UCSORTHOREF
  2

  9
$UCSORTHOVIEW
 70
     0
  9
$UCSORGTOP
 10
0.0
 20
0.0
 30
0.0
  9
$UCSORGBOTTOM
 10
0.0
 20
0.0
 30
0.0
  9
$UCSORGLEFT
 10
0.0
 20
0.0
 30
0.0
  9
$UCSORGRIGHT
 10
0.0
 20
0.0
 30
0.0
  9
$UCSORGFRONT
 10
0.0
 20
0.0
 30
0.0
  9
$UCSORGBACK
 10
0.0
 20
0.0
 30
0.0
  9
$PUCSBASE
  2

  9
$PUCSNAME
  2

  9
$PUCSORG
 10
0.0
 20
0.0
 30
0.0
  9
$PUCSXDIR
 10
1.0
 20
0.0
 30
0.0
  9
$PUCSYDIR
 10
0.0
 20
1.0
 30
0.0
  9
$PUCSORTHOREF
  2

  9
$PUCSORTHOVIEW
 70
     0
  9
$PUCSORGTOP
 10
0.0
 20
0.0
 30
0.0
  9
$PUCSORGBOTTOM
 10
0.0
 20
0.0
 30
0.0
  9
$PUCSORGLEFT
 10
0.0
 20
0.0
 30
0.0
  9
$PUCSORGRIGHT
 10
0.0
 20
0.0
 30
0.0
  9
$PUCSORGFRONT
 10
0.0
 20
0.0
 30
0.0
  9
$PUCSORGBACK
 10
0.0
 20
0.0
 30
0.0
  9
$USERI1
 70
     0
  9
$USERI2
 70
     0
  9
$USERI3
 70
     0
  9
$USERI4
 70
     0
  9
$USERI5
 70
     0
  9
$USERR1
 40
0.0
  9
$USERR2
 40
0.0
  9
$USERR3
 40
0.0
  9
$USERR4
 40
0.0
  9
$USERR5
 40
0.0
  9
$WORLDVIEW
 70
     1
  9
$SHADEDGE
 70
     3
  9
$SHADEDIF
 70
    70
  9
$TILEMODE
 70
     1
  9
$MAXACTVP
 70
    64
  9
$PINSBASE
 10
0.0
 20
0.0
 30
0.0
  9
$PLIMCHECK
 70
     0
  9
$PEXTMIN
 10
1.000000000000000E+20
 20
1.000000000000000E+20
 30
1.000000000000000E+20
  9
$PEXTMAX
 10
-1.000000000000000E+20
 20
-1.000000000000000E+20
 30
-1.000000000000000E+20
  9
$PLIMMIN
 10
0.0
 20
0.0
  9
$PLIMMAX
 10
12.0
 20
9.0
  9
$UNITMODE
 70
     0
  9
$VISRETAIN
 70
     1
  9
$PLINEGEN
 70
     0
  9
$PSLTSCALE
 70
     1
  9
$TREEDEPTH
 70
  3020
  9
$CMLSTYLE
  2
Standard
  9
$CMLJUST
 70
     0
  9
$CMLSCALE
 40
1.0
  9
$PROXYGRAPHICS
 70
     1
  9
$MEASUREMENT
 70
     0
  9
$CELWEIGHT
370
    -1
  9
$ENDCAPS
280
     0
  9
$JOINSTYLE
280
     0
  9
$LWDISPLAY
290
     0
  9
$INSUNITS
 70
     0
  9
$HYPERLINKBASE
  1

  9
$STYLESHEET
  1

  9
$XEDIT
290
     1
  9
$CEPSNTYPE
380
     0
  9
$PSTYLEMODE
290
     1
  9
$FINGERPRINTGUID
  2
{F6D3300D-2365-4EF2-9AAC-9135A6E2AD18}
  9
$VERSIONGUID
  2
{57277DA9-2BAB-4D3C-AE97-96EA5310B35F}
  9
$EXTNAMES
290
     1
  9
$PSVPSCALE
 40
0.0
  9
$OLESTARTUP
290
     0
  9
$SORTENTS
280
   127
  9
$INDEXCTL
280
     0
  9
$HIDETEXT
280
     0
  9
$XCLIPFRAME
290
     0
  9
$HALOGAP
280
     0
  9
$OBSCOLOR
 70
   257
  9
$OBSLTYPE
280
     0
  9
$INTERSECTIONDISPLAY
280
     0
  9
$INTERSECTIONCOLOR
 70
   257
  9
$DIMASSOC
280
     1
  9
$PROJECTNAME
  1

  0
ENDSEC
  0
SECTION
  2
CLASSES
  0
CLASS
  1
ACDBDICTIONARYWDFLT
  2
AcDbDictionaryWithDefault
  3
ObjectDBX Classes
 90
        0
 91
        1
280
     0
281
     0
  0
ENDSEC
  0
SECTION
  2
TABLES
  0
TABLE
  2
VPORT
  5
8
330
0
100
AcDbSymbolTable
 70
     2
  0
VPORT
  5
BBE
330
8
100
AcDbSymbolTableRecord
100
AcDbViewportTableRecord
  2
*Active
 70
     0
 10
0.0
 20
0.0
 11
1.0
 21
1.0
 12
2602.094881937429
 22
422.3901750904856
 13
0.0
 23
0.0
 14
1.0
 24
1.0
 15
0.0
 25
0.0
 16
0.0
 26
0.0
 36
1.0
 17
0.0
 27
0.0
 37
0.0
 40
977.3620365859706
 41
1.530456852791878
 42
50.0
 43
0.0
 44
0.0
 50
0.0
 51
0.0
 71
     0
 72
   100
 73
     1
 74
     1
 75
     0
 76
     0
 77
     0
 78
     0
281
     0
 65
     1
110
0.0
120
0.0
130
0.0
111
1.0
121
0.0
131
0.0
112
0.0
122
1.0
132
0.0
 79
     0
146
0.0
  0
ENDTAB
  0
TABLE
  2
LTYPE
  5
5
330
0
100
AcDbSymbolTable
 70
     1
  0
LTYPE
  5
13
330
5
100
AcDbSymbolTableRecord
100
AcDbLinetypeTableRecord
  2
ByBlock
 70
     0
  3

 72
    65
 73
     0
 40
0.0
  0
LTYPE
  5
14
330
5
100
AcDbSymbolTableRecord
100
AcDbLinetypeTableRecord
  2
ByLayer
 70
     0
  3

 72
    65
 73
     0
 40
0.0
  0
LTYPE
  5
15
330
5
100
AcDbSymbolTableRecord
100
AcDbLinetypeTableRecord
  2
CONTINUOUS
 70
     0
  3
Solid line
 72
    65
 73
     0
 40
0.0
  0
ENDTAB
  0
TABLE
  2
LAYER
  5
2
330
0
100
AcDbSymbolTable
 70
     2
  0
LAYER
  5
10
330
2
100
AcDbSymbolTableRecord
100
AcDbLayerTableRecord
  2
0
 70
     0
 62
     1
  6
CONTINUOUS
370
    -3
390
F
  0
LAYER
  5
26
330
2
100
AcDbSymbolTableRecord
100
AcDbLayerTableRecord
  2
CDN_FIGURES
 70
     0
 62
     7
  6
CONTINUOUS
370
    -3
390
F
  0
ENDTAB
  0
TABLE
  2
STYLE
  5
3
330
0
100
AcDbSymbolTable
 70
     1
  0
STYLE
  5
11
330
3
100
AcDbSymbolTableRecord
100
AcDbTextStyleTableRecord
  2
STANDARD
 70
     0
 40
0.0
 41
1.0
 50
0.0
 71
     0
 42
0.2
  3
txt
  4

  0
ENDTAB
  0
TABLE
  2
VIEW
  5
6
330
0
100
AcDbSymbolTable
 70
     0
  0
ENDTAB
  0
TABLE
  2
UCS
  5
7
330
0
100
AcDbSymbolTable
 70
     0
  0
ENDTAB
  0
TABLE
  2
APPID
  5
9
330
0
100
AcDbSymbolTable
 70
     1
  0
APPID
  5
12
330
9
100
AcDbSymbolTableRecord
100
AcDbRegAppTableRecord
  2
ACAD
 70
     0
  0
ENDTAB
  0
TABLE
  2
DIMSTYLE
  5
A
330
0
100
AcDbSymbolTable
 70
     1
100
AcDbDimStyleTable
 71
     0
  0
DIMSTYLE
105
BBC
330
A
100
AcDbSymbolTableRecord
100
AcDbDimStyleTableRecord
  2
Standard
 70
     0
340
11
  0
ENDTAB
  0
TABLE
  2
BLOCK_RECORD
  5
1
330
0
100
AcDbSymbolTable
 70
     8
  0
BLOCK_RECORD
  5
20
330
1
100
AcDbSymbolTableRecord
100
AcDbBlockTableRecord
  2
*Model_Space
340
23
  0
BLOCK_RECORD
  5
1C
330
1
100
AcDbSymbolTableRecord
100
AcDbBlockTableRecord
  2
*Paper_Space
340
1F
  0
BLOCK_RECORD
  5
27
330
1
100
AcDbSymbolTableRecord
100
AcDbBlockTableRecord
  2
FIGURE_CIRCLE
340
0
  0
BLOCK_RECORD
  5
2B
330
1
100
AcDbSymbolTableRecord
100
AcDbBlockTableRecord
  2
FIGURE_SQUARE
340
0
  0
BLOCK_RECORD
  5
34
330
1
100
AcDbSymbolTableRecord
100
AcDbBlockTableRecord
  2
FIGURE_HEX
340
0
  0
BLOCK_RECORD
  5
3F
330
1
100
AcDbSymbolTableRecord
100
AcDbBlockTableRecord
  2
FIGURE_OCT
340
0
  0
BLOCK_RECORD
  5
4C
330
1
100
AcDbSymbolTableRecord
100
AcDbBlockTableRecord
  2
FIGURE_OBLONG
340
0
  0
BLOCK_RECORD
  5
5D
330
1
100
AcDbSymbolTableRecord
100
AcDbBlockTableRecord
  2
FIGURE_TRI
340
0
  0
BLOCK_RECORD
  5
65
330
1
100
AcDbSymbolTableRecord
100
AcDbBlockTableRecord
  2
FIGURE_CROSS
340
0
  0
BLOCK_RECORD
  5
70
330
1
100
AcDbSymbolTableRecord
100
AcDbBlockTableRecord
  2
FIGURE_DIAMOND
340
0
  0
ENDTAB
  0
ENDSEC
  0
SECTION
  2
BLOCKS
  0
BLOCK
  5
21
330
20
100
AcDbEntity
  8
0
100
AcDbBlockBegin
  2
*Model_Space
 70
     0
 10
0.0
 20
0.0
 30
0.0
  3
*Model_Space
  1

  0
ENDBLK
  5
22
330
20
100
AcDbEntity
  8
0
100
AcDbBlockEnd
  0
BLOCK
  5
1D
330
1C
100
AcDbEntity
 67
     1
  8
0
100
AcDbBlockBegin
  2
*Paper_Space
 70
     0
 10
0.0
 20
0.0
 30
0.0
  3
*Paper_Space
  1

  0
ENDBLK
  5
1E
330
1C
100
AcDbEntity
 67
     1
  8
0
100
AcDbBlockEnd
  0
BLOCK
  5
28
330
27
100
AcDbEntity
  8
CDN_FIGURES
100
AcDbBlockBegin
  2
FIGURE_CIRCLE
 70
     0
 10
0.0
 20
0.0
 30
0.0
  3
FIGURE_CIRCLE
  1

  0
CIRCLE
  5
29
330
27
100
AcDbEntity
  8
CDN_FIGURES
100
AcDbCircle
 10
0.0
 20
0.0
 30
0.0
 40
0.5
  0
ENDBLK
  5
2A
330
27
100
AcDbEntity
  8
0
100
AcDbBlockEnd
  0
BLOCK
  5
2C
330
2B
100
AcDbEntity
  8
CDN_FIGURES
100
AcDbBlockBegin
  2
FIGURE_SQUARE
 70
     0
 10
0.0
 20
0.0
 30
0.0
  3
FIGURE_SQUARE
  1

  0
LWPOLYLINE
  5
2D
330
2B
100
AcDbEntity
  8
CDN_FIGURES
100
AcDbPolyline
 90
        4
 70
     1
 43
0.0
 10
-0.5
 20
-0.5
 10
-0.5
 20
0.5
 10
0.5
 20
0.5
 10
0.5
 20
-0.5
  0
ENDBLK
  5
33
330
2B
100
AcDbEntity
  8
0
100
AcDbBlockEnd
  0
BLOCK
  5
35
330
34
100
AcDbEntity
  8
CDN_FIGURES
100
AcDbBlockBegin
  2
FIGURE_HEX
 70
     0
 10
0.0
 20
0.0
 30
0.0
  3
FIGURE_HEX
  1

  0
LWPOLYLINE
  5
36
330
34
100
AcDbEntity
  8
CDN_FIGURES
100
AcDbPolyline
 90
        6
 70
     1
 43
0.0
 10
-0.5
 20
0.0
 10
-0.25
 20
0.5
 10
0.25
 20
0.5
 10
0.5
 20
0.0
 10
0.25
 20
-0.5
 10
-0.25
 20
-0.5
  0
ENDBLK
  5
3E
330
34
100
AcDbEntity
  8
0
100
AcDbBlockEnd
  0
BLOCK
  5
40
330
3F
100
AcDbEntity
  8
CDN_FIGURES
100
AcDbBlockBegin
  2
FIGURE_OCT
 70
     0
 10
0.0
 20
0.0
 30
0.0
  3
FIGURE_OCT
  1

  0
LWPOLYLINE
  5
41
330
3F
100
AcDbEntity
  8
CDN_FIGURES
100
AcDbPolyline
 90
        8
 70
     1
 43
0.0
 10
-0.5
 20
-0.2071
 10
-0.5
 20
0.2071
 10
-0.2071
 20
0.5
 10
0.2071
 20
0.5
 10
0.5
 20
0.2071
 10
0.5
 20
-0.2071
 10
0.2071
 20
-0.5
 10
-0.2071
 20
-0.5
  0
ENDBLK
  5
4B
330
3F
100
AcDbEntity
  8
0
100
AcDbBlockEnd
  0
BLOCK
  5
4D
330
4C
100
AcDbEntity
  8
CDN_FIGURES
100
AcDbBlockBegin
  2
FIGURE_OBLONG
 70
     0
 10
0.0
 20
0.0
 30
0.0
  3
FIGURE_OBLONG
  1

  0
LWPOLYLINE
  5
4E
330
4C
100
AcDbEntity
  8
CDN_FIGURES
100
AcDbPolyline
 90
       12
 70
     1
 43
0.0
 10
-0.5
 20
-0.125
 10
-0.5
 20
0.125
 10
-0.4160000000000001
 20
0.375
 10
-0.25
 20
0.5
 10
0.25
 20
0.5
 10
0.4160000000000001
 20
0.375
 10
0.5
 20
0.125
 10
0.5
 20
-0.125
 10
0.4160000000000001
 20
-0.375
 10
0.25
 20
-0.5
 10
-0.25
 20
-0.5
 10
-0.4160000000000001
 20
-0.375
  0
ENDBLK
  5
5C
330
4C
100
AcDbEntity
  8
0
100
AcDbBlockEnd
  0
BLOCK
  5
5E
330
5D
100
AcDbEntity
  8
CDN_FIGURES
100
AcDbBlockBegin
  2
FIGURE_TRI
 70
     0
 10
0.0
 20
0.0
 30
0.0
  3
FIGURE_TRI
  1

  0
LWPOLYLINE
  5
5F
330
5D
100
AcDbEntity
  8
CDN_FIGURES
100
AcDbPolyline
 90
        3
 70
     1
 43
0.0
 10
-0.5
 20
-0.5
 10
0.0
 20
0.5
 10
0.5
 20
-0.5
  0
ENDBLK
  5
64
330
5D
100
AcDbEntity
  8
0
100
AcDbBlockEnd
  0
BLOCK
  5
66
330
65
100
AcDbEntity
  8
CDN_FIGURES
100
AcDbBlockBegin
  2
FIGURE_CROSS
 70
     0
 10
0.0
 20
0.0
 30
0.0
  3
FIGURE_CROSS
  1

  0
LWPOLYLINE
  5
67
330
65
100
AcDbEntity
  8
CDN_FIGURES
100
AcDbPolyline
 90
        2
 70
     0
 43
0.0
 10
-0.5
 20
0.0
 10
0.5
 20
0.0
  0
LWPOLYLINE
  5
6B
330
65
100
AcDbEntity
  8
CDN_FIGURES
100
AcDbPolyline
 90
        2
 70
     0
 43
0.0
 10
0.0
 20
0.5
 10
0.0
 20
-0.5
  0
ENDBLK
  5
6F
330
65
100
AcDbEntity
  8
0
100
AcDbBlockEnd
  0
BLOCK
  5
71
330
70
100
AcDbEntity
  8
CDN_FIGURES
100
AcDbBlockBegin
  2
FIGURE_DIAMOND
 70
     0
 10
0.0
 20
0.0
 30
0.0
  3
FIGURE_DIAMOND
  1

  0
LWPOLYLINE
  5
72
330
70
100
AcDbEntity
  8
CDN_FIGURES
100
AcDbPolyline
 90
        4
 70
     1
 43
0.0
 10
-0.5
 20
0.0
 10
0.0
 20
0.5
 10
0.5
 20
0.0
 10
0.0
 20
-0.5
  0
ENDBLK
  5
78
330
70
100
AcDbEntity
  8
0
100
AcDbBlockEnd
  0
ENDSEC
  0
SECTION
  2
ENTITIES
  0
LWPOLYLINE
  5
12F
330
20
100
AcDbEntity
  8
0
100
AcDbPolyline
 90
        2
 70
     0
 43
0.0
 10
2717.962
 20
703.206
 10
2731.618
 20
703.206
  0
LWPOLYLINE
  5
133
330
20
100
AcDbEntity
  8
0
100
AcDbPolyline
 90
        2
 70
     0
 43
0.0
 10
2711.293
 20
710.587
 10
2721.918
 20
710.587
  0
LWPOLYLINE
  5
137
330
20
100
AcDbEntity
  8
0
100
AcDbPolyline
 90
        2
 70
     0
 43
0.0
 10
2704.35
 20
717.9679999999999
 10
2711.293
 20
710.587
  0
LWPOLYLINE
  5
13B
330
20
100
AcDbEntity
  8
0
100
AcDbPolyline
 90
        2
 70
     0
 43
0.0
 10
2711.293
 20
710.587
 10
2717.962
 20
703.206
  0
LWPOLYLINE
  5
13F
330
20
100
AcDbEntity
  8
0
100
AcDbPolyline
 90
        2
 70
     0
 43
0.0
 10
2709.443
 20
717.9679999999999
 10
2721.918
 20
710.587
  0
LWPOLYLINE
  5
143
330
20
100
AcDbEntity
  8
0
100
AcDbPolyline
 90
        2
 70
     0
 43
0.0
 10
2721.918
 20
710.587
 10
2731.618
 20
703.206
  0
LWPOLYLINE
  5
147
330
20
100
AcDbEntity
  8
0
100
AcDbPolyline
 90
        2
 70
     0
 43
0.0
 10
2781.293
 20
629.3869999999999
 10
2784.050000000001
 20
622.006
  0
LWPOLYLINE
  5
14B
330
20
100
AcDbEntity
  8
0
100
AcDbPolyline
 90
        2
 70
     0
 43
0.0
 10
2784.050000000001
 20
622.006
 10
2786.437
 20
614.625
  0
LWPOLYLINE
  5
14F
330
20
100
AcDbEntity
  8
0
100
AcDbPolyline
 90
        2
 70
     0
 43
0.0
 10
2786.437
 20
614.625
 10
2788.481
 20
607.243
  0
LWPOLYLINE
  5
153
330
20
100
AcDbEntity
  8
0
100
AcDbPolyline
 90
        2
 70
     0
 43
0.0
 10
2788.481
 20
607.243
 10
2790.156
 20
599.8619999999999
  0
LWPOLYLINE
  5
157
330
20
100
AcDbEntity
  8
0
100
AcDbPolyline
 90
        2
 70
     0
 43
0.0
 10
2790.156
 20
599.8619999999999
 10
2791.431
 20
592.4809999999999
  0
LWPOLYLINE
  5
15B
330
20
100
AcDbEntity
  8
0
100
AcDbPolyline
 90
        2
 70
     0
 43
0.0
 10
2791.431
 20
592.4809999999999
 10
2792.687
 20
585.0999999999999
  0
LWPOLYLINE
  5
15F
330
20
100
AcDbEntity
  8
0
100
AcDbPolyline
 90
        2
 70
     0
 43
0.0
 10
2704.35
 20
717.9679999999999
 10
2709.443
 20
717.9679999999999
  0
LWPOLYLINE
  5
163
330
20
100
AcDbEntity
  8
0
100
AcDbPolyline
 90
        2
 70
     0
 43
0.0
 10
2724.281
 20
695.825
 10
2739.612
 20
695.825
  0
LWPOLYLINE
  5
167
330
20
100
AcDbEntity
  8
0
100
AcDbPolyline
 90
        2
 70
     0
 43
0.0
 10
2730.137
 20
688.443
 10
2746.481000000001
 20
688.443
  0
LWPOLYLINE
  5
16B
330
20
100
AcDbEntity
  8
0
100
AcDbPolyline
 90
        2
 70
     0
 43
0.0
 10
2735.456
 20
681.062
 10
2752.481
 20
681.062
  0
LWPOLYLINE
  5
16F
330
20
100
AcDbEntity
  8
0
100
AcDbPolyline
 90
        2
 70
     0
 43
0.0
 10
2740.25
 20
673.681
 10
2757.843
 20
673.681
  0
LWPOLYLINE
  5
173
330
20
100
AcDbEntity
  8
0
100
AcDbPolyline
 90
        2
 70
     0
 43
0.0
 10
2744.537
 20
666.2999999999999
 10
2762.668
 20
666.2999999999999
  0
LWPOLYLINE
  5
177
330
20
100
AcDbEntity
  8
0
100
AcDbPolyline
 90
        2
 70
     0
 43
0.0
 10
2717.962
 20
703.206
 10
2724.281
 20
695.825
  0
LWPOLYLINE
  5
17B
330
20
100
AcDbEntity
  8
0
100
AcDbPolyline
 90
        2
 70
     0
 43
0.0
 10
2724.281
 20
695.825
 10
2730.137
 20
688.443
  0
LWPOLYLINE
  5
17F
330
20
100
AcDbEntity
  8
0
100
AcDbPolyline
 90
        2
 70
     0
 43
0.0
 10
2730.137
 20
688.443
 10
2735.456
 20
681.062
  0
LWPOLYLINE
  5
183
330
20
100
AcDbEntity
  8
0
100
AcDbPolyline
 90
        2
 70
     0
 43
0.0
 10
2735.456
 20
681.062
 10
2740.25
 20
673.681
  0
LWPOLYLINE
  5
187
330
20
100
AcDbEntity
  8
0
100
AcDbPolyline
 90
        2
 70
     0
 43
0.0
 10
2740.25
 20
673.681
 10
2744.537
 20
666.2999999999999
  0
LWPOLYLINE
  5
18B
330
20
100
AcDbEntity
  8
0
100
AcDbPolyline
 90
        2
 70
     0
 43
0.0
 10
2731.618
 20
703.206
 10
2739.612
 20
695.825
  0
LWPOLYLINE
  5
18F
330
20
100
AcDbEntity
  8
0
100
AcDbPolyline
 90
        2
 70
     0
 43
0.0
 10
2739.612
 20
695.825
 10
2746.481000000001
 20
688.443
  0
LWPOLYLINE
  5
193
330
20
100
AcDbEntity
  8
0
100
AcDbPolyline
 90
        2
 70
     0
 43
0.0
 10
2746.481000000001
 20
688.443
 10
2752.481
 20
681.062
  0
LWPOLYLINE
  5
197
330
20
100
AcDbEntity
  8
0
100
AcDbPolyline
 90
        2
 70
     0
 43
0.0
 10
2752.481
 20
681.062
 10
2757.843
 20
673.681
  0
LWPOLYLINE
  5
19B
330
20
100
AcDbEntity
  8
0
100
AcDbPolyline
 90
        2
 70
     0
 43
0.0
 10
2757.843
 20
673.681
 10
2762.668
 20
666.2999999999999
  0
LWPOLYLINE
  5
19F
330
20
100
AcDbEntity
  8
0
100
AcDbPolyline
 90
        2
 70
     0
 43
0.0
 10
2792.687
 20
585.0999999999999
 10
2792.762
 20
577.7179999999999
  0
LWPOLYLINE
  5
1A3
330
20
100
AcDbEntity
  8
0
100
AcDbPolyline
 90
        2
 70
     0
 43
0.0
 10
2792.762
 20
577.7179999999999
 10
2792.762
 20
570.331
  0
LWPOLYLINE
  5
1A7
330
20
100
AcDbEntity
  8
0
100
AcDbPolyline
 90
        2
 70
     0
 43
0.0
 10
2792.762
 20
570.331
 10
2792.762
 20
562.95
  0
LWPOLYLINE
  5
1AB
330
20
100
AcDbEntity
  8
0
100
AcDbPolyline
 90
        2
 70
     0
 43
0.0
 10
2792.762
 20
562.95
 10
2792.593
 20
555.5679999999999
  0
LWPOLYLINE
  5
1AF
330
20
100
AcDbEntity
  8
0
100
AcDbPolyline
 90
        2
 70
     0
 43
0.0
 10
2792.593
 20
555.5679999999999
 10
2792.218
 20
548.1869999999999
  0
LWPOLYLINE
  5
1B3
330
20
100
AcDbEntity
  8
0
100
AcDbPolyline
 90
        2
 70
     0
 43
0.0
 10
2792.218
 20
548.1869999999999
 10
2792.218
 20
540.806
  0
LWPOLYLINE
  5
1B7
330
20
100
AcDbEntity
  8
0
100
AcDbPolyline
 90
        2
 70
     0
 43
0.0
 10
2792.218
 20
540.806
 10
2791.312
 20
533.4249999999999
  0
LWPOLYLINE
  5
1BB
330
20
100
AcDbEntity
  8
0
100
AcDbPolyline
 90
        2
 70
     0
 43
0.0
 10
2791.312
 20
533.4249999999999
 10
2790.718
 20
526.043
  0
LWPOLYLINE
  5
1BF
330
20
100
AcDbEntity
  8
0
100
AcDbPolyline
 90
        2
 70
     0
 43
0.0
 10
2790.718
 20
526.043
 10
2789.906
 20
518.662
  0
LWPOLYLINE
  5
1C3
330
20
100
AcDbEntity
  8
0
100
AcDbPolyline
 90
        2
 70
     0
 43
0.0
 10
2789.906
 20
518.662
 10
2789.093
 20
511.281
  0
LWPOLYLINE
  5
1C7
330
20
100
AcDbEntity
  8
0
100
AcDbPolyline
 90
        2
 70
     0
 43
0.0
 10
2789.093
 20
511.281
 10
2787.325
 20
503.8929999999999
  0
LWPOLYLINE
  5
1CB
330
20
100
AcDbEntity
  8
0
100
AcDbPolyline
 90
        2
 70
     0
 43
0.0
 10
2722.981000000001
 20
614.625
 10
2739.143
 20
614.625
  0
LWPOLYLINE
  5
1CF
330
20
100
AcDbEntity
  8
0
100
AcDbPolyline
 90
        2
 70
     0
 43
0.0
 10
2720.175000000001
 20
622.006
 10
2735.925
 20
622.006
  0
LWPOLYLINE
  5
1D3
330
20
100
AcDbEntity
  8
0
100
AcDbPolyline
 90
        2
 70
     0
 43
0.0
 10
2716.925
 20
629.3869999999999
 10
2732.106
 20
629.3869999999999
  0
LWPOLYLINE
  5
1D7
330
20
100
AcDbEntity
  8
0
100
AcDbPolyline
 90
        2
 70
     0
 43
0.0
 10
2713.287
 20
636.768
 10
2727.556
 20
636.768
  0
LWPOLYLINE
  5
1DB
330
20
100
AcDbEntity
  8
0
100
AcDbPolyline
 90
        2
 70
     0
 43
0.0
 10
2709.25
 20
644.1499999999999
 10
2722.243
 20
644.1499999999999
  0
LWPOLYLINE
  5
1DF
330
20
100
AcDbEntity
  8
0
100
AcDbPolyline
 90
        2
 70
     0
 43
0.0
 10
2704.893
 20
651.537
 10
2716.237
 20
651.537
  0
LWPOLYLINE
  5
1E3
330
20
100
AcDbEntity
  8
0
100
AcDbPolyline
 90
        2
 70
     0
 43
0.0
 10
2730.068000000001
 20
585.0999999999999
 10
2747.018
 20
585.0999999999999
  0
LWPOLYLINE
  5
1E7
330
20
100
AcDbEntity
  8
0
100
AcDbPolyline
 90
        2
 70
     0
 43
0.0
 10
2728.862
 20
592.4809999999999
 10
2745.693000000001
 20
592.4809999999999
  0
LWPOLYLINE
  5
1EB
330
20
100
AcDbEntity
  8
0
100
AcDbPolyline
 90
        2
 70
     0
 43
0.0
 10
2727.287
 20
599.8619999999999
 10
2743.968
 20
599.8619999999999
  0
LWPOLYLINE
  5
1EF
330
20
100
AcDbEntity
  8
0
100
AcDbPolyline
 90
        2
 70
     0
 43
0.0
 10
2725.343
 20
607.243
 10
2741.806
 20
607.243
  0
LWPOLYLINE
  5
1F3
330
20
100
AcDbEntity
  8
0
100
AcDbPolyline
 90
        2
 70
     0
 43
0.0
 10
2700.193
 20
658.9179999999999
 10
2709.668000000001
 20
658.9179999999999
  0
LWPOLYLINE
  5
1F7
330
20
100
AcDbEntity
  8
0
100
AcDbPolyline
 90
        2
 70
     0
 43
0.0
 10
2748.35
 20
658.9179999999999
 10
2767.050000000001
 20
658.9179999999999
  0
LWPOLYLINE
  5
1FB
330
20
100
AcDbEntity
  8
0
100
AcDbPolyline
 90
        2
 70
     0
 43
0.0
 10
2764.762000000001
 20
607.243
 10
2788.481
 20
607.243
  0
LWPOLYLINE
  5
1FF
330
20
100
AcDbEntity
  8
0
100
AcDbPolyline
 90
        2
 70
     0
 43
0.0
 10
2765.943
 20
599.8619999999999
 10
2790.156
 20
599.8619999999999
  0
LWPOLYLINE
  5
203
330
20
100
AcDbEntity
  8
0
100
AcDbPolyline
 90
        2
 70
     0
 43
0.0
 10
2766.875
 20
592.4809999999999
 10
2791.431
 20
592.4809999999999
  0
LWPOLYLINE
  5
207
330
20
100
AcDbEntity
  8
0
100
AcDbPolyline
 90
        2
 70
     0
 43
0.0
 10
2767.593
 20
585.0999999999999
 10
2792.293
 20
585.0999999999999
  0
LWPOLYLINE
  5
20B
330
20
100
AcDbEntity
  8
0
100
AcDbPolyline
 90
        2
 70
     0
 43
0.0
 10
2751.768
 20
651.537
 10
2771.087
 20
651.537
  0
LWPOLYLINE
  5
20F
330
20
100
AcDbEntity
  8
0
100
AcDbPolyline
 90
        2
 70
     0
 43
0.0
 10
2754.768
 20
644.1499999999999
 10
2774.8
 20
644.1499999999999
  0
LWPOLYLINE
  5
213
330
20
100
AcDbEntity
  8
0
100
AcDbPolyline
 90
        2
 70
     0
 43
0.0
 10
2757.406
 20
636.768
 10
2778.193
 20
636.768
  0
LWPOLYLINE
  5
217
330
20
100
AcDbEntity
  8
0
100
AcDbPolyline
 90
        2
 70
     0
 43
0.0
 10
2759.693
 20
629.3869999999999
 10
2781.293
 20
629.3869999999999
  0
LWPOLYLINE
  5
21B
330
20
100
AcDbEntity
  8
0
100
AcDbPolyline
 90
        2
 70
     0
 43
0.0
 10
2761.662
 20
622.006
 10
2784.050000000001
 20
622.006
  0
LWPOLYLINE
  5
21F
330
20
100
AcDbEntity
  8
0
100
AcDbPolyline
 90
        2
 70
     0
 43
0.0
 10
2763.331
 20
614.625
 10
2786.437
 20
614.625
  0
LWPOLYLINE
  5
223
330
20
100
AcDbEntity
  8
0
100
AcDbPolyline
 90
        2
 70
     0
 43
0.0
 10
2702.706
 20
599.8619999999999
 10
2705.093
 20
592.4809999999999
  0
LWPOLYLINE
  5
227
330
20
100
AcDbEntity
  8
0
100
AcDbPolyline
 90
        2
 70
     0
 43
0.0
 10
2700.193
 20
658.9179999999999
 10
2704.893
 20
651.537
  0
LWPOLYLINE
  5
22B
330
20
100
AcDbEntity
  8
0
100
AcDbPolyline
 90
        2
 70
     0
 43
0.0
 10
2704.893
 20
651.537
 10
2709.25
 20
644.1499999999999
  0
LWPOLYLINE
  5
22F
330
20
100
AcDbEntity
  8
0
100
AcDbPolyline
 90
        2
 70
     0
 43
0.0
 10
2709.25
 20
644.1499999999999
 10
2713.287
 20
636.768
  0
LWPOLYLINE
  5
233
330
20
100
AcDbEntity
  8
0
100
AcDbPolyline
 90
        2
 70
     0
 43
0.0
 10
2713.287
 20
636.768
 10
2716.925
 20
629.3869999999999
  0
LWPOLYLINE
  5
237
330
20
100
AcDbEntity
  8
0
100
AcDbPolyline
 90
        2
 70
     0
 43
0.0
 10
2716.925
 20
629.3869999999999
 10
2720.175000000001
 20
622.006
  0
LWPOLYLINE
  5
23B
330
20
100
AcDbEntity
  8
0
100
AcDbPolyline
 90
        2
 70
     0
 43
0.0
 10
2720.175000000001
 20
622.006
 10
2722.981000000001
 20
614.625
  0
LWPOLYLINE
  5
23F
330
20
100
AcDbEntity
  8
0
100
AcDbPolyline
 90
        2
 70
     0
 43
0.0
 10
2722.981000000001
 20
614.625
 10
2725.343
 20
607.243
  0
LWPOLYLINE
  5
243
330
20
100
AcDbEntity
  8
0
100
AcDbPolyline
 90
        2
 70
     0
 43
0.0
 10
2725.343
 20
607.243
 10
2727.287
 20
599.8619999999999
  0
LWPOLYLINE
  5
247
330
20
100
AcDbEntity
  8
0
100
AcDbPolyline
 90
        2
 70
     0
 43
0.0
 10
2727.287
 20
599.8619999999999
 10
2728.862
 20
592.4809999999999
  0
LWPOLYLINE
  5
24B
330
20
100
AcDbEntity
  8
0
100
AcDbPolyline
 90
        2
 70
     0
 43
0.0
 10
2728.862
 20
592.4809999999999
 10
2730.068000000001
 20
585.0999999999999
  0
LWPOLYLINE
  5
24F
330
20
100
AcDbEntity
  8
0
100
AcDbPolyline
 90
        2
 70
     0
 43
0.0
 10
2702.706
 20
666.2999999999999
 10
2709.668000000001
 20
658.9179999999999
  0
LWPOLYLINE
  5
253
330
20
100
AcDbEntity
  8
0
100
AcDbPolyline
 90
        2
 70
     0
 43
0.0
 10
2709.668000000001
 20
658.9179999999999
 10
2716.237
 20
651.537
  0
LWPOLYLINE
  5
257
330
20
100
AcDbEntity
  8
0
100
AcDbPolyline
 90
        2
 70
     0
 43
0.0
 10
2716.237
 20
651.537
 10
2722.243
 20
644.1499999999999
  0
LWPOLYLINE
  5
25B
330
20
100
AcDbEntity
  8
0
100
AcDbPolyline
 90
        2
 70
     0
 43
0.0
 10
2722.243
 20
644.1499999999999
 10
2727.556
 20
636.768
  0
LWPOLYLINE
  5
25F
330
20
100
AcDbEntity
  8
0
100
AcDbPolyline
 90
        2
 70
     0
 43
0.0
 10
2727.556
 20
636.768
 10
2732.106
 20
629.3869999999999
  0
LWPOLYLINE
  5
263
330
20
100
AcDbEntity
  8
0
100
AcDbPolyline
 90
        2
 70
     0
 43
0.0
 10
2732.106
 20
629.3869999999999
 10
2735.925
 20
622.006
  0
LWPOLYLINE
  5
267
330
20
100
AcDbEntity
  8
0
100
AcDbPolyline
 90
        2
 70
     0
 43
0.0
 10
2735.925
 20
622.006
 10
2739.143
 20
614.625
  0
LWPOLYLINE
  5
26B
330
20
100
AcDbEntity
  8
0
100
AcDbPolyline
 90
        2
 70
     0
 43
0.0
 10
2739.143
 20
614.625
 10
2741.806
 20
607.243
  0
LWPOLYLINE
  5
26F
330
20
100
AcDbEntity
  8
0
100
AcDbPolyline
 90
        2
 70
     0
 43
0.0
 10
2741.806
 20
607.243
 10
2743.968
 20
599.8619999999999
  0
LWPOLYLINE
  5
273
330
20
100
AcDbEntity
  8
0
100
AcDbPolyline
 90
        2
 70
     0
 43
0.0
 10
2743.968
 20
599.8619999999999
 10
2745.693000000001
 20
592.4809999999999
  0
LWPOLYLINE
  5
277
330
20
100
AcDbEntity
  8
0
100
AcDbPolyline
 90
        2
 70
     0
 43
0.0
 10
2745.693000000001
 20
592.4809999999999
 10
2747.018
 20
585.0999999999999
  0
LWPOLYLINE
  5
27B
330
20
100
AcDbEntity
  8
0
100
AcDbPolyline
 90
        2
 70
     0
 43
0.0
 10
2744.537
 20
666.2999999999999
 10
2748.35
 20
658.9179999999999
  0
LWPOLYLINE
  5
27F
330
20
100
AcDbEntity
  8
0
100
AcDbPolyline
 90
        2
 70
     0
 43
0.0
 10
2748.35
 20
658.9179999999999
 10
2751.768
 20
651.537
  0
LWPOLYLINE
  5
283
330
20
100
AcDbEntity
  8
0
100
AcDbPolyline
 90
        2
 70
     0
 43
0.0
 10
2751.768
 20
651.537
 10
2754.768
 20
644.1499999999999
  0
LWPOLYLINE
  5
287
330
20
100
AcDbEntity
  8
0
100
AcDbPolyline
 90
        2
 70
     0
 43
0.0
 10
2754.768
 20
644.1499999999999
 10
2757.406
 20
636.768
  0
LWPOLYLINE
  5
28B
330
20
100
AcDbEntity
  8
0
100
AcDbPolyline
 90
        2
 70
     0
 43
0.0
 10
2757.406
 20
636.768
 10
2759.693
 20
629.3869999999999
  0
LWPOLYLINE
  5
28F
330
20
100
AcDbEntity
  8
0
100
AcDbPolyline
 90
        2
 70
     0
 43
0.0
 10
2759.693
 20
629.3869999999999
 10
2761.662
 20
622.006
  0
LWPOLYLINE
  5
293
330
20
100
AcDbEntity
  8
0
100
AcDbPolyline
 90
        2
 70
     0
 43
0.0
 10
2761.662
 20
622.006
 10
2763.331
 20
614.625
  0
LWPOLYLINE
  5
297
330
20
100
AcDbEntity
  8
0
100
AcDbPolyline
 90
        2
 70
     0
 43
0.0
 10
2763.331
 20
614.625
 10
2764.837
 20
608.056
  0
LWPOLYLINE
  5
29B
330
20
100
AcDbEntity
  8
0
100
AcDbPolyline
 90
        2
 70
     0
 43
0.0
 10
2764.837
 20
608.056
 10
2765.943
 20
599.8619999999999
  0
LWPOLYLINE
  5
29F
330
20
100
AcDbEntity
  8
0
100
AcDbPolyline
 90
        2
 70
     0
 43
0.0
 10
2765.943
 20
599.8619999999999
 10
2766.9
 20
592.4809999999999
  0
LWPOLYLINE
  5
2A3
330
20
100
AcDbEntity
  8
0
100
AcDbPolyline
 90
        2
 70
     0
 43
0.0
 10
2766.9
 20
592.4809999999999
 10
2767.593
 20
585.0999999999999
  0
LWPOLYLINE
  5
2A7
330
20
100
AcDbEntity
  8
0
100
AcDbPolyline
 90
        2
 70
     0
 43
0.0
 10
2762.668
 20
666.2999999999999
 10
2766.9
 20
659.6309999999999
  0
LWPOLYLINE
  5
2AB
330
20
100
AcDbEntity
  8
0
100
AcDbPolyline
 90
        2
 70
     0
 43
0.0
 10
2766.9
 20
659.6309999999999
 10
2771.087
 20
651.537
  0
LWPOLYLINE
  5
2AF
330
20
100
AcDbEntity
  8
0
100
AcDbPolyline
 90
        2
 70
     0
 43
0.0
 10
2771.087
 20
651.537
 10
2774.8
 20
644.1499999999999
  0
LWPOLYLINE
  5
2B3
330
20
100
AcDbEntity
  8
0
100
AcDbPolyline
 90
        2
 70
     0
 43
0.0
 10
2774.8
 20
644.1499999999999
 10
2778.193
 20
636.768
  0
LWPOLYLINE
  5
2B7
330
20
100
AcDbEntity
  8
0
100
AcDbPolyline
 90
        2
 70
     0
 43
0.0
 10
2778.193
 20
636.768
 10
2781.293
 20
629.3869999999999
  0
LWPOLYLINE
  5
2BB
330
20
100
AcDbEntity
  8
0
100
AcDbPolyline
 90
        2
 70
     0
 43
0.0
 10
2731.518
 20
570.331
 10
2748.543
 20
570.331
  0
LWPOLYLINE
  5
2BF
330
20
100
AcDbEntity
  8
0
100
AcDbPolyline
 90
        2
 70
     0
 43
0.0
 10
2731.787
 20
562.95
 10
2748.793
 20
562.95
  0
LWPOLYLINE
  5
2C3
330
20
100
AcDbEntity
  8
0
100
AcDbPolyline
 90
        2
 70
     0
 43
0.0
 10
2731.737
 20
555.5679999999999
 10
2748.768
 20
555.5679999999999
  0
LWPOLYLINE
  5
2C7
330
20
100
AcDbEntity
  8
0
100
AcDbPolyline
 90
        2
 70
     0
 43
0.0
 10
2731.418
 20
548.1869999999999
 10
2748.468
 20
548.1869999999999
  0
LWPOLYLINE
  5
2CB
330
20
100
AcDbEntity
  8
0
100
AcDbPolyline
 90
        2
 70
     0
 43
0.0
 10
2730.781
 20
540.806
 10
2747.931
 20
540.806
  0
LWPOLYLINE
  5
2CF
330
20
100
AcDbEntity
  8
0
100
AcDbPolyline
 90
        2
 70
     0
 43
0.0
 10
2730.95
 20
577.7179999999999
 10
2747.956
 20
577.7179999999999
  0
LWPOLYLINE
  5
2D3
330
20
100
AcDbEntity
  8
0
100
AcDbPolyline
 90
        2
 70
     0
 43
0.0
 10
2768.081
 20
577.7179999999999
 10
2792.762
 20
577.7179999999999
  0
LWPOLYLINE
  5
2D7
330
20
100
AcDbEntity
  8
0
100
AcDbPolyline
 90
        2
 70
     0
 43
0.0
 10
2767.293
 20
540.806
 10
2791.806
 20
540.806
  0
LWPOLYLINE
  5
2DB
330
20
100
AcDbEntity
  8
0
100
AcDbPolyline
 90
        2
 70
     0
 43
0.0
 10
2767.912
 20
548.1869999999999
 10
2792.218
 20
548.1869999999999
  0
LWPOLYLINE
  5
2DF
330
20
100
AcDbEntity
  8
0
100
AcDbPolyline
 90
        2
 70
     0
 43
0.0
 10
2768.281
 20
555.5679999999999
 10
2792.593
 20
555.5679999999999
  0
LWPOLYLINE
  5
2E3
330
20
100
AcDbEntity
  8
0
100
AcDbPolyline
 90
        2
 70
     0
 43
0.0
 10
2768.425000000001
 20
562.95
 10
2792.862
 20
562.95
  0
LWPOLYLINE
  5
2E7
330
20
100
AcDbEntity
  8
0
100
AcDbPolyline
 90
        2
 70
     0
 43
0.0
 10
2768.375
 20
570.331
 10
2792.937
 20
570.331
  0
LWPOLYLINE
  5
2EB
330
20
100
AcDbEntity
  8
0
100
AcDbPolyline
 90
        2
 70
     0
 43
0.0
 10
2705.093
 20
592.4809999999999
 10
2708.487
 20
577.7179999999999
  0
LWPOLYLINE
  5
2EF
330
20
100
AcDbEntity
  8
0
100
AcDbPolyline
 90
        2
 70
     0
 43
0.0
 10
2708.487
 20
577.7179999999999
 10
2709.568
 20
570.331
  0
LWPOLYLINE
  5
2F3
330
20
100
AcDbEntity
  8
0
100
AcDbPolyline
 90
        2
 70
     0
 43
0.0
 10
2709.568
 20
570.331
 10
2710.231
 20
562.95
  0
LWPOLYLINE
  5
2F7
330
20
100
AcDbEntity
  8
0
100
AcDbPolyline
 90
        2
 70
     0
 43
0.0
 10
2710.231
 20
562.95
 10
2710.481000000001
 20
555.5679999999999
  0
LWPOLYLINE
  5
2FB
330
20
100
AcDbEntity
  8
0
100
AcDbPolyline
 90
        2
 70
     0
 43
0.0
 10
2710.481000000001
 20
555.5679999999999
 10
2710.356
 20
548.1869999999999
  0
LWPOLYLINE
  5
2FF
330
20
100
AcDbEntity
  8
0
100
AcDbPolyline
 90
        2
 70
     0
 43
0.0
 10
2710.356
 20
548.1869999999999
 10
2709.787
 20
540.806
  0
LWPOLYLINE
  5
303
330
20
100
AcDbEntity
  8
0
100
AcDbPolyline
 90
        2
 70
     0
 43
0.0
 10
2730.068000000001
 20
585.0999999999999
 10
2730.95
 20
577.7179999999999
  0
LWPOLYLINE
  5
307
330
20
100
AcDbEntity
  8
0
100
AcDbPolyline
 90
        2
 70
     0
 43
0.0
 10
2730.95
 20
577.7179999999999
 10
2731.518
 20
570.331
  0
LWPOLYLINE
  5
30B
330
20
100
AcDbEntity
  8
0
100
AcDbPolyline
 90
        2
 70
     0
 43
0.0
 10
2731.518
 20
570.331
 10
2731.787
 20
562.95
  0
LWPOLYLINE
  5
30F
330
20
100
AcDbEntity
  8
0
100
AcDbPolyline
 90
        2
 70
     0
 43
0.0
 10
2731.787
 20
562.95
 10
2731.737
 20
555.5679999999999
  0
LWPOLYLINE
  5
313
330
20
100
AcDbEntity
  8
0
100
AcDbPolyline
 90
        2
 70
     0
 43
0.0
 10
2731.737
 20
555.5679999999999
 10
2731.418
 20
548.1869999999999
  0
LWPOLYLINE
  5
317
330
20
100
AcDbEntity
  8
0
100
AcDbPolyline
 90
        2
 70
     0
 43
0.0
 10
2731.418
 20
548.1869999999999
 10
2730.781
 20
540.806
  0
LWPOLYLINE
  5
31B
330
20
100
AcDbEntity
  8
0
100
AcDbPolyline
 90
        2
 70
     0
 43
0.0
 10
2747.018
 20
585.0999999999999
 10
2747.956
 20
577.7179999999999
  0
LWPOLYLINE
  5
31F
330
20
100
AcDbEntity
  8
0
100
AcDbPolyline
 90
        2
 70
     0
 43
0.0
 10
2747.956
 20
577.7179999999999
 10
2748.543
 20
570.331
  0
LWPOLYLINE
  5
323
330
20
100
AcDbEntity
  8
0
100
AcDbPolyline
 90
        2
 70
     0
 43
0.0
 10
2748.543
 20
570.331
 10
2748.793
 20
562.95
  0
LWPOLYLINE
  5
327
330
20
100
AcDbEntity
  8
0
100
AcDbPolyline
 90
        2
 70
     0
 43
0.0
 10
2748.793
 20
562.95
 10
2748.768
 20
555.5679999999999
  0
LWPOLYLINE
  5
32B
330
20
100
AcDbEntity
  8
0
100
AcDbPolyline
 90
        2
 70
     0
 43
0.0
 10
2748.768
 20
555.5679999999999
 10
2748.468
 20
548.1869999999999
  0
LWPOLYLINE
  5
32F
330
20
100
AcDbEntity
  8
0
100
AcDbPolyline
 90
        2
 70
     0
 43
0.0
 10
2748.468
 20
548.1869999999999
 10
2747.931
 20
540.806
  0
LWPOLYLINE
  5
333
330
20
100
AcDbEntity
  8
0
100
AcDbPolyline
 90
        2
 70
     0
 43
0.0
 10
2767.593
 20
585.0999999999999
 10
2768.256
 20
577.7179999999999
  0
LWPOLYLINE
  5
337
330
20
100
AcDbEntity
  8
0
100
AcDbPolyline
 90
        2
 70
     0
 43
0.0
 10
2768.256
 20
577.7179999999999
 10
2768.375
 20
570.331
  0
LWPOLYLINE
  5
33B
330
20
100
AcDbEntity
  8
0
100
AcDbPolyline
 90
        2
 70
     0
 43
0.0
 10
2768.375
 20
570.331
 10
2768.375
 20
562.95
  0
LWPOLYLINE
  5
33F
330
20
100
AcDbEntity
  8
0
100
AcDbPolyline
 90
        2
 70
     0
 43
0.0
 10
2768.375
 20
562.95
 10
2768.281
 20
555.5679999999999
  0
LWPOLYLINE
  5
343
330
20
100
AcDbEntity
  8
0
100
AcDbPolyline
 90
        2
 70
     0
 43
0.0
 10
2768.281
 20
555.5679999999999
 10
2767.912
 20
548.1869999999999
  0
LWPOLYLINE
  5
347
330
20
100
AcDbEntity
  8
0
100
AcDbPolyline
 90
        2
 70
     0
 43
0.0
 10
2767.912
 20
548.1869999999999
 10
2767.293
 20
540.806
  0
LWPOLYLINE
  5
34B
330
20
100
AcDbEntity
  8
0
100
AcDbPolyline
 90
        2
 70
     0
 43
0.0
 10
2726.987
 20
518.662
 10
2744.856
 20
518.662
  0
LWPOLYLINE
  5
34F
330
20
100
AcDbEntity
  8
0
100
AcDbPolyline
 90
        2
 70
     0
 43
0.0
 10
2728.562
 20
526.043
 10
2746.131
 20
526.043
  0
LWPOLYLINE
  5
353
330
20
100
AcDbEntity
  8
0
100
AcDbPolyline
 90
        2
 70
     0
 43
0.0
 10
2729.818
 20
533.4249999999999
 10
2747.143
 20
533.4249999999999
  0
LWPOLYLINE
  5
357
330
20
100
AcDbEntity
  8
0
100
AcDbPolyline
 90
        2
 70
     0
 43
0.0
 10
2722.781
 20
503.8929999999999
 10
2741.312
 20
503.8929999999999
  0
LWPOLYLINE
  5
35B
330
20
100
AcDbEntity
  8
0
100
AcDbPolyline
 90
        2
 70
     0
 43
0.0
 10
2725.043
 20
511.281
 10
2743.256
 20
511.281
  0
LWPOLYLINE
  5
35F
330
20
100
AcDbEntity
  8
0
100
AcDbPolyline
 90
        2
 70
     0
 43
0.0
 10
2762.475
 20
511.281
 10
2788.8
 20
511.281
  0
LWPOLYLINE
  5
363
330
20
100
AcDbEntity
  8
0
100
AcDbPolyline
 90
        2
 70
     0
 43
0.0
 10
2760.625
 20
503.8929999999999
 10
2787.325
 20
503.8929999999999
  0
LWPOLYLINE
  5
367
330
20
100
AcDbEntity
  8
0
100
AcDbPolyline
 90
        2
 70
     0
 43
0.0
 10
2766.456
 20
533.4249999999999
 10
2791.312
 20
533.4249999999999
  0
LWPOLYLINE
  5
36B
330
20
100
AcDbEntity
  8
0
100
AcDbPolyline
 90
        2
 70
     0
 43
0.0
 10
2765.375000000001
 20
526.043
 10
2790.718
 20
526.043
  0
LWPOLYLINE
  5
36F
330
20
100
AcDbEntity
  8
0
100
AcDbPolyline
 90
        2
 70
     0
 43
0.0
 10
2764.050000000001
 20
518.662
 10
2789.906
 20
518.662
  0
LWPOLYLINE
  5
373
330
20
100
AcDbEntity
  8
0
100
AcDbPolyline
 90
        2
 70
     0
 43
0.0
 10
2709.787
 20
540.806
 10
2708.831
 20
533.4249999999999
  0
LWPOLYLINE
  5
377
330
20
100
AcDbEntity
  8
0
100
AcDbPolyline
 90
        2
 70
     0
 43
0.0
 10
2708.831
 20
533.4249999999999
 10
2707.45
 20
526.043
  0
LWPOLYLINE
  5
37B
330
20
100
AcDbEntity
  8
0
100
AcDbPolyline
 90
        2
 70
     0
 43
0.0
 10
2707.45
 20
526.043
 10
2705.631
 20
518.662
  0
LWPOLYLINE
  5
37F
330
20
100
AcDbEntity
  8
0
100
AcDbPolyline
 90
        2
 70
     0
 43
0.0
 10
2705.631
 20
518.662
 10
2703.343
 20
511.281
  0
LWPOLYLINE
  5
383
330
20
100
AcDbEntity
  8
0
100
AcDbPolyline
 90
        2
 70
     0
 43
0.0
 10
2703.343
 20
511.281
 10
2700.537
 20
503.8929999999999
  0
LWPOLYLINE
  5
387
330
20
100
AcDbEntity
  8
0
100
AcDbPolyline
 90
        2
 70
     0
 43
0.0
 10
2730.781
 20
540.806
 10
2729.818
 20
533.4249999999999
  0
LWPOLYLINE
  5
38B
330
20
100
AcDbEntity
  8
0
100
AcDbPolyline
 90
        2
 70
     0
 43
0.0
 10
2729.818
 20
533.4249999999999
 10
2728.562
 20
526.043
  0
LWPOLYLINE
  5
38F
330
20
100
AcDbEntity
  8
0
100
AcDbPolyline
 90
        2
 70
     0
 43
0.0
 10
2728.562
 20
526.043
 10
2726.987
 20
518.662
  0
LWPOLYLINE
  5
393
330
20
100
AcDbEntity
  8
0
100
AcDbPolyline
 90
        2
 70
     0
 43
0.0
 10
2726.987
 20
518.662
 10
2725.043
 20
511.281
  0
LWPOLYLINE
  5
397
330
20
100
AcDbEntity
  8
0
100
AcDbPolyline
 90
        2
 70
     0
 43
0.0
 10
2725.043
 20
511.281
 10
2722.781
 20
503.8929999999999
  0
LWPOLYLINE
  5
39B
330
20
100
AcDbEntity
  8
0
100
AcDbPolyline
 90
        2
 70
     0
 43
0.0
 10
2747.931
 20
540.806
 10
2747.143
 20
533.4249999999999
  0
LWPOLYLINE
  5
39F
330
20
100
AcDbEntity
  8
0
100
AcDbPolyline
 90
        2
 70
     0
 43
0.0
 10
2747.143
 20
533.4249999999999
 10
2746.131
 20
526.043
  0
LWPOLYLINE
  5
3A3
330
20
100
AcDbEntity
  8
0
100
AcDbPolyline
 90
        2
 70
     0
 43
0.0
 10
2746.131
 20
526.043
 10
2744.856
 20
518.662
  0
LWPOLYLINE
  5
3A7
330
20
100
AcDbEntity
  8
0
100
AcDbPolyline
 90
        2
 70
     0
 43
0.0
 10
2744.856
 20
518.662
 10
2743.256
 20
511.281
  0
LWPOLYLINE
  5
3AB
330
20
100
AcDbEntity
  8
0
100
AcDbPolyline
 90
        2
 70
     0
 43
0.0
 10
2743.256
 20
511.281
 10
2741.312
 20
503.8929999999999
  0
LWPOLYLINE
  5
3AF
330
20
100
AcDbEntity
  8
0
100
AcDbPolyline
 90
        2
 70
     0
 43
0.0
 10
2767.293
 20
540.806
 10
2766.456
 20
533.4249999999999
  0
LWPOLYLINE
  5
3B3
330
20
100
AcDbEntity
  8
0
100
AcDbPolyline
 90
        2
 70
     0
 43
0.0
 10
2766.456
 20
533.4249999999999
 10
2765.375000000001
 20
526.043
  0
LWPOLYLINE
  5
3B7
330
20
100
AcDbEntity
  8
0
100
AcDbPolyline
 90
        2
 70
     0
 43
0.0
 10
2765.375000000001
 20
526.043
 10
2764.050000000001
 20
518.662
  0
LWPOLYLINE
  5
3BB
330
20
100
AcDbEntity
  8
0
100
AcDbPolyline
 90
        2
 70
     0
 43
0.0
 10
2764.050000000001
 20
518.662
 10
2762.593
 20
510.587
  0
LWPOLYLINE
  5
3BF
330
20
100
AcDbEntity
  8
0
100
AcDbPolyline
 90
        2
 70
     0
 43
0.0
 10
2762.593
 20
510.587
 10
2760.625
 20
503.8929999999999
  0
LWPOLYLINE
  5
3C3
330
20
100
AcDbEntity
  8
0
100
AcDbPolyline
 90
        2
 70
     0
 43
0.0
 10
2701.45
 20
400.55
 10
2716.062
 20
400.55
  0
LWPOLYLINE
  5
3C7
330
20
100
AcDbEntity
  8
0
100
AcDbPolyline
 90
        2
 70
     0
 43
0.0
 10
2708.681
 20
407.9309999999999
 10
2725.637000000001
 20
407.9309999999999
  0
LWPOLYLINE
  5
3CB
330
20
100
AcDbEntity
  8
0
100
AcDbPolyline
 90
        2
 70
     0
 43
0.0
 10
2726.575
 20
430.0749999999999
 10
2748.912
 20
430.0749999999999
  0
LWPOLYLINE
  5
3CF
330
20
100
AcDbEntity
  8
0
100
AcDbPolyline
 90
        2
 70
     0
 43
0.0
 10
2721.231
 20
422.693
 10
2742.025
 20
422.693
  0
LWPOLYLINE
  5
3D3
330
20
100
AcDbEntity
  8
0
100
AcDbPolyline
 90
        2
 70
     0
 43
0.0
 10
2715.3
 20
415.312
 10
2734.225
 20
415.312
  0
LWPOLYLINE
  5
3D7
330
20
100
AcDbEntity
  8
0
100
AcDbPolyline
 90
        2
 70
     0
 43
0.0
 10
2731.443
 20
437.462
 10
2726.575
 20
430.0749999999999
  0
LWPOLYLINE
  5
3DB
330
20
100
AcDbEntity
  8
0
100
AcDbPolyline
 90
        2
 70
     0
 43
0.0
 10
2726.575
 20
430.0749999999999
 10
2721.231
 20
422.693
  0
LWPOLYLINE
  5
3DF
330
20
100
AcDbEntity
  8
0
100
AcDbPolyline
 90
        2
 70
     0
 43
0.0
 10
2721.231
 20
422.693
 10
2715.3
 20
415.312
  0
LWPOLYLINE
  5
3E3
330
20
100
AcDbEntity
  8
0
100
AcDbPolyline
 90
        2
 70
     0
 43
0.0
 10
2715.3
 20
415.312
 10
2708.681
 20
407.9309999999999
  0
LWPOLYLINE
  5
3E7
330
20
100
AcDbEntity
  8
0
100
AcDbPolyline
 90
        2
 70
     0
 43
0.0
 10
2708.681
 20
407.9309999999999
 10
2701.45
 20
400.55
  0
LWPOLYLINE
  5
3EB
330
20
100
AcDbEntity
  8
0
100
AcDbPolyline
 90
        2
 70
     0
 43
0.0
 10
2754.968
 20
437.462
 10
2748.912
 20
430.0749999999999
  0
LWPOLYLINE
  5
3EF
330
20
100
AcDbEntity
  8
0
100
AcDbPolyline
 90
        2
 70
     0
 43
0.0
 10
2748.912
 20
430.0749999999999
 10
2742.025
 20
422.693
  0
LWPOLYLINE
  5
3F3
330
20
100
AcDbEntity
  8
0
100
AcDbPolyline
 90
        2
 70
     0
 43
0.0
 10
2742.025
 20
422.693
 10
2734.225
 20
415.312
  0
LWPOLYLINE
  5
3F7
330
20
100
AcDbEntity
  8
0
100
AcDbPolyline
 90
        2
 70
     0
 43
0.0
 10
2734.225
 20
415.312
 10
2725.637000000001
 20
407.9309999999999
  0
LWPOLYLINE
  5
3FB
330
20
100
AcDbEntity
  8
0
100
AcDbPolyline
 90
        2
 70
     0
 43
0.0
 10
2725.637000000001
 20
407.9309999999999
 10
2716.875
 20
400.6249999999999
  0
LWPOLYLINE
  5
3FF
330
20
100
AcDbEntity
  8
0
100
AcDbPolyline
 90
        2
 70
     0
 43
0.0
 10
2716.875
 20
400.6249999999999
 10
2704.031
 20
393.168
  0
LWPOLYLINE
  5
403
330
20
100
AcDbEntity
  8
0
100
AcDbPolyline
 90
        2
 70
     0
 43
0.0
 10
2787.325
 20
503.8929999999999
 10
2785.431
 20
496.5119999999999
  0
LWPOLYLINE
  5
407
330
20
100
AcDbEntity
  8
0
100
AcDbPolyline
 90
        2
 70
     0
 43
0.0
 10
2785.431
 20
496.5119999999999
 10
2783.118
 20
489.1309999999999
  0
LWPOLYLINE
  5
40B
330
20
100
AcDbEntity
  8
0
100
AcDbPolyline
 90
        2
 70
     0
 43
0.0
 10
2783.118
 20
489.1309999999999
 10
2780.387000000001
 20
481.7499999999999
  0
LWPOLYLINE
  5
40F
330
20
100
AcDbEntity
  8
0
100
AcDbPolyline
 90
        2
 70
     0
 43
0.0
 10
2701.375
 20
459.606
 10
2717.962
 20
459.606
  0
LWPOLYLINE
  5
413
330
20
100
AcDbEntity
  8
0
100
AcDbPolyline
 90
        2
 70
     0
 43
0.0
 10
2705.925000000001
 20
466.987
 10
2723.743
 20
466.987
  0
LWPOLYLINE
  5
417
330
20
100
AcDbEntity
  8
0
100
AcDbPolyline
 90
        2
 70
     0
 43
0.0
 10
2710.062
 20
474.368
 10
2728.637
 20
474.368
  0
LWPOLYLINE
  5
41B
330
20
100
AcDbEntity
  8
0
100
AcDbPolyline
 90
        2
 70
     0
 43
0.0
 10
2713.8
 20
481.7499999999999
 10
2732.725
 20
481.7499999999999
  0
LWPOLYLINE
  5
41F
330
20
100
AcDbEntity
  8
0
100
AcDbPolyline
 90
        2
 70
     0
 43
0.0
 10
2717.15
 20
489.1309999999999
 10
2736.118
 20
489.1309999999999
  0
LWPOLYLINE
  5
423
330
20
100
AcDbEntity
  8
0
100
AcDbPolyline
 90
        2
 70
     0
 43
0.0
 10
2720.15
 20
496.5119999999999
 10
2738.975
 20
496.5119999999999
  0
LWPOLYLINE
  5
427
330
20
100
AcDbEntity
  8
0
100
AcDbPolyline
 90
        2
 70
     0
 43
0.0
 10
2758.537
 20
496.5119999999999
 10
2785.431
 20
496.5119999999999
  0
LWPOLYLINE
  5
42B
330
20
100
AcDbEntity
  8
0
100
AcDbPolyline
 90
        2
 70
     0
 43
0.0
 10
2756.175000000001
 20
489.1309999999999
 10
2783.118
 20
489.1309999999999
  0
LWPOLYLINE
  5
42F
330
20
100
AcDbEntity
  8
0
100
AcDbPolyline
 90
        2
 70
     0
 43
0.0
 10
2753.518
 20
481.7499999999999
 10
2780.387000000001
 20
481.7499999999999
  0
LWPOLYLINE
  5
433
330
20
100
AcDbEntity
  8
0
100
AcDbPolyline
 90
        2
 70
     0
 43
0.0
 10
2750.562
 20
474.368
 10
2777.237
 20
474.368
  0
LWPOLYLINE
  5
437
330
20
100
AcDbEntity
  8
0
100
AcDbPolyline
 90
        2
 70
     0
 43
0.0
 10
2747.337
 20
466.987
 10
2773.668000000001
 20
466.987
  0
LWPOLYLINE
  5
43B
330
20
100
AcDbEntity
  8
0
100
AcDbPolyline
 90
        2
 70
     0
 43
0.0
 10
2743.818
 20
459.606
 10
2769.681
 20
459.606
  0
LWPOLYLINE
  5
43F
330
20
100
AcDbEntity
  8
0
100
AcDbPolyline
 90
        2
 70
     0
 43
0.0
 10
2740.006
 20
452.225
 10
2765.25
 20
452.225
  0
LWPOLYLINE
  5
443
330
20
100
AcDbEntity
  8
0
100
AcDbPolyline
 90
        2
 70
     0
 43
0.0
 10
2735.9
 20
444.843
 10
2760.356
 20
444.843
  0
LWPOLYLINE
  5
447
330
20
100
AcDbEntity
  8
0
100
AcDbPolyline
 90
        2
 70
     0
 43
0.0
 10
2731.443
 20
437.462
 10
2754.968
 20
437.462
  0
LWPOLYLINE
  5
44B
330
20
100
AcDbEntity
  8
0
100
AcDbPolyline
 90
        2
 70
     0
 43
0.0
 10
2722.781
 20
503.8929999999999
 10
2720.15
 20
496.5119999999999
  0
LWPOLYLINE
  5
44F
330
20
100
AcDbEntity
  8
0
100
AcDbPolyline
 90
        2
 70
     0
 43
0.0
 10
2720.15
 20
496.5119999999999
 10
2717.0
 20
488.737
  0
LWPOLYLINE
  5
453
330
20
100
AcDbEntity
  8
0
100
AcDbPolyline
 90
        2
 70
     0
 43
0.0
 10
2717.0
 20
488.737
 10
2713.8
 20
481.7499999999999
  0
LWPOLYLINE
  5
457
330
20
100
AcDbEntity
  8
0
100
AcDbPolyline
 90
        2
 70
     0
 43
0.0
 10
2713.8
 20
481.7499999999999
 10
2710.062
 20
474.368
  0
LWPOLYLINE
  5
45B
330
20
100
AcDbEntity
  8
0
100
AcDbPolyline
 90
        2
 70
     0
 43
0.0
 10
2710.062
 20
474.368
 10
2705.925000000001
 20
466.987
  0
LWPOLYLINE
  5
45F
330
20
100
AcDbEntity
  8
0
100
AcDbPolyline
 90
        2
 70
     0
 43
0.0
 10
2705.925000000001
 20
466.987
 10
2701.375
 20
459.606
  0
LWPOLYLINE
  5
463
330
20
100
AcDbEntity
  8
0
100
AcDbPolyline
 90
        2
 70
     0
 43
0.0
 10
2741.312
 20
503.8929999999999
 10
2738.975
 20
496.5119999999999
  0
LWPOLYLINE
  5
467
330
20
100
AcDbEntity
  8
0
100
AcDbPolyline
 90
        2
 70
     0
 43
0.0
 10
2738.975
 20
496.5119999999999
 10
2736.118
 20
489.1309999999999
  0
LWPOLYLINE
  5
46B
330
20
100
AcDbEntity
  8
0
100
AcDbPolyline
 90
        2
 70
     0
 43
0.0
 10
2736.118
 20
489.1309999999999
 10
2732.725
 20
481.7499999999999
  0
LWPOLYLINE
  5
46F
330
20
100
AcDbEntity
  8
0
100
AcDbPolyline
 90
        2
 70
     0
 43
0.0
 10
2732.725
 20
481.7499999999999
 10
2728.637
 20
474.368
  0
LWPOLYLINE
  5
473
330
20
100
AcDbEntity
  8
0
100
AcDbPolyline
 90
        2
 70
     0
 43
0.0
 10
2728.637
 20
474.368
 10
2723.743
 20
466.987
  0
LWPOLYLINE
  5
477
330
20
100
AcDbEntity
  8
0
100
AcDbPolyline
 90
        2
 70
     0
 43
0.0
 10
2723.743
 20
466.987
 10
2717.962
 20
459.606
  0
LWPOLYLINE
  5
47B
330
20
100
AcDbEntity
  8
0
100
AcDbPolyline
 90
        2
 70
     0
 43
0.0
 10
2717.962
 20
459.606
 10
2711.293
 20
452.225
  0
LWPOLYLINE
  5
47F
330
20
100
AcDbEntity
  8
0
100
AcDbPolyline
 90
        2
 70
     0
 43
0.0
 10
2711.293
 20
452.225
 10
2703.662
 20
444.843
  0
LWPOLYLINE
  5
483
330
20
100
AcDbEntity
  8
0
100
AcDbPolyline
 90
        2
 70
     0
 43
0.0
 10
2760.625
 20
503.8929999999999
 10
2758.537
 20
496.5119999999999
  0
LWPOLYLINE
  5
487
330
20
100
AcDbEntity
  8
0
100
AcDbPolyline
 90
        2
 70
     0
 43
0.0
 10
2758.537
 20
496.5119999999999
 10
2756.175000000001
 20
489.1309999999999
  0
LWPOLYLINE
  5
48B
330
20
100
AcDbEntity
  8
0
100
AcDbPolyline
 90
        2
 70
     0
 43
0.0
 10
2756.175000000001
 20
489.1309999999999
 10
2753.518
 20
481.7499999999999
  0
LWPOLYLINE
  5
48F
330
20
100
AcDbEntity
  8
0
100
AcDbPolyline
 90
        2
 70
     0
 43
0.0
 10
2753.518
 20
481.7499999999999
 10
2750.562
 20
474.368
  0
LWPOLYLINE
  5
493
330
20
100
AcDbEntity
  8
0
100
AcDbPolyline
 90
        2
 70
     0
 43
0.0
 10
2750.562
 20
474.368
 10
2747.337
 20
466.987
  0
LWPOLYLINE
  5
497
330
20
100
AcDbEntity
  8
0
100
AcDbPolyline
 90
        2
 70
     0
 43
0.0
 10
2747.337
 20
466.987
 10
2743.818
 20
459.606
  0
LWPOLYLINE
  5
49B
330
20
100
AcDbEntity
  8
0
100
AcDbPolyline
 90
        2
 70
     0
 43
0.0
 10
2743.818
 20
459.606
 10
2740.006
 20
452.225
  0
LWPOLYLINE
  5
49F
330
20
100
AcDbEntity
  8
0
100
AcDbPolyline
 90
        2
 70
     0
 43
0.0
 10
2740.006
 20
452.225
 10
2735.9
 20
444.843
  0
LWPOLYLINE
  5
4A3
330
20
100
AcDbEntity
  8
0
100
AcDbPolyline
 90
        2
 70
     0
 43
0.0
 10
2735.9
 20
444.843
 10
2731.443
 20
437.462
  0
LWPOLYLINE
  5
4A7
330
20
100
AcDbEntity
  8
0
100
AcDbPolyline
 90
        2
 70
     0
 43
0.0
 10
2780.387000000001
 20
481.7499999999999
 10
2777.237
 20
474.368
  0
LWPOLYLINE
  5
4AB
330
20
100
AcDbEntity
  8
0
100
AcDbPolyline
 90
        2
 70
     0
 43
0.0
 10
2777.237
 20
474.368
 10
2773.668000000001
 20
466.987
  0
LWPOLYLINE
  5
4AF
330
20
100
AcDbEntity
  8
0
100
AcDbPolyline
 90
        2
 70
     0
 43
0.0
 10
2773.668000000001
 20
466.987
 10
2769.681
 20
459.606
  0
LWPOLYLINE
  5
4B3
330
20
100
AcDbEntity
  8
0
100
AcDbPolyline
 90
        2
 70
     0
 43
0.0
 10
2769.681
 20
459.606
 10
2754.968
 20
437.462
  0
LWPOLYLINE
  5
4C1
330
20
100
AcDbEntity
  8
0
100
AcDbPolyline
 90
        2
 70
     0
 43
0.0
 10
2542.048
 20
642.1369999999999
 42
0.072912
 10
2507.871
 20
614.674
  0
LWPOLYLINE
  5
4C5
330
20
100
AcDbEntity
  8
0
100
AcDbPolyline
 90
        2
 70
     0
 43
0.0
 10
2507.843
 20
614.625
 10
2664.562
 20
614.625
  0
LWPOLYLINE
  5
4C9
330
20
100
AcDbEntity
  8
0
100
AcDbPolyline
 90
        2
 70
     0
 43
0.0
 10
2515.181
 20
622.006
 10
2659.668
 20
622.006
  0
LWPOLYLINE
  5
4CD
330
20
100
AcDbEntity
  8
0
100
AcDbPolyline
 90
        2
 70
     0
 43
0.0
 10
2663.424
 20
616.6649999999999
 42
0.208553
 10
2607.422
 20
653.659
  0
LWPOLYLINE
  5
4D1
330
20
100
AcDbEntity
  8
0
100
AcDbPolyline
 90
        2
 70
     0
 43
0.0
 10
2607.425
 20
653.6559999999999
 42
0.136619
 10
2542.050000000001
 20
642.125
  0
LWPOLYLINE
  5
4D5
330
20
100
AcDbEntity
  8
0
100
AcDbPolyline
 90
        2
 70
     0
 43
0.0
 10
2523.643
 20
629.3869999999999
 10
2653.293
 20
629.3869999999999
  0
LWPOLYLINE
  5
4D9
330
20
100
AcDbEntity
  8
0
100
AcDbPolyline
 90
        2
 70
     0
 43
0.0
 10
2533.587
 20
636.768
 10
2645.150000000001
 20
636.768
  0
LWPOLYLINE
  5
4DD
330
20
100
AcDbEntity
  8
0
100
AcDbPolyline
 90
        2
 70
     0
 43
0.0
 10
2546.481
 20
644.1499999999999
 10
2634.15
 20
644.1499999999999
  0
LWPOLYLINE
  5
4E1
330
20
100
AcDbEntity
  8
0
100
AcDbPolyline
 90
        2
 70
     0
 43
0.0
 10
2569.656
 20
651.537
 10
2616.606
 20
651.537
  0
LWPOLYLINE
  5
4E5
330
20
100
AcDbEntity
  8
0
100
AcDbPolyline
 90
        2
 70
     0
 43
0.0
 10
2603.612
 20
607.243
 10
2668.256
 20
607.243
  0
LWPOLYLINE
  5
4E9
330
20
100
AcDbEntity
  8
0
100
AcDbPolyline
 90
        2
 70
     0
 43
0.0
 10
2546.918
 20
585.0999999999999
 10
2553.193
 20
592.4809999999999
  0
LWPOLYLINE
  5
4ED
330
20
100
AcDbEntity
  8
0
100
AcDbPolyline
 90
        2
 70
     0
 43
0.0
 10
2553.193
 20
592.4809999999999
 10
2562.325
 20
599.8619999999999
  0
LWPOLYLINE
  5
4F1
330
20
100
AcDbEntity
  8
0
100
AcDbPolyline
 90
        2
 70
     0
 43
0.0
 10
2562.325
 20
599.8619999999999
 10
2580.506
 20
607.243
  0
LWPOLYLINE
  5
4F5
330
20
100
AcDbEntity
  8
0
100
AcDbPolyline
 90
        2
 70
     0
 43
0.0
 10
2580.506
 20
607.243
 10
2603.612
 20
607.243
  0
LWPOLYLINE
  5
4F9
330
20
100
AcDbEntity
  8
0
100
AcDbPolyline
 90
        2
 70
     0
 43
0.0
 10
2603.612
 20
607.243
 10
2616.556
 20
599.8619999999999
  0
LWPOLYLINE
  5
4FD
330
20
100
AcDbEntity
  8
0
100
AcDbPolyline
 90
        2
 70
     0
 43
0.0
 10
2532.7
 20
540.806
 10
2533.462
 20
548.1869999999999
  0
LWPOLYLINE
  5
501
330
20
100
AcDbEntity
  8
0
100
AcDbPolyline
 90
        2
 70
     0
 43
0.0
 10
2533.462
 20
548.1869999999999
 10
2534.743
 20
555.5679999999999
  0
LWPOLYLINE
  5
505
330
20
100
AcDbEntity
  8
0
100
AcDbPolyline
 90
        2
 70
     0
 43
0.0
 10
2534.743
 20
555.5679999999999
 10
2536.587
 20
562.95
  0
LWPOLYLINE
  5
509
330
20
100
AcDbEntity
  8
0
100
AcDbPolyline
 90
        2
 70
     0
 43
0.0
 10
2536.587
 20
562.95
 10
2539.093
 20
570.331
  0
LWPOLYLINE
  5
50D
330
20
100
AcDbEntity
  8
0
100
AcDbPolyline
 90
        2
 70
     0
 43
0.0
 10
2539.093
 20
570.331
 10
2541.606
 20
577.7179999999999
  0
LWPOLYLINE
  5
511
330
20
100
AcDbEntity
  8
0
100
AcDbPolyline
 90
        2
 70
     0
 43
0.0
 10
2541.606
 20
577.7179999999999
 10
2546.918
 20
585.0999999999999
  0
LWPOLYLINE
  5
515
330
20
100
AcDbEntity
  8
0
100
AcDbPolyline
 90
        2
 70
     0
 43
0.0
 10
2608.631
 20
503.8929999999999
 10
2666.362
 20
503.8929999999999
  0
LWPOLYLINE
  5
519
330
20
100
AcDbEntity
  8
0
100
AcDbPolyline
 90
        2
 70
     0
 43
0.0
 10
2613.581
 20
511.281
 10
2608.631
 20
503.8929999999999
  0
LWPOLYLINE
  5
51D
330
20
100
AcDbEntity
  8
0
100
AcDbPolyline
 90
        2
 70
     0
 43
0.0
 10
2536.268
 20
503.8929999999999
 10
2534.075
 20
511.281
  0
LWPOLYLINE
  5
521
330
20
100
AcDbEntity
  8
0
100
AcDbPolyline
 90
        2
 70
     0
 43
0.0
 10
2534.075
 20
511.281
 10
2532.993
 20
518.662
  0
LWPOLYLINE
  5
525
330
20
100
AcDbEntity
  8
0
100
AcDbPolyline
 90
        2
 70
     0
 43
0.0
 10
2532.993
 20
518.662
 10
2532.993
 20
526.043
  0
LWPOLYLINE
  5
529
330
20
100
AcDbEntity
  8
0
100
AcDbPolyline
 90
        2
 70
     0
 43
0.0
 10
2532.993
 20
526.043
 10
2532.406
 20
533.4249999999999
  0
LWPOLYLINE
  5
52D
330
20
100
AcDbEntity
  8
0
100
AcDbPolyline
 90
        2
 70
     0
 43
0.0
 10
2532.406
 20
533.4249999999999
 10
2532.7
 20
540.806
  0
LWPOLYLINE
  5
531
330
20
100
AcDbEntity
  8
0
100
AcDbPolyline
 90
        2
 70
     0
 43
0.0
 10
2502.581000000001
 20
607.243
 10
2580.506
 20
607.243
  0
LWPOLYLINE
  5
535
330
20
100
AcDbEntity
  8
0
100
AcDbPolyline
 90
        2
 70
     0
 43
0.0
 10
2411.343
 20
622.918
 10
2415.181
 20
645.975
  0
LWPOLYLINE
  5
539
330
20
100
AcDbEntity
  8
0
100
AcDbPolyline
 90
        2
 70
     0
 43
0.0
 10
2415.181
 20
645.975
 10
2465.156
 20
645.975
  0
LWPOLYLINE
  5
53D
330
20
100
AcDbEntity
  8
0
100
AcDbPolyline
 90
        2
 70
     0
 43
0.0
 10
2497.956
 20
599.8619999999999
 10
2562.325
 20
599.8619999999999
  0
LWPOLYLINE
  5
541
330
20
100
AcDbEntity
  8
0
100
AcDbPolyline
 90
        2
 70
     0
 43
0.0
 10
2493.893
 20
592.4809999999999
 10
2553.193
 20
592.4809999999999
  0
LWPOLYLINE
  5
545
330
20
100
AcDbEntity
  8
0
100
AcDbPolyline
 90
        2
 70
     0
 43
0.0
 10
2490.325
 20
585.0999999999999
 10
2546.918
 20
585.0999999999999
  0
LWPOLYLINE
  5
549
330
20
100
AcDbEntity
  8
0
100
AcDbPolyline
 90
        2
 70
     0
 43
0.0
 10
2414.881
 20
644.1499999999999
 10
2464.787
 20
644.1499999999999
  0
LWPOLYLINE
  5
54D
330
20
100
AcDbEntity
  8
0
100
AcDbPolyline
 90
        2
 70
     0
 43
0.0
 10
2413.656
 20
636.768
 10
2463.306
 20
636.768
  0
LWPOLYLINE
  5
551
330
20
100
AcDbEntity
  8
0
100
AcDbPolyline
 90
        2
 70
     0
 43
0.0
 10
2412.425000000001
 20
629.3869999999999
 10
2461.806
 20
629.3869999999999
  0
LWPOLYLINE
  5
555
330
20
100
AcDbEntity
  8
0
100
AcDbPolyline
 90
        2
 70
     0
 43
0.0
 10
2482.406
 20
503.8929999999999
 10
2536.268
 20
503.8929999999999
  0
LWPOLYLINE
  5
559
330
20
100
AcDbEntity
  8
0
100
AcDbPolyline
 90
        2
 70
     0
 43
0.0
 10
2507.872
 20
614.6689999999999
 42
0.077885
 10
2485.452
 20
572.94
  0
LWPOLYLINE
  5
55D
330
20
100
AcDbEntity
  8
0
100
AcDbPolyline
 90
        2
 70
     0
 43
0.0
 10
2487.225
 20
577.7179999999999
 10
2541.606
 20
577.7179999999999
  0
LWPOLYLINE
  5
561
330
20
100
AcDbEntity
  8
0
100
AcDbPolyline
 90
        2
 70
     0
 43
0.0
 10
2484.812
 20
570.331
 10
2539.093
 20
570.331
  0
LWPOLYLINE
  5
565
330
20
100
AcDbEntity
  8
0
100
AcDbPolyline
 90
        2
 70
     0
 43
0.0
 10
2483.193
 20
562.95
 10
2536.587
 20
562.95
  0
LWPOLYLINE
  5
569
330
20
100
AcDbEntity
  8
0
100
AcDbPolyline
 90
        2
 70
     0
 43
0.0
 10
2481.912
 20
555.5679999999999
 10
2534.743
 20
555.5679999999999
  0
LWPOLYLINE
  5
56D
330
20
100
AcDbEntity
  8
0
100
AcDbPolyline
 90
        2
 70
     0
 43
0.0
 10
2480.925
 20
548.1869999999999
 10
2533.462
 20
548.1869999999999
  0
LWPOLYLINE
  5
571
330
20
100
AcDbEntity
  8
0
100
AcDbPolyline
 90
        2
 70
     0
 43
0.0
 10
2480.237
 20
540.806
 10
2532.7
 20
540.806
  0
LWPOLYLINE
  5
575
330
20
100
AcDbEntity
  8
0
100
AcDbPolyline
 90
        2
 70
     0
 43
0.0
 10
2485.47
 20
572.937
 42
0.085773
 10
2480.547
 20
511.4279999999999
  0
LWPOLYLINE
  5
579
330
20
100
AcDbEntity
  8
0
100
AcDbPolyline
 90
        2
 70
     0
 43
0.0
 10
2480.556
 20
511.281
 10
2534.075
 20
511.281
  0
LWPOLYLINE
  5
57D
330
20
100
AcDbEntity
  8
0
100
AcDbPolyline
 90
        2
 70
     0
 43
0.0
 10
2479.868
 20
533.4249999999999
 10
2532.406
 20
533.4249999999999
  0
LWPOLYLINE
  5
581
330
20
100
AcDbEntity
  8
0
100
AcDbPolyline
 90
        2
 70
     0
 43
0.0
 10
2479.793
 20
526.043
 10
2532.525
 20
526.043
  0
LWPOLYLINE
  5
585
330
20
100
AcDbEntity
  8
0
100
AcDbPolyline
 90
        2
 70
     0
 43
0.0
 10
2480.018
 20
518.662
 10
2532.993
 20
518.662
  0
LWPOLYLINE
  5
589
330
20
100
AcDbEntity
  8
0
100
AcDbPolyline
 90
        2
 70
     0
 43
0.0
 10
2699.7
 20
722.868
 10
2704.35
 20
717.9679999999999
  0
LWPOLYLINE
  5
58D
330
20
100
AcDbEntity
  8
0
100
AcDbPolyline
 90
        2
 70
     0
 43
0.0
 10
2699.7
 20
722.868
 10
2709.443
 20
717.9679999999999
  0
LWPOLYLINE
  5
591
330
20
100
AcDbEntity
  8
0
100
AcDbPolyline
 90
        2
 70
     0
 43
0.0
 10
2695.25
 20
666.2999999999999
 10
2702.706
 20
666.2999999999999
  0
LWPOLYLINE
  5
595
330
20
100
AcDbEntity
  8
0
100
AcDbPolyline
 90
        2
 70
     0
 43
0.0
 10
2690.081000000001
 20
673.681
 10
2695.443
 20
673.681
  0
LWPOLYLINE
  5
599
330
20
100
AcDbEntity
  8
0
100
AcDbPolyline
 90
        2
 70
     0
 43
0.0
 10
2684.768
 20
681.062
 10
2687.987
 20
681.062
  0
LWPOLYLINE
  5
59D
330
20
100
AcDbEntity
  8
0
100
AcDbPolyline
 90
        2
 70
     0
 43
0.0
 10
2679.325
 20
688.443
 10
2680.412
 20
688.443
  0
LWPOLYLINE
  5
5A1
330
20
100
AcDbEntity
  8
0
100
AcDbPolyline
 90
        2
 70
     0
 43
0.0
 10
2676.618
 20
692.112
 10
2679.325
 20
688.443
  0
LWPOLYLINE
  5
5A5
330
20
100
AcDbEntity
  8
0
100
AcDbPolyline
 90
        2
 70
     0
 43
0.0
 10
2679.325
 20
688.443
 10
2684.768
 20
681.062
  0
LWPOLYLINE
  5
5A9
330
20
100
AcDbEntity
  8
0
100
AcDbPolyline
 90
        2
 70
     0
 43
0.0
 10
2684.768
 20
681.062
 10
2690.081000000001
 20
673.681
  0
LWPOLYLINE
  5
5AD
330
20
100
AcDbEntity
  8
0
100
AcDbPolyline
 90
        2
 70
     0
 43
0.0
 10
2690.081000000001
 20
673.681
 10
2695.25
 20
666.2999999999999
  0
LWPOLYLINE
  5
5B1
330
20
100
AcDbEntity
  8
0
100
AcDbPolyline
 90
        2
 70
     0
 43
0.0
 10
2676.618
 20
692.112
 10
2680.412
 20
688.443
  0
LWPOLYLINE
  5
5B5
330
20
100
AcDbEntity
  8
0
100
AcDbPolyline
 90
        2
 70
     0
 43
0.0
 10
2680.412
 20
688.443
 10
2687.987
 20
681.062
  0
LWPOLYLINE
  5
5B9
330
20
100
AcDbEntity
  8
0
100
AcDbPolyline
 90
        2
 70
     0
 43
0.0
 10
2687.987
 20
681.062
 10
2695.443
 20
673.681
  0
LWPOLYLINE
  5
5BD
330
20
100
AcDbEntity
  8
0
100
AcDbPolyline
 90
        2
 70
     0
 43
0.0
 10
2695.443
 20
673.681
 10
2702.706
 20
666.2999999999999
  0
LWPOLYLINE
  5
5C1
330
20
100
AcDbEntity
  8
0
100
AcDbPolyline
 90
        2
 70
     0
 43
0.0
 10
2658.537
 20
658.9179999999999
 10
2660.6
 20
658.9179999999999
  0
LWPOLYLINE
  5
5C5
330
20
100
AcDbEntity
  8
0
100
AcDbPolyline
 90
        2
 70
     0
 43
0.0
 10
2689.812
 20
607.243
 10
2699.825
 20
607.243
  0
LWPOLYLINE
  5
5C9
330
20
100
AcDbEntity
  8
0
100
AcDbPolyline
 90
        2
 70
     0
 43
0.0
 10
2692.025000000001
 20
599.8619999999999
 10
2702.706
 20
599.8619999999999
  0
LWPOLYLINE
  5
5CD
330
20
100
AcDbEntity
  8
0
100
AcDbPolyline
 90
        2
 70
     0
 43
0.0
 10
2693.575
 20
592.4809999999999
 10
2705.093
 20
592.4809999999999
  0
LWPOLYLINE
  5
5D1
330
20
100
AcDbEntity
  8
0
100
AcDbPolyline
 90
        2
 70
     0
 43
0.0
 10
2694.556
 20
585.0999999999999
 10
2707.012000000001
 20
585.0999999999999
  0
LWPOLYLINE
  5
5D5
330
20
100
AcDbEntity
  8
0
100
AcDbPolyline
 90
        2
 70
     0
 43
0.0
 10
2664.268
 20
651.537
 10
2668.55
 20
651.537
  0
LWPOLYLINE
  5
5D9
330
20
100
AcDbEntity
  8
0
100
AcDbPolyline
 90
        2
 70
     0
 43
0.0
 10
2669.731
 20
644.1499999999999
 10
2675.831
 20
644.1499999999999
  0
LWPOLYLINE
  5
5DD
330
20
100
AcDbEntity
  8
0
100
AcDbPolyline
 90
        2
 70
     0
 43
0.0
 10
2674.8
 20
636.768
 10
2682.231
 20
636.768
  0
LWPOLYLINE
  5
5E1
330
20
100
AcDbEntity
  8
0
100
AcDbPolyline
 90
        2
 70
     0
 43
0.0
 10
2679.375
 20
629.3869999999999
 10
2687.718
 20
629.3869999999999
  0
LWPOLYLINE
  5
5E5
330
20
100
AcDbEntity
  8
0
100
AcDbPolyline
 90
        2
 70
     0
 43
0.0
 10
2683.462
 20
622.006
 10
2692.418
 20
622.006
  0
LWPOLYLINE
  5
5E9
330
20
100
AcDbEntity
  8
0
100
AcDbPolyline
 90
        2
 70
     0
 43
0.0
 10
2686.956
 20
614.625
 10
2696.406
 20
614.625
  0
LWPOLYLINE
  5
5ED
330
20
100
AcDbEntity
  8
0
100
AcDbPolyline
 90
        2
 70
     0
 43
0.0
 10
2653.562
 20
665.2179999999999
 10
2658.537
 20
658.9179999999999
  0
LWPOLYLINE
  5
5F1
330
20
100
AcDbEntity
  8
0
100
AcDbPolyline
 90
        2
 70
     0
 43
0.0
 10
2658.537
 20
658.9179999999999
 10
2664.268
 20
651.537
  0
LWPOLYLINE
  5
5F5
330
20
100
AcDbEntity
  8
0
100
AcDbPolyline
 90
        2
 70
     0
 43
0.0
 10
2664.268
 20
651.537
 10
2669.731
 20
644.1499999999999
  0
LWPOLYLINE
  5
5F9
330
20
100
AcDbEntity
  8
0
100
AcDbPolyline
 90
        2
 70
     0
 43
0.0
 10
2669.731
 20
644.1499999999999
 10
2674.8
 20
636.768
  0
LWPOLYLINE
  5
5FD
330
20
100
AcDbEntity
  8
0
100
AcDbPolyline
 90
        2
 70
     0
 43
0.0
 10
2674.8
 20
636.768
 10
2679.375
 20
629.3869999999999
  0
LWPOLYLINE
  5
601
330
20
100
AcDbEntity
  8
0
100
AcDbPolyline
 90
        2
 70
     0
 43
0.0
 10
2679.375
 20
629.3869999999999
 10
2683.462
 20
622.006
  0
LWPOLYLINE
  5
605
330
20
100
AcDbEntity
  8
0
100
AcDbPolyline
 90
        2
 70
     0
 43
0.0
 10
2683.462
 20
622.006
 10
2686.956
 20
614.625
  0
LWPOLYLINE
  5
609
330
20
100
AcDbEntity
  8
0
100
AcDbPolyline
 90
        2
 70
     0
 43
0.0
 10
2686.956
 20
614.625
 10
2689.812
 20
607.243
  0
LWPOLYLINE
  5
60D
330
20
100
AcDbEntity
  8
0
100
AcDbPolyline
 90
        2
 70
     0
 43
0.0
 10
2689.812
 20
607.243
 10
2692.025000000001
 20
599.8619999999999
  0
LWPOLYLINE
  5
611
330
20
100
AcDbEntity
  8
0
100
AcDbPolyline
 90
        2
 70
     0
 43
0.0
 10
2692.025000000001
 20
599.8619999999999
 10
2693.575
 20
592.4809999999999
  0
LWPOLYLINE
  5
615
330
20
100
AcDbEntity
  8
0
100
AcDbPolyline
 90
        2
 70
     0
 43
0.0
 10
2693.575
 20
592.4809999999999
 10
2694.556
 20
585.0999999999999
  0
LWPOLYLINE
  5
619
330
20
100
AcDbEntity
  8
0
100
AcDbPolyline
 90
        2
 70
     0
 43
0.0
 10
2653.562
 20
665.2179999999999
 10
2660.6
 20
658.9179999999999
  0
LWPOLYLINE
  5
61D
330
20
100
AcDbEntity
  8
0
100
AcDbPolyline
 90
        2
 70
     0
 43
0.0
 10
2660.6
 20
658.9179999999999
 10
2668.55
 20
651.537
  0
LWPOLYLINE
  5
621
330
20
100
AcDbEntity
  8
0
100
AcDbPolyline
 90
        2
 70
     0
 43
0.0
 10
2668.55
 20
651.537
 10
2675.831
 20
644.1499999999999
  0
LWPOLYLINE
  5
625
330
20
100
AcDbEntity
  8
0
100
AcDbPolyline
 90
        2
 70
     0
 43
0.0
 10
2675.831
 20
644.1499999999999
 10
2682.231
 20
636.768
  0
LWPOLYLINE
  5
629
330
20
100
AcDbEntity
  8
0
100
AcDbPolyline
 90
        2
 70
     0
 43
0.0
 10
2682.231
 20
636.768
 10
2687.718
 20
629.3869999999999
  0
LWPOLYLINE
  5
62D
330
20
100
AcDbEntity
  8
0
100
AcDbPolyline
 90
        2
 70
     0
 43
0.0
 10
2687.718
 20
629.3869999999999
 10
2696.406
 20
614.625
  0
LWPOLYLINE
  5
631
330
20
100
AcDbEntity
  8
0
100
AcDbPolyline
 90
        2
 70
     0
 43
0.0
 10
2696.406
 20
614.625
 10
2699.825
 20
607.243
  0
LWPOLYLINE
  5
635
330
20
100
AcDbEntity
  8
0
100
AcDbPolyline
 90
        2
 70
     0
 43
0.0
 10
2695.25
 20
666.2999999999999
 10
2700.193
 20
658.9179999999999
  0
LWPOLYLINE
  5
639
330
20
100
AcDbEntity
  8
0
100
AcDbPolyline
 90
        2
 70
     0
 43
0.0
 10
2699.825
 20
607.243
 10
2702.706
 20
599.8619999999999
  0
LWPOLYLINE
  5
63D
330
20
100
AcDbEntity
  8
0
100
AcDbPolyline
 90
        2
 70
     0
 43
0.0
 10
2695.125
 20
577.7179999999999
 10
2708.487
 20
577.7179999999999
  0
LWPOLYLINE
  5
641
330
20
100
AcDbEntity
  8
0
100
AcDbPolyline
 90
        2
 70
     0
 43
0.0
 10
2693.818
 20
540.806
 10
2709.787
 20
540.806
  0
LWPOLYLINE
  5
645
330
20
100
AcDbEntity
  8
0
100
AcDbPolyline
 90
        2
 70
     0
 43
0.0
 10
2694.556
 20
548.1869999999999
 10
2710.356
 20
548.1869999999999
  0
LWPOLYLINE
  5
649
330
20
100
AcDbEntity
  8
0
100
AcDbPolyline
 90
        2
 70
     0
 43
0.0
 10
2695.05
 20
555.5679999999999
 10
2710.481000000001
 20
555.5679999999999
  0
LWPOLYLINE
  5
64D
330
20
100
AcDbEntity
  8
0
100
AcDbPolyline
 90
        2
 70
     0
 43
0.0
 10
2695.325
 20
562.95
 10
2710.231
 20
562.95
  0
LWPOLYLINE
  5
651
330
20
100
AcDbEntity
  8
0
100
AcDbPolyline
 90
        2
 70
     0
 43
0.0
 10
2695.343
 20
570.331
 10
2709.568
 20
570.331
  0
LWPOLYLINE
  5
655
330
20
100
AcDbEntity
  8
0
100
AcDbPolyline
 90
        2
 70
     0
 43
0.0
 10
2694.556
 20
585.0999999999999
 10
2695.125
 20
577.7179999999999
  0
LWPOLYLINE
  5
659
330
20
100
AcDbEntity
  8
0
100
AcDbPolyline
 90
        2
 70
     0
 43
0.0
 10
2695.125
 20
577.7179999999999
 10
2695.693
 20
570.331
  0
LWPOLYLINE
  5
65D
330
20
100
AcDbEntity
  8
0
100
AcDbPolyline
 90
        2
 70
     0
 43
0.0
 10
2695.693
 20
570.331
 10
2695.325
 20
562.95
  0
LWPOLYLINE
  5
661
330
20
100
AcDbEntity
  8
0
100
AcDbPolyline
 90
        2
 70
     0
 43
0.0
 10
2695.325
 20
562.95
 10
2695.05
 20
555.5679999999999
  0
LWPOLYLINE
  5
665
330
20
100
AcDbEntity
  8
0
100
AcDbPolyline
 90
        2
 70
     0
 43
0.0
 10
2695.05
 20
555.5679999999999
 10
2694.556
 20
548.1869999999999
  0
LWPOLYLINE
  5
669
330
20
100
AcDbEntity
  8
0
100
AcDbPolyline
 90
        2
 70
     0
 43
0.0
 10
2694.556
 20
548.1869999999999
 10
2693.818
 20
540.806
  0
LWPOLYLINE
  5
66D
330
20
100
AcDbEntity
  8
0
100
AcDbPolyline
 90
        2
 70
     0
 43
0.0
 10
2674.652
 20
526.778
 42
0.199775
 10
2663.438
 20
616.6699999999999
  0
LWPOLYLINE
  5
671
330
20
100
AcDbEntity
  8
0
100
AcDbPolyline
 90
        2
 70
     0
 43
0.0
 10
2688.306
 20
511.281
 10
2703.343
 20
511.281
  0
LWPOLYLINE
  5
675
330
20
100
AcDbEntity
  8
0
100
AcDbPolyline
 90
        2
 70
     0
 43
0.0
 10
2686.143
 20
503.8929999999999
 10
2700.537
 20
503.8929999999999
  0
LWPOLYLINE
  5
679
330
20
100
AcDbEntity
  8
0
100
AcDbPolyline
 90
        2
 70
     0
 43
0.0
 10
2692.862
 20
533.4249999999999
 10
2708.831
 20
533.4249999999999
  0
LWPOLYLINE
  5
67D
330
20
100
AcDbEntity
  8
0
100
AcDbPolyline
 90
        2
 70
     0
 43
0.0
 10
2691.631
 20
526.043
 10
2707.45
 20
526.043
  0
LWPOLYLINE
  5
681
330
20
100
AcDbEntity
  8
0
100
AcDbPolyline
 90
        2
 70
     0
 43
0.0
 10
2690.131
 20
518.662
 10
2705.631
 20
518.662
  0
LWPOLYLINE
  5
685
330
20
100
AcDbEntity
  8
0
100
AcDbPolyline
 90
        2
 70
     0
 43
0.0
 10
2693.818
 20
540.806
 10
2692.862
 20
533.4249999999999
  0
LWPOLYLINE
  5
689
330
20
100
AcDbEntity
  8
0
100
AcDbPolyline
 90
        2
 70
     0
 43
0.0
 10
2692.862
 20
533.4249999999999
 10
2691.631
 20
526.043
  0
LWPOLYLINE
  5
68D
330
20
100
AcDbEntity
  8
0
100
AcDbPolyline
 90
        2
 70
     0
 43
0.0
 10
2691.631
 20
526.043
 10
2690.131
 20
518.662
  0
LWPOLYLINE
  5
691
330
20
100
AcDbEntity
  8
0
100
AcDbPolyline
 90
        2
 70
     0
 43
0.0
 10
2690.131
 20
518.662
 10
2688.306
 20
511.281
  0
LWPOLYLINE
  5
695
330
20
100
AcDbEntity
  8
0
100
AcDbPolyline
 90
        2
 70
     0
 43
0.0
 10
2688.306
 20
511.281
 10
2686.143
 20
503.8929999999999
  0
LWPOLYLINE
  5
699
330
20
100
AcDbEntity
  8
0
100
AcDbPolyline
 90
        2
 70
     0
 43
0.0
 10
2625.806
 20
585.0999999999999
 10
2675.831
 20
585.0999999999999
  0
LWPOLYLINE
  5
69D
330
20
100
AcDbEntity
  8
0
100
AcDbPolyline
 90
        2
 70
     0
 43
0.0
 10
2622.612
 20
592.4809999999999
 10
2673.843
 20
592.4809999999999
  0
LWPOLYLINE
  5
6A1
330
20
100
AcDbEntity
  8
0
100
AcDbPolyline
 90
        2
 70
     0
 43
0.0
 10
2616.556
 20
599.8619999999999
 10
2671.331
 20
599.8619999999999
  0
LWPOLYLINE
  5
6A5
330
20
100
AcDbEntity
  8
0
100
AcDbPolyline
 90
        2
 70
     0
 43
0.0
 10
2616.556
 20
599.8619999999999
 10
2622.612
 20
592.4809999999999
  0
LWPOLYLINE
  5
6A9
330
20
100
AcDbEntity
  8
0
100
AcDbPolyline
 90
        2
 70
     0
 43
0.0
 10
2622.612
 20
592.4809999999999
 10
2625.806
 20
585.0999999999999
  0
LWPOLYLINE
  5
6AD
330
20
100
AcDbEntity
  8
0
100
AcDbPolyline
 90
        2
 70
     0
 43
0.0
 10
2627.875
 20
570.331
 10
2678.293
 20
570.331
  0
LWPOLYLINE
  5
6B1
330
20
100
AcDbEntity
  8
0
100
AcDbPolyline
 90
        2
 70
     0
 43
0.0
 10
2627.706
 20
562.95
 10
2678.837
 20
562.95
  0
LWPOLYLINE
  5
6B5
330
20
100
AcDbEntity
  8
0
100
AcDbPolyline
 90
        2
 70
     0
 43
0.0
 10
2627.012000000001
 20
555.5679999999999
 10
2678.887
 20
555.5679999999999
  0
LWPOLYLINE
  5
6B9
330
20
100
AcDbEntity
  8
0
100
AcDbPolyline
 90
        2
 70
     0
 43
0.0
 10
2625.856000000001
 20
548.1869999999999
 10
2678.493
 20
548.1869999999999
  0
LWPOLYLINE
  5
6BD
330
20
100
AcDbEntity
  8
0
100
AcDbPolyline
 90
        2
 70
     0
 43
0.0
 10
2624.331
 20
540.806
 10
2677.631
 20
540.806
  0
LWPOLYLINE
  5
6C1
330
20
100
AcDbEntity
  8
0
100
AcDbPolyline
 90
        2
 70
     0
 43
0.0
 10
2627.356000000001
 20
577.7179999999999
 10
2677.312
 20
577.7179999999999
  0
LWPOLYLINE
  5
6C5
330
20
100
AcDbEntity
  8
0
100
AcDbPolyline
 90
        2
 70
     0
 43
0.0
 10
2625.806
 20
585.0999999999999
 10
2627.356000000001
 20
577.7179999999999
  0
LWPOLYLINE
  5
6C9
330
20
100
AcDbEntity
  8
0
100
AcDbPolyline
 90
        2
 70
     0
 43
0.0
 10
2627.356000000001
 20
577.7179999999999
 10
2627.875
 20
570.331
  0
LWPOLYLINE
  5
6CD
330
20
100
AcDbEntity
  8
0
100
AcDbPolyline
 90
        2
 70
     0
 43
0.0
 10
2627.875
 20
570.331
 10
2627.706
 20
562.95
  0
LWPOLYLINE
  5
6D1
330
20
100
AcDbEntity
  8
0
100
AcDbPolyline
 90
        2
 70
     0
 43
0.0
 10
2627.706
 20
562.95
 10
2627.012000000001
 20
555.5679999999999
  0
LWPOLYLINE
  5
6D5
330
20
100
AcDbEntity
  8
0
100
AcDbPolyline
 90
        2
 70
     0
 43
0.0
 10
2627.012000000001
 20
555.5679999999999
 10
2625.856000000001
 20
548.1869999999999
  0
LWPOLYLINE
  5
6D9
330
20
100
AcDbEntity
  8
0
100
AcDbPolyline
 90
        2
 70
     0
 43
0.0
 10
2625.856000000001
 20
548.1869999999999
 10
2624.331
 20
540.806
  0
LWPOLYLINE
  5
6DD
330
20
100
AcDbEntity
  8
0
100
AcDbPolyline
 90
        2
 70
     0
 43
0.0
 10
2622.512
 20
533.4249999999999
 10
2676.275
 20
533.4249999999999
  0
LWPOLYLINE
  5
6E1
330
20
100
AcDbEntity
  8
0
100
AcDbPolyline
 90
        2
 70
     0
 43
0.0
 10
2620.325
 20
526.043
 10
2674.456000000001
 20
526.043
  0
LWPOLYLINE
  5
6E5
330
20
100
AcDbEntity
  8
0
100
AcDbPolyline
 90
        2
 70
     0
 43
0.0
 10
2617.393
 20
518.662
 10
2672.287
 20
518.662
  0
LWPOLYLINE
  5
6E9
330
20
100
AcDbEntity
  8
0
100
AcDbPolyline
 90
        2
 70
     0
 43
0.0
 10
2613.581
 20
511.281
 10
2669.606
 20
511.281
  0
LWPOLYLINE
  5
6ED
330
20
100
AcDbEntity
  8
0
100
AcDbPolyline
 90
        2
 70
     0
 43
0.0
 10
2624.331
 20
540.806
 10
2622.512
 20
533.4249999999999
  0
LWPOLYLINE
  5
6F1
330
20
100
AcDbEntity
  8
0
100
AcDbPolyline
 90
        2
 70
     0
 43
0.0
 10
2622.512
 20
533.4249999999999
 10
2620.325
 20
526.043
  0
LWPOLYLINE
  5
6F5
330
20
100
AcDbEntity
  8
0
100
AcDbPolyline
 90
        2
 70
     0
 43
0.0
 10
2620.325
 20
526.043
 10
2617.393
 20
518.662
  0
LWPOLYLINE
  5
6F9
330
20
100
AcDbEntity
  8
0
100
AcDbPolyline
 90
        2
 70
     0
 43
0.0
 10
2617.393
 20
518.662
 10
2613.581
 20
511.281
  0
LWPOLYLINE
  5
6FD
330
20
100
AcDbEntity
  8
0
100
AcDbPolyline
 90
        2
 70
     0
 43
0.0
 10
2465.156
 20
645.975
 10
2421.625000000001
 20
430.5679999999999
  0
LWPOLYLINE
  5
701
330
20
100
AcDbEntity
  8
0
100
AcDbPolyline
 90
        2
 70
     0
 43
0.0
 10
2510.206
 20
459.606
 10
2630.212
 20
459.606
  0
LWPOLYLINE
  5
705
330
20
100
AcDbEntity
  8
0
100
AcDbPolyline
 90
        2
 70
     0
 43
0.0
 10
2530.923
 20
446.7069999999999
 42
0.141757
 10
2603.56
 20
446.051
  0
LWPOLYLINE
  5
709
330
20
100
AcDbEntity
  8
0
100
AcDbPolyline
 90
        2
 70
     0
 43
0.0
 10
2603.57
 20
446.036
 42
0.093793
 10
2633.671
 20
462.248
  0
LWPOLYLINE
  5
70D
330
20
100
AcDbEntity
  8
0
100
AcDbPolyline
 90
        2
 70
     0
 43
0.0
 10
2537.868
 20
444.843
 10
2598.887
 20
444.843
  0
LWPOLYLINE
  5
711
330
20
100
AcDbEntity
  8
0
100
AcDbPolyline
 90
        2
 70
     0
 43
0.0
 10
2520.693
 20
452.225
 10
2618.375
 20
452.225
  0
LWPOLYLINE
  5
715
330
20
100
AcDbEntity
  8
0
100
AcDbPolyline
 90
        2
 70
     0
 43
0.0
 10
2592.318000000001
 20
489.1309999999999
 10
2657.968
 20
489.1309999999999
  0
LWPOLYLINE
  5
719
330
20
100
AcDbEntity
  8
0
100
AcDbPolyline
 90
        2
 70
     0
 43
0.0
 10
2602.062
 20
496.5119999999999
 10
2662.5
 20
496.5119999999999
  0
LWPOLYLINE
  5
71D
330
20
100
AcDbEntity
  8
0
100
AcDbPolyline
 90
        2
 70
     0
 43
0.0
 10
2608.631
 20
503.8929999999999
 10
2602.062
 20
496.5119999999999
  0
LWPOLYLINE
  5
721
330
20
100
AcDbEntity
  8
0
100
AcDbPolyline
 90
        2
 70
     0
 43
0.0
 10
2602.062
 20
496.5119999999999
 10
2592.318000000001
 20
489.1309999999999
  0
LWPOLYLINE
  5
725
330
20
100
AcDbEntity
  8
0
100
AcDbPolyline
 90
        2
 70
     0
 43
0.0
 10
2548.4
 20
489.1309999999999
 10
2540.425
 20
496.5119999999999
  0
LWPOLYLINE
  5
729
330
20
100
AcDbEntity
  8
0
100
AcDbPolyline
 90
        2
 70
     0
 43
0.0
 10
2540.425
 20
496.5119999999999
 10
2536.268
 20
503.8929999999999
  0
LWPOLYLINE
  5
72D
330
20
100
AcDbEntity
  8
0
100
AcDbPolyline
 90
        2
 70
     0
 43
0.0
 10
2548.4
 20
489.1309999999999
 10
2561.437
 20
485.05
  0
LWPOLYLINE
  5
731
330
20
100
AcDbEntity
  8
0
100
AcDbPolyline
 90
        2
 70
     0
 43
0.0
 10
2561.437
 20
485.05
 10
2576.106000000001
 20
485.0999999999999
  0
LWPOLYLINE
  5
735
330
20
100
AcDbEntity
  8
0
100
AcDbPolyline
 90
        2
 70
     0
 43
0.0
 10
2576.106000000001
 20
485.0999999999999
 10
2592.318000000001
 20
489.1309999999999
  0
LWPOLYLINE
  5
739
330
20
100
AcDbEntity
  8
0
100
AcDbPolyline
 90
        2
 70
     0
 43
0.0
 10
2501.987
 20
466.987
 10
2639.093
 20
466.987
  0
LWPOLYLINE
  5
73D
330
20
100
AcDbEntity
  8
0
100
AcDbPolyline
 90
        2
 70
     0
 43
0.0
 10
2496.677
 20
472.72
 42
0.106611
 10
2530.931
 20
446.717
  0
LWPOLYLINE
  5
741
330
20
100
AcDbEntity
  8
0
100
AcDbPolyline
 90
        2
 70
     0
 43
0.0
 10
2484.787
 20
496.5119999999999
 10
2540.425
 20
496.5119999999999
  0
LWPOLYLINE
  5
745
330
20
100
AcDbEntity
  8
0
100
AcDbPolyline
 90
        2
 70
     0
 43
0.0
 10
2495.618
 20
474.368
 10
2646.431
 20
474.368
  0
LWPOLYLINE
  5
749
330
20
100
AcDbEntity
  8
0
100
AcDbPolyline
 90
        2
 70
     0
 43
0.0
 10
2491.337
 20
481.7499999999999
 10
2652.656
 20
481.7499999999999
  0
LWPOLYLINE
  5
74D
330
20
100
AcDbEntity
  8
0
100
AcDbPolyline
 90
        2
 70
     0
 43
0.0
 10
2487.743
 20
489.1309999999999
 10
2548.4
 20
489.1309999999999
  0
LWPOLYLINE
  5
751
330
20
100
AcDbEntity
  8
0
100
AcDbPolyline
 90
        2
 70
     0
 43
0.0
 10
2480.518
 20
511.4259999999999
 42
0.092877
 10
2496.653
 20
472.71
  0
LWPOLYLINE
  5
755
330
20
100
AcDbEntity
  8
0
100
AcDbPolyline
 90
        2
 70
     0
 43
0.0
 10
2685.675
 20
385.787
 10
2687.425000000001
 20
385.787
  0
LWPOLYLINE
  5
759
330
20
100
AcDbEntity
  8
0
100
AcDbPolyline
 90
        2
 70
     0
 43
0.0
 10
2693.7
 20
393.168
 10
2704.031
 20
393.168
  0
LWPOLYLINE
  5
75D
330
20
100
AcDbEntity
  8
0
100
AcDbPolyline
 90
        2
 70
     0
 43
0.0
 10
2671.893
 20
422.693
 10
2675.612
 20
422.693
  0
LWPOLYLINE
  5
761
330
20
100
AcDbEntity
  8
0
100
AcDbPolyline
 90
        2
 70
     0
 43
0.0
 10
2678.537
 20
430.0749999999999
 10
2685.725
 20
430.0749999999999
  0
LWPOLYLINE
  5
765
330
20
100
AcDbEntity
  8
0
100
AcDbPolyline
 90
        2
 70
     0
 43
0.0
 10
2684.887
 20
437.462
 10
2678.537
 20
430.0749999999999
  0
LWPOLYLINE
  5
769
330
20
100
AcDbEntity
  8
0
100
AcDbPolyline
 90
        2
 70
     0
 43
0.0
 10
2678.537
 20
430.0749999999999
 10
2671.893
 20
422.693
  0
LWPOLYLINE
  5
76D
330
20
100
AcDbEntity
  8
0
100
AcDbPolyline
 90
        2
 70
     0
 43
0.0
 10
2671.893
 20
422.693
 10
2665.081000000001
 20
415.287
  0
LWPOLYLINE
  5
771
330
20
100
AcDbEntity
  8
0
100
AcDbPolyline
 90
        2
 70
     0
 43
0.0
 10
2695.15
 20
437.462
 10
2685.725
 20
430.0749999999999
  0
LWPOLYLINE
  5
775
330
20
100
AcDbEntity
  8
0
100
AcDbPolyline
 90
        2
 70
     0
 43
0.0
 10
2685.725
 20
430.0749999999999
 10
2675.612
 20
422.693
  0
LWPOLYLINE
  5
779
330
20
100
AcDbEntity
  8
0
100
AcDbPolyline
 90
        2
 70
     0
 43
0.0
 10
2675.612
 20
422.693
 10
2665.081000000001
 20
415.287
  0
LWPOLYLINE
  5
77D
330
20
100
AcDbEntity
  8
0
100
AcDbPolyline
 90
        2
 70
     0
 43
0.0
 10
2701.45
 20
400.55
 10
2693.7
 20
393.168
  0
LWPOLYLINE
  5
781
330
20
100
AcDbEntity
  8
0
100
AcDbPolyline
 90
        2
 70
     0
 43
0.0
 10
2693.7
 20
393.168
 10
2685.675
 20
385.787
  0
LWPOLYLINE
  5
785
330
20
100
AcDbEntity
  8
0
100
AcDbPolyline
 90
        2
 70
     0
 43
0.0
 10
2685.675
 20
385.787
 10
2684.325
 20
384.531
  0
LWPOLYLINE
  5
789
330
20
100
AcDbEntity
  8
0
100
AcDbPolyline
 90
        2
 70
     0
 43
0.0
 10
2704.031
 20
393.168
 10
2687.425000000001
 20
385.787
  0
LWPOLYLINE
  5
78D
330
20
100
AcDbEntity
  8
0
100
AcDbPolyline
 90
        2
 70
     0
 43
0.0
 10
2687.425000000001
 20
385.787
 10
2684.325
 20
384.531
  0
LWPOLYLINE
  5
791
330
20
100
AcDbEntity
  8
0
100
AcDbPolyline
 90
        2
 70
     0
 43
0.0
 10
2684.887
 20
437.462
 10
2695.15
 20
437.462
  0
LWPOLYLINE
  5
795
330
20
100
AcDbEntity
  8
0
100
AcDbPolyline
 90
        2
 70
     0
 43
0.0
 10
2683.537
 20
496.5119999999999
 10
2697.168
 20
496.5119999999999
  0
LWPOLYLINE
  5
799
330
20
100
AcDbEntity
  8
0
100
AcDbPolyline
 90
        2
 70
     0
 43
0.0
 10
2680.437
 20
489.1309999999999
 10
2693.181
 20
489.1309999999999
  0
LWPOLYLINE
  5
79D
330
20
100
AcDbEntity
  8
0
100
AcDbPolyline
 90
        2
 70
     0
 43
0.0
 10
2676.693
 20
481.7499999999999
 10
2688.456
 20
481.7499999999999
  0
LWPOLYLINE
  5
7A1
330
20
100
AcDbEntity
  8
0
100
AcDbPolyline
 90
        2
 70
     0
 43
0.0
 10
2672.043
 20
474.368
 10
2682.8
 20
474.368
  0
LWPOLYLINE
  5
7A5
330
20
100
AcDbEntity
  8
0
100
AcDbPolyline
 90
        2
 70
     0
 43
0.0
 10
2666.362
 20
466.987
 10
2675.931
 20
466.987
  0
LWPOLYLINE
  5
7A9
330
20
100
AcDbEntity
  8
0
100
AcDbPolyline
 90
        2
 70
     0
 43
0.0
 10
2659.693000000001
 20
459.606
 10
2667.268
 20
459.606
  0
LWPOLYLINE
  5
7AD
330
20
100
AcDbEntity
  8
0
100
AcDbPolyline
 90
        2
 70
     0
 43
0.0
 10
2652.337
 20
452.225
 10
2656.318000000001
 20
452.225
  0
LWPOLYLINE
  5
7B1
330
20
100
AcDbEntity
  8
0
100
AcDbPolyline
 90
        2
 70
     0
 43
0.0
 10
2690.868
 20
444.843
 10
2703.662
 20
444.843
  0
LWPOLYLINE
  5
7B5
330
20
100
AcDbEntity
  8
0
100
AcDbPolyline
 90
        2
 70
     0
 43
0.0
 10
2696.356
 20
452.225
 10
2711.293
 20
452.225
  0
LWPOLYLINE
  5
7B9
330
20
100
AcDbEntity
  8
0
100
AcDbPolyline
 90
        2
 70
     0
 43
0.0
 10
2686.143
 20
503.8929999999999
 10
2683.537
 20
496.5119999999999
  0
LWPOLYLINE
  5
7BD
330
20
100
AcDbEntity
  8
0
100
AcDbPolyline
 90
        2
 70
     0
 43
0.0
 10
2683.537
 20
496.5119999999999
 10
2680.437
 20
489.1309999999999
  0
LWPOLYLINE
  5
7C1
330
20
100
AcDbEntity
  8
0
100
AcDbPolyline
 90
        2
 70
     0
 43
0.0
 10
2680.437
 20
489.1309999999999
 10
2676.693
 20
481.7499999999999
  0
LWPOLYLINE
  5
7C5
330
20
100
AcDbEntity
  8
0
100
AcDbPolyline
 90
        2
 70
     0
 43
0.0
 10
2676.693
 20
481.7499999999999
 10
2672.043
 20
474.368
  0
LWPOLYLINE
  5
7C9
330
20
100
AcDbEntity
  8
0
100
AcDbPolyline
 90
        2
 70
     0
 43
0.0
 10
2672.043
 20
474.368
 10
2666.362
 20
466.987
  0
LWPOLYLINE
  5
7CD
330
20
100
AcDbEntity
  8
0
100
AcDbPolyline
 90
        2
 70
     0
 43
0.0
 10
2666.362
 20
466.987
 10
2659.693000000001
 20
459.606
  0
LWPOLYLINE
  5
7D1
330
20
100
AcDbEntity
  8
0
100
AcDbPolyline
 90
        2
 70
     0
 43
0.0
 10
2659.693000000001
 20
459.606
 10
2652.337
 20
452.225
  0
LWPOLYLINE
  5
7D5
330
20
100
AcDbEntity
  8
0
100
AcDbPolyline
 90
        2
 70
     0
 43
0.0
 10
2700.537
 20
503.8929999999999
 10
2697.168
 20
496.5119999999999
  0
LWPOLYLINE
  5
7D9
330
20
100
AcDbEntity
  8
0
100
AcDbPolyline
 90
        2
 70
     0
 43
0.0
 10
2697.168
 20
496.5119999999999
 10
2693.181
 20
489.1309999999999
  0
LWPOLYLINE
  5
7DD
330
20
100
AcDbEntity
  8
0
100
AcDbPolyline
 90
        2
 70
     0
 43
0.0
 10
2693.181
 20
489.1309999999999
 10
2688.456
 20
481.7499999999999
  0
LWPOLYLINE
  5
7E1
330
20
100
AcDbEntity
  8
0
100
AcDbPolyline
 90
        2
 70
     0
 43
0.0
 10
2688.456
 20
481.7499999999999
 10
2682.8
 20
474.368
  0
LWPOLYLINE
  5
7E5
330
20
100
AcDbEntity
  8
0
100
AcDbPolyline
 90
        2
 70
     0
 43
0.0
 10
2682.8
 20
474.368
 10
2675.931
 20
466.987
  0
LWPOLYLINE
  5
7E9
330
20
100
AcDbEntity
  8
0
100
AcDbPolyline
 90
        2
 70
     0
 43
0.0
 10
2675.931
 20
466.987
 10
2667.268
 20
459.606
  0
LWPOLYLINE
  5
7ED
330
20
100
AcDbEntity
  8
0
100
AcDbPolyline
 90
        2
 70
     0
 43
0.0
 10
2667.268
 20
459.606
 10
2656.318000000001
 20
452.225
  0
LWPOLYLINE
  5
7F1
330
20
100
AcDbEntity
  8
0
100
AcDbPolyline
 90
        2
 70
     0
 43
0.0
 10
2701.375
 20
459.606
 10
2696.356
 20
452.225
  0
LWPOLYLINE
  5
7F5
330
20
100
AcDbEntity
  8
0
100
AcDbPolyline
 90
        2
 70
     0
 43
0.0
 10
2696.356
 20
452.225
 10
2690.868
 20
444.843
  0
LWPOLYLINE
  5
7F9
330
20
100
AcDbEntity
  8
0
100
AcDbPolyline
 90
        2
 70
     0
 43
0.0
 10
2690.868
 20
444.843
 10
2684.887
 20
437.462
  0
LWPOLYLINE
  5
7FD
330
20
100
AcDbEntity
  8
0
100
AcDbPolyline
 90
        2
 70
     0
 43
0.0
 10
2703.662
 20
444.843
 10
2695.15
 20
437.462
  0
LWPOLYLINE
  5
801
330
20
100
AcDbEntity
  8
0
100
AcDbPolyline
 90
        2
 70
     0
 43
0.0
 10
2633.659
 20
462.264
 42
0.160401
 10
2674.638
 20
526.7839999999999
  0
LWPOLYLINE
  5
805
330
20
100
AcDbEntity
  8
0
100
AcDbPolyline
 90
        2
 70
     0
 43
0.0
 10
2652.337
 20
452.225
 10
2645.862
 20
446.05
  0
LWPOLYLINE
  5
809
330
20
100
AcDbEntity
  8
0
100
AcDbPolyline
 90
        2
 70
     0
 43
0.0
 10
2656.318000000001
 20
452.225
 10
2645.862
 20
446.05
  0
LWPOLYLINE
  5
817
330
20
100
AcDbEntity
  8
0
100
AcDbPolyline
 90
        2
 70
     0
 43
0.0
 10
2215.248
 20
638.292
 42
0.121623
 10
2176.814
 20
653.662
  0
LWPOLYLINE
  5
81B
330
20
100
AcDbEntity
  8
0
100
AcDbPolyline
 90
        2
 70
     0
 43
0.0
 10
2234.484
 20
615.226
 42
0.099386
 10
2215.256
 20
638.304
  0
LWPOLYLINE
  5
81F
330
20
100
AcDbEntity
  8
0
100
AcDbPolyline
 90
        2
 70
     0
 43
0.0
 10
2188.344
 20
599.8409999999999
 42
0.15288
 10
2176.812
 20
611.369
  0
LWPOLYLINE
  5
823
330
20
100
AcDbEntity
  8
0
100
AcDbPolyline
 90
        2
 70
     0
 43
0.0
 10
2191.85
 20
585.0999999999999
 10
2242.762
 20
585.0999999999999
  0
LWPOLYLINE
  5
827
330
20
100
AcDbEntity
  8
0
100
AcDbPolyline
 90
        2
 70
     0
 43
0.0
 10
2190.5
 20
592.4809999999999
 10
2241.631
 20
592.4809999999999
  0
LWPOLYLINE
  5
82B
330
20
100
AcDbEntity
  8
0
100
AcDbPolyline
 90
        2
 70
     0
 43
0.0
 10
2182.675
 20
607.243
 10
2237.668
 20
607.243
  0
LWPOLYLINE
  5
82F
330
20
100
AcDbEntity
  8
0
100
AcDbPolyline
 90
        2
 70
     0
 43
0.0
 10
2188.331
 20
599.8619999999999
 10
2239.956
 20
599.8619999999999
  0
LWPOLYLINE
  5
833
330
20
100
AcDbEntity
  8
0
100
AcDbPolyline
 90
        2
 70
     0
 43
0.0
 10
2176.814
 20
653.657
 42
0.061658
 10
2149.898
 20
653.657
  0
LWPOLYLINE
  5
837
330
20
100
AcDbEntity
  8
0
100
AcDbPolyline
 90
        2
 70
     0
 43
0.0
 10
2176.816
 20
611.376
 42
0.166558
 10
2140.794
 20
609.2849999999999
  0
LWPOLYLINE
  5
83B
330
20
100
AcDbEntity
  8
0
100
AcDbPolyline
 90
        2
 70
     0
 43
0.0
 10
2149.897
 20
653.6699999999999
 42
0.07819
 10
2115.296
 20
642.14
  0
LWPOLYLINE
  5
83F
330
20
100
AcDbEntity
  8
0
100
AcDbPolyline
 90
        2
 70
     0
 43
0.0
 10
2119.362
 20
644.1499999999999
 10
2205.875
 20
644.1499999999999
  0
LWPOLYLINE
  5
843
330
20
100
AcDbEntity
  8
0
100
AcDbPolyline
 90
        2
 70
     0
 43
0.0
 10
2139.837
 20
651.537
 10
2187.325
 20
651.537
  0
LWPOLYLINE
  5
847
330
20
100
AcDbEntity
  8
0
100
AcDbPolyline
 90
        2
 70
     0
 43
0.0
 10
2140.799
 20
609.2839999999999
 42
0.097538
 10
2126.824
 20
599.835
  0
LWPOLYLINE
  5
84B
330
20
100
AcDbEntity
  8
0
100
AcDbPolyline
 90
        2
 70
     0
 43
0.0
 10
2106.837
 20
636.768
 10
2217.1
 20
636.768
  0
LWPOLYLINE
  5
84F
330
20
100
AcDbEntity
  8
0
100
AcDbPolyline
 90
        2
 70
     0
 43
0.0
 10
2192.183
 20
569.0769999999999
 42
0.106536
 10
2188.343
 20
599.84
  0
LWPOLYLINE
  5
853
330
20
100
AcDbEntity
  8
0
100
AcDbPolyline
 90
        2
 70
     0
 43
0.0
 10
2192.443
 20
577.7179999999999
 10
2243.331
 20
577.7179999999999
  0
LWPOLYLINE
  5
857
330
20
100
AcDbEntity
  8
0
100
AcDbPolyline
 90
        2
 70
     0
 43
0.0
 10
2192.293
 20
570.331
 10
2243.375
 20
570.331
  0
LWPOLYLINE
  5
85B
330
20
100
AcDbEntity
  8
0
100
AcDbPolyline
 90
        2
 70
     0
 43
0.0
 10
2126.829
 20
599.8269999999999
 42
0.10298
 10
2111.455
 20
569.075
  0
LWPOLYLINE
  5
85F
330
20
100
AcDbEntity
  8
0
100
AcDbPolyline
 90
        2
 70
     0
 43
0.0
 10
2111.437
 20
569.0809999999999
 10
2192.2
 20
569.0809999999999
  0
LWPOLYLINE
  5
863
330
20
100
AcDbEntity
  8
0
100
AcDbPolyline
 90
        2
 70
     0
 43
0.0
 10
2234.468
 20
530.643
 10
2103.762
 20
530.643
  0
LWPOLYLINE
  5
867
330
20
100
AcDbEntity
  8
0
100
AcDbPolyline
 90
        2
 70
     0
 43
0.0
 10
2397.881
 20
637.187
 10
2411.343
 20
622.918
  0
LWPOLYLINE
  5
86B
330
20
100
AcDbEntity
  8
0
100
AcDbPolyline
 90
        2
 70
     0
 43
0.0
 10
2397.883
 20
637.195
 42
0.12291
 10
2365.199
 20
653.667
  0
LWPOLYLINE
  5
86F
330
20
100
AcDbEntity
  8
0
100
AcDbPolyline
 90
        2
 70
     0
 43
0.0
 10
2391.821
 20
586.4059999999999
 42
0.218887
 10
2376.741
 20
605.465
  0
LWPOLYLINE
  5
873
330
20
100
AcDbEntity
  8
0
100
AcDbPolyline
 90
        2
 70
     0
 43
0.0
 10
2392.050000000001
 20
585.0999999999999
 10
2452.85
 20
585.0999999999999
  0
LWPOLYLINE
  5
877
330
20
100
AcDbEntity
  8
0
100
AcDbPolyline
 90
        2
 70
     0
 43
0.0
 10
2389.587
 20
592.4809999999999
 10
2454.35
 20
592.4809999999999
  0
LWPOLYLINE
  5
87B
330
20
100
AcDbEntity
  8
0
100
AcDbPolyline
 90
        2
 70
     0
 43
0.0
 10
2384.35
 20
599.8619999999999
 10
2455.831
 20
599.8619999999999
  0
LWPOLYLINE
  5
87F
330
20
100
AcDbEntity
  8
0
100
AcDbPolyline
 90
        2
 70
     0
 43
0.0
 10
2376.893
 20
503.8929999999999
 10
2436.437
 20
503.8929999999999
  0
LWPOLYLINE
  5
883
330
20
100
AcDbEntity
  8
0
100
AcDbPolyline
 90
        2
 70
     0
 43
0.0
 10
2393.55
 20
540.806
 10
2443.893
 20
540.806
  0
LWPOLYLINE
  5
887
330
20
100
AcDbEntity
  8
0
100
AcDbPolyline
 90
        2
 70
     0
 43
0.0
 10
2394.187
 20
548.1869999999999
 10
2445.393
 20
548.1869999999999
  0
LWPOLYLINE
  5
88B
330
20
100
AcDbEntity
  8
0
100
AcDbPolyline
 90
        2
 70
     0
 43
0.0
 10
2394.462
 20
555.5679999999999
 10
2446.893
 20
555.5679999999999
  0
LWPOLYLINE
  5
88F
330
20
100
AcDbEntity
  8
0
100
AcDbPolyline
 90
        2
 70
     0
 43
0.0
 10
2394.387
 20
562.95
 10
2448.375
 20
562.95
  0
LWPOLYLINE
  5
893
330
20
100
AcDbEntity
  8
0
100
AcDbPolyline
 90
        2
 70
     0
 43
0.0
 10
2393.968
 20
570.331
 10
2449.875
 20
570.331
  0
LWPOLYLINE
  5
897
330
20
100
AcDbEntity
  8
0
100
AcDbPolyline
 90
        2
 70
     0
 43
0.0
 10
2393.181
 20
577.7179999999999
 10
2451.375
 20
577.7179999999999
  0
LWPOLYLINE
  5
89B
330
20
100
AcDbEntity
  8
0
100
AcDbPolyline
 90
        2
 70
     0
 43
0.0
 10
2392.12
 20
530.64
 42
0.09002
 10
2391.817
 20
586.4049999999999
  0
LWPOLYLINE
  5
89F
330
20
100
AcDbEntity
  8
0
100
AcDbPolyline
 90
        2
 70
     0
 43
0.0
 10
2376.719
 20
503.7279999999999
 42
0.140628
 10
2392.095
 20
530.6459999999999
  0
LWPOLYLINE
  5
8A3
330
20
100
AcDbEntity
  8
0
100
AcDbPolyline
 90
        2
 70
     0
 43
0.0
 10
2383.218
 20
511.281
 10
2437.937
 20
511.281
  0
LWPOLYLINE
  5
8A7
330
20
100
AcDbEntity
  8
0
100
AcDbPolyline
 90
        2
 70
     0
 43
0.0
 10
2387.693
 20
518.662
 10
2439.443000000001
 20
518.662
  0
LWPOLYLINE
  5
8AB
330
20
100
AcDbEntity
  8
0
100
AcDbPolyline
 90
        2
 70
     0
 43
0.0
 10
2390.768
 20
526.043
 10
2440.918
 20
526.043
  0
LWPOLYLINE
  5
8AF
330
20
100
AcDbEntity
  8
0
100
AcDbPolyline
 90
        2
 70
     0
 43
0.0
 10
2392.568
 20
533.4249999999999
 10
2442.418
 20
533.4249999999999
  0
LWPOLYLINE
  5
8B3
330
20
100
AcDbEntity
  8
0
100
AcDbPolyline
 90
        2
 70
     0
 43
0.0
 10
2332.625
 20
651.537
 10
2372.806
 20
651.537
  0
LWPOLYLINE
  5
8B7
330
20
100
AcDbEntity
  8
0
100
AcDbPolyline
 90
        2
 70
     0
 43
0.0
 10
2376.737
 20
605.4589999999999
 42
0.242219
 10
2342.125
 20
603.697
  0
LWPOLYLINE
  5
8BB
330
20
100
AcDbEntity
  8
0
100
AcDbPolyline
 90
        2
 70
     0
 43
0.0
 10
2365.201
 20
653.681
 42
0.108645
 10
2326.742
 20
649.835
  0
LWPOLYLINE
  5
8BF
330
20
100
AcDbEntity
  8
0
100
AcDbPolyline
 90
        2
 70
     0
 43
0.0
 10
2314.687
 20
644.1499999999999
 10
2388.431
 20
644.1499999999999
  0
LWPOLYLINE
  5
8C3
330
20
100
AcDbEntity
  8
0
100
AcDbPolyline
 90
        2
 70
     0
 43
0.0
 10
2303.293
 20
636.768
 10
2398.3
 20
636.768
  0
LWPOLYLINE
  5
8C7
330
20
100
AcDbEntity
  8
0
100
AcDbPolyline
 90
        2
 70
     0
 43
0.0
 10
2294.512
 20
629.3869999999999
 10
2405.237
 20
629.3869999999999
  0
LWPOLYLINE
  5
8CB
330
20
100
AcDbEntity
  8
0
100
AcDbPolyline
 90
        2
 70
     0
 43
0.0
 10
2287.475
 20
622.006
 10
2460.306
 20
622.006
  0
LWPOLYLINE
  5
8CF
330
20
100
AcDbEntity
  8
0
100
AcDbPolyline
 90
        2
 70
     0
 43
0.0
 10
2281.687
 20
614.625
 10
2458.831
 20
614.625
  0
LWPOLYLINE
  5
8D3
330
20
100
AcDbEntity
  8
0
100
AcDbPolyline
 90
        2
 70
     0
 43
0.0
 10
2276.918
 20
607.243
 10
2350.3
 20
607.243
  0
LWPOLYLINE
  5
8D7
330
20
100
AcDbEntity
  8
0
100
AcDbPolyline
 90
        2
 70
     0
 43
0.0
 10
2273.006
 20
599.8619999999999
 10
2337.056
 20
599.8619999999999
  0
LWPOLYLINE
  5
8DB
330
20
100
AcDbEntity
  8
0
100
AcDbPolyline
 90
        2
 70
     0
 43
0.0
 10
2269.831
 20
592.4809999999999
 10
2329.425
 20
592.4809999999999
  0
LWPOLYLINE
  5
8DF
330
20
100
AcDbEntity
  8
0
100
AcDbPolyline
 90
        2
 70
     0
 43
0.0
 10
2267.318
 20
585.0999999999999
 10
2323.718
 20
585.0999999999999
  0
LWPOLYLINE
  5
8E3
330
20
100
AcDbEntity
  8
0
100
AcDbPolyline
 90
        2
 70
     0
 43
0.0
 10
2326.752
 20
649.8179999999999
 42
0.254097
 10
2265.228
 20
576.7789999999999
  0
LWPOLYLINE
  5
8E7
330
20
100
AcDbEntity
  8
0
100
AcDbPolyline
 90
        2
 70
     0
 43
0.0
 10
2342.135
 20
603.683
 42
0.206416
 10
2312.74
 20
557.022
  0
LWPOLYLINE
  5
8EB
330
20
100
AcDbEntity
  8
0
100
AcDbPolyline
 90
        2
 70
     0
 43
0.0
 10
2265.425
 20
577.7179999999999
 10
2319.412
 20
577.7179999999999
  0
LWPOLYLINE
  5
8EF
330
20
100
AcDbEntity
  8
0
100
AcDbPolyline
 90
        2
 70
     0
 43
0.0
 10
2264.0
 20
570.331
 10
2316.187
 20
570.331
  0
LWPOLYLINE
  5
8F3
330
20
100
AcDbEntity
  8
0
100
AcDbPolyline
 90
        2
 70
     0
 43
0.0
 10
2262.818000000001
 20
562.95
 10
2313.925
 20
562.95
  0
LWPOLYLINE
  5
8F7
330
20
100
AcDbEntity
  8
0
100
AcDbPolyline
 90
        2
 70
     0
 43
0.0
 10
2261.831
 20
555.5679999999999
 10
2312.425000000001
 20
555.5679999999999
  0
LWPOLYLINE
  5
8FB
330
20
100
AcDbEntity
  8
0
100
AcDbPolyline
 90
        2
 70
     0
 43
0.0
 10
2261.093
 20
548.1869999999999
 10
2311.143
 20
548.1869999999999
  0
LWPOLYLINE
  5
8FF
330
20
100
AcDbEntity
  8
0
100
AcDbPolyline
 90
        2
 70
     0
 43
0.0
 10
2260.6
 20
540.806
 10
2310.506
 20
540.806
  0
LWPOLYLINE
  5
903
330
20
100
AcDbEntity
  8
0
100
AcDbPolyline
 90
        2
 70
     0
 43
0.0
 10
2242.17
 20
557.537
 42
0.14603
 10
2234.487
 20
615.221
  0
LWPOLYLINE
  5
907
330
20
100
AcDbEntity
  8
0
100
AcDbPolyline
 90
        2
 70
     0
 43
0.0
 10
2265.233
 20
576.7789999999999
 42
0.075052
 10
2261.389
 20
503.7239999999999
  0
LWPOLYLINE
  5
90B
330
20
100
AcDbEntity
  8
0
100
AcDbPolyline
 90
        2
 70
     0
 43
0.0
 10
2312.752
 20
557.018
 42
0.153546
 10
2316.807
 20
503.7239999999999
  0
LWPOLYLINE
  5
90F
330
20
100
AcDbEntity
  8
0
100
AcDbPolyline
 90
        2
 70
     0
 43
0.0
 10
2260.306
 20
533.4249999999999
 10
2310.481000000001
 20
533.4249999999999
  0
LWPOLYLINE
  5
913
330
20
100
AcDbEntity
  8
0
100
AcDbPolyline
 90
        2
 70
     0
 43
0.0
 10
2260.231
 20
526.043
 10
2311.068
 20
526.043
  0
LWPOLYLINE
  5
917
330
20
100
AcDbEntity
  8
0
100
AcDbPolyline
 90
        2
 70
     0
 43
0.0
 10
2260.381
 20
518.662
 10
2312.3
 20
518.662
  0
LWPOLYLINE
  5
91B
330
20
100
AcDbEntity
  8
0
100
AcDbPolyline
 90
        2
 70
     0
 43
0.0
 10
2260.775
 20
511.281
 10
2314.168
 20
511.281
  0
LWPOLYLINE
  5
91F
330
20
100
AcDbEntity
  8
0
100
AcDbPolyline
 90
        2
 70
     0
 43
0.0
 10
2261.362
 20
503.8929999999999
 10
2316.731
 20
503.8929999999999
  0
LWPOLYLINE
  5
923
330
20
100
AcDbEntity
  8
0
100
AcDbPolyline
 90
        2
 70
     0
 43
0.0
 10
2242.175
 20
557.5619999999999
 10
2234.468
 20
530.643
  0
LWPOLYLINE
  5
927
330
20
100
AcDbEntity
  8
0
100
AcDbPolyline
 90
        2
 70
     0
 43
0.0
 10
2372.0
 20
607.243
 10
2457.331
 20
607.243
  0
LWPOLYLINE
  5
92B
330
20
100
AcDbEntity
  8
0
100
AcDbPolyline
 90
        2
 70
     0
 43
0.0
 10
2197.981
 20
489.1309999999999
 10
2213.531
 20
489.1309999999999
  0
LWPOLYLINE
  5
92F
330
20
100
AcDbEntity
  8
0
100
AcDbPolyline
 90
        2
 70
     0
 43
0.0
 10
2196.037
 20
488.343
 10
2215.25
 20
496.05
  0
LWPOLYLINE
  5
933
330
20
100
AcDbEntity
  8
0
100
AcDbPolyline
 90
        2
 70
     0
 43
0.0
 10
2215.25
 20
496.05
 10
2203.712
 20
449.9119999999999
  0
LWPOLYLINE
  5
937
330
20
100
AcDbEntity
  8
0
100
AcDbPolyline
 90
        2
 70
     0
 43
0.0
 10
2130.657
 20
484.508
 42
0.068828
 10
2196.034
 20
488.351
  0
LWPOLYLINE
  5
93B
330
20
100
AcDbEntity
  8
0
100
AcDbPolyline
 90
        2
 70
     0
 43
0.0
 10
2122.981000000001
 20
442.2069999999999
 42
0.099012
 10
2203.711
 20
449.898
  0
LWPOLYLINE
  5
93F
330
20
100
AcDbEntity
  8
0
100
AcDbPolyline
 90
        2
 70
     0
 43
0.0
 10
2109.862
 20
444.843
 10
2183.143
 20
444.843
  0
LWPOLYLINE
  5
943
330
20
100
AcDbEntity
  8
0
100
AcDbPolyline
 90
        2
 70
     0
 43
0.0
 10
2103.769
 20
530.6409999999999
 42
0.327577
 10
2130.657
 20
484.5069999999999
  0
LWPOLYLINE
  5
947
330
20
100
AcDbEntity
  8
0
100
AcDbPolyline
 90
        2
 70
     0
 43
0.0
 10
2270.718
 20
367.775
 10
2246.012
 20
380.693
  0
LWPOLYLINE
  5
94B
330
20
100
AcDbEntity
  8
0
100
AcDbPolyline
 90
        2
 70
     0
 43
0.0
 10
2270.72
 20
367.783
 42
0.101045
 10
2349.827
 20
361.468
  0
LWPOLYLINE
  5
94F
330
20
100
AcDbEntity
  8
0
100
AcDbPolyline
 90
        2
 70
     0
 43
0.0
 10
2247.537
 20
385.787
 10
2393.625
 20
385.787
  0
LWPOLYLINE
  5
953
330
20
100
AcDbEntity
  8
0
100
AcDbPolyline
 90
        2
 70
     0
 43
0.0
 10
2250.393
 20
378.406
 10
2385.431
 20
378.406
  0
LWPOLYLINE
  5
957
330
20
100
AcDbEntity
  8
0
100
AcDbPolyline
 90
        2
 70
     0
 43
0.0
 10
2264.537
 20
371.025
 10
2375.662
 20
371.025
  0
LWPOLYLINE
  5
95B
330
20
100
AcDbEntity
  8
0
100
AcDbPolyline
 90
        2
 70
     0
 43
0.0
 10
2287.937
 20
363.643
 10
2356.318
 20
363.643
  0
LWPOLYLINE
  5
95F
330
20
100
AcDbEntity
  8
0
100
AcDbPolyline
 90
        2
 70
     0
 43
0.0
 10
2372.881
 20
369.15
 10
2349.825
 20
361.475
  0
LWPOLYLINE
  5
963
330
20
100
AcDbEntity
  8
0
100
AcDbPolyline
 90
        2
 70
     0
 43
0.0
 10
2369.043
 20
426.831
 10
2384.418
 20
472.968
  0
LWPOLYLINE
  5
967
330
20
100
AcDbEntity
  8
0
100
AcDbPolyline
 90
        2
 70
     0
 43
0.0
 10
2372.885
 20
369.151
 42
0.065902
 10
2399.812
 20
392.227
  0
LWPOLYLINE
  5
96B
330
20
100
AcDbEntity
  8
0
100
AcDbPolyline
 90
        2
 70
     0
 43
0.0
 10
2399.801
 20
392.233
 42
0.062573
 10
2421.627
 20
430.5699999999999
  0
LWPOLYLINE
  5
96F
330
20
100
AcDbEntity
  8
0
100
AcDbPolyline
 90
        2
 70
     0
 43
0.0
 10
2370.125
 20
430.0749999999999
 10
2421.431
 20
430.0749999999999
  0
LWPOLYLINE
  5
973
330
20
100
AcDbEntity
  8
0
100
AcDbPolyline
 90
        2
 70
     0
 43
0.0
 10
2365.668
 20
422.693
 10
2418.131
 20
422.693
  0
LWPOLYLINE
  5
977
330
20
100
AcDbEntity
  8
0
100
AcDbPolyline
 90
        2
 70
     0
 43
0.0
 10
2357.943
 20
415.312
 10
2414.443
 20
415.312
  0
LWPOLYLINE
  5
97B
330
20
100
AcDbEntity
  8
0
100
AcDbPolyline
 90
        2
 70
     0
 43
0.0
 10
2251.968
 20
400.55
 10
2405.656
 20
400.55
  0
LWPOLYLINE
  5
97F
330
20
100
AcDbEntity
  8
0
100
AcDbPolyline
 90
        2
 70
     0
 43
0.0
 10
2249.75
 20
393.168
 10
2400.487
 20
393.168
  0
LWPOLYLINE
  5
983
330
20
100
AcDbEntity
  8
0
100
AcDbPolyline
 90
        2
 70
     0
 43
0.0
 10
2345.97
 20
407.599
 42
0.116451
 10
2369.042
 20
426.8299999999999
  0
LWPOLYLINE
  5
987
330
20
100
AcDbEntity
  8
0
100
AcDbPolyline
 90
        2
 70
     0
 43
0.0
 10
2346.6
 20
407.9309999999999
 10
2410.281
 20
407.9309999999999
  0
LWPOLYLINE
  5
98B
330
20
100
AcDbEntity
  8
0
100
AcDbPolyline
 90
        2
 70
     0
 43
0.0
 10
2246.012
 20
380.693
 10
2257.55
 20
419.1499999999999
  0
LWPOLYLINE
  5
98F
330
20
100
AcDbEntity
  8
0
100
AcDbPolyline
 90
        2
 70
     0
 43
0.0
 10
2257.54
 20
419.1349999999999
 42
0.062919
 10
2303.682
 20
403.755
  0
LWPOLYLINE
  5
993
330
20
100
AcDbEntity
  8
0
100
AcDbPolyline
 90
        2
 70
     0
 43
0.0
 10
2303.686
 20
403.7499999999999
 42
0.064405
 10
2345.965
 20
407.595
  0
LWPOLYLINE
  5
997
330
20
100
AcDbEntity
  8
0
100
AcDbPolyline
 90
        2
 70
     0
 43
0.0
 10
2256.393
 20
415.312
 10
2266.037
 20
415.312
  0
LWPOLYLINE
  5
99B
330
20
100
AcDbEntity
  8
0
100
AcDbPolyline
 90
        2
 70
     0
 43
0.0
 10
2254.181
 20
407.9309999999999
 10
2286.731
 20
407.9309999999999
  0
LWPOLYLINE
  5
99F
330
20
100
AcDbEntity
  8
0
100
AcDbPolyline
 90
        2
 70
     0
 43
0.0
 10
2384.418
 20
472.968
 10
2361.362
 20
453.75
  0
LWPOLYLINE
  5
9A3
330
20
100
AcDbEntity
  8
0
100
AcDbPolyline
 90
        2
 70
     0
 43
0.0
 10
2372.587
 20
437.462
 10
2423.031
 20
437.462
  0
LWPOLYLINE
  5
9A7
330
20
100
AcDbEntity
  8
0
100
AcDbPolyline
 90
        2
 70
     0
 43
0.0
 10
2375.043
 20
444.843
 10
2424.506
 20
444.843
  0
LWPOLYLINE
  5
9AB
330
20
100
AcDbEntity
  8
0
100
AcDbPolyline
 90
        2
 70
     0
 43
0.0
 10
2368.425
 20
496.5119999999999
 10
2434.962
 20
496.5119999999999
  0
LWPOLYLINE
  5
9AF
330
20
100
AcDbEntity
  8
0
100
AcDbPolyline
 90
        2
 70
     0
 43
0.0
 10
2377.506
 20
452.225
 10
2426.006
 20
452.225
  0
LWPOLYLINE
  5
9B3
330
20
100
AcDbEntity
  8
0
100
AcDbPolyline
 90
        2
 70
     0
 43
0.0
 10
2379.968
 20
459.606
 10
2427.506
 20
459.606
  0
LWPOLYLINE
  5
9B7
330
20
100
AcDbEntity
  8
0
100
AcDbPolyline
 90
        2
 70
     0
 43
0.0
 10
2382.431
 20
466.987
 10
2428.981
 20
466.987
  0
LWPOLYLINE
  5
9BB
330
20
100
AcDbEntity
  8
0
100
AcDbPolyline
 90
        2
 70
     0
 43
0.0
 10
2352.9
 20
489.1309999999999
 10
2433.462
 20
489.1309999999999
  0
LWPOLYLINE
  5
9BF
330
20
100
AcDbEntity
  8
0
100
AcDbPolyline
 90
        2
 70
     0
 43
0.0
 10
2342.123
 20
446.043
 42
0.130716
 10
2361.349
 20
453.7349999999999
  0
LWPOLYLINE
  5
9C3
330
20
100
AcDbEntity
  8
0
100
AcDbPolyline
 90
        2
 70
     0
 43
0.0
 10
2349.822
 20
488.3639999999999
 42
0.152005
 10
2376.716
 20
503.7289999999999
  0
LWPOLYLINE
  5
9C7
330
20
100
AcDbEntity
  8
0
100
AcDbPolyline
 90
        2
 70
     0
 43
0.0
 10
2261.378
 20
503.7239999999999
 42
0.095002
 10
2276.76
 20
469.123
  0
LWPOLYLINE
  5
9CB
330
20
100
AcDbEntity
  8
0
100
AcDbPolyline
 90
        2
 70
     0
 43
0.0
 10
2276.773
 20
469.134
 42
0.078367
 10
2299.825
 20
449.9159999999999
  0
LWPOLYLINE
  5
9CF
330
20
100
AcDbEntity
  8
0
100
AcDbPolyline
 90
        2
 70
     0
 43
0.0
 10
2299.831
 20
449.9209999999999
 42
0.139824
 10
2342.122
 20
446.0679999999999
  0
LWPOLYLINE
  5
9D3
330
20
100
AcDbEntity
  8
0
100
AcDbPolyline
 90
        2
 70
     0
 43
0.0
 10
2316.802
 20
503.7239999999999
 42
0.358505
 10
2349.824
 20
488.3399999999999
  0
LWPOLYLINE
  5
9D7
330
20
100
AcDbEntity
  8
0
100
AcDbPolyline
 90
        2
 70
     0
 43
0.0
 10
2263.356
 20
496.5119999999999
 10
2321.725
 20
496.5119999999999
  0
LWPOLYLINE
  5
9DB
330
20
100
AcDbEntity
  8
0
100
AcDbPolyline
 90
        2
 70
     0
 43
0.0
 10
2265.993
 20
489.1309999999999
 10
2332.943
 20
489.1309999999999
  0
LWPOLYLINE
  5
9DF
330
20
100
AcDbEntity
  8
0
100
AcDbPolyline
 90
        2
 70
     0
 43
0.0
 10
2269.287
 20
481.7499999999999
 10
2431.962
 20
481.7499999999999
  0
LWPOLYLINE
  5
9E3
330
20
100
AcDbEntity
  8
0
100
AcDbPolyline
 90
        2
 70
     0
 43
0.0
 10
2273.35
 20
474.368
 10
2430.481
 20
474.368
  0
LWPOLYLINE
  5
9E7
330
20
100
AcDbEntity
  8
0
100
AcDbPolyline
 90
        2
 70
     0
 43
0.0
 10
2278.712
 20
466.987
 10
2377.237
 20
466.987
  0
LWPOLYLINE
  5
9EB
330
20
100
AcDbEntity
  8
0
100
AcDbPolyline
 90
        2
 70
     0
 43
0.0
 10
2286.362
 20
459.606
 10
2368.375
 20
459.606
  0
LWPOLYLINE
  5
9EF
330
20
100
AcDbEntity
  8
0
100
AcDbPolyline
 90
        2
 70
     0
 43
0.0
 10
2296.131
 20
452.225
 10
2359.15
 20
452.225
  0
LWPOLYLINE
  5
9F3
330
20
100
AcDbEntity
  8
0
100
AcDbPolyline
 90
        2
 70
     0
 43
0.0
 10
2107.6
 20
719.0309999999999
 10
2099.925
 20
672.893
  0
LWPOLYLINE
  5
9F7
330
20
100
AcDbEntity
  8
0
100
AcDbPolyline
 90
        2
 70
     0
 43
0.0
 10
1973.031
 20
672.893
 10
1900.0
 20
672.893
  0
LWPOLYLINE
  5
9FB
330
20
100
AcDbEntity
  8
0
100
AcDbPolyline
 90
        2
 70
     0
 43
0.0
 10
1900.0
 20
672.893
 10
1911.512
 20
719.0309999999999
  0
LWPOLYLINE
  5
9FF
330
20
100
AcDbEntity
  8
0
100
AcDbPolyline
 90
        2
 70
     0
 43
0.0
 10
1909.393
 20
710.587
 10
2106.2
 20
710.587
  0
LWPOLYLINE
  5
A03
330
20
100
AcDbEntity
  8
0
100
AcDbPolyline
 90
        2
 70
     0
 43
0.0
 10
1907.55
 20
703.206
 10
2104.968
 20
703.206
  0
LWPOLYLINE
  5
A07
330
20
100
AcDbEntity
  8
0
100
AcDbPolyline
 90
        2
 70
     0
 43
0.0
 10
1905.706
 20
695.825
 10
2103.737
 20
695.825
  0
LWPOLYLINE
  5
A0B
330
20
100
AcDbEntity
  8
0
100
AcDbPolyline
 90
        2
 70
     0
 43
0.0
 10
1903.862
 20
688.443
 10
2102.506
 20
688.443
  0
LWPOLYLINE
  5
A0F
330
20
100
AcDbEntity
  8
0
100
AcDbPolyline
 90
        2
 70
     0
 43
0.0
 10
1902.012
 20
681.062
 10
2101.275
 20
681.062
  0
LWPOLYLINE
  5
A13
330
20
100
AcDbEntity
  8
0
100
AcDbPolyline
 90
        2
 70
     0
 43
0.0
 10
1900.168
 20
673.681
 10
2100.043
 20
673.681
  0
LWPOLYLINE
  5
A17
330
20
100
AcDbEntity
  8
0
100
AcDbPolyline
 90
        2
 70
     0
 43
0.0
 10
1971.7
 20
666.2999999999999
 10
2025.512
 20
666.2999999999999
  0
LWPOLYLINE
  5
A1B
330
20
100
AcDbEntity
  8
0
100
AcDbPolyline
 90
        2
 70
     0
 43
0.0
 10
1911.512
 20
719.0309999999999
 10
2107.6
 20
719.0309999999999
  0
LWPOLYLINE
  5
A1F
330
20
100
AcDbEntity
  8
0
100
AcDbPolyline
 90
        2
 70
     0
 43
0.0
 10
1911.243
 20
717.9679999999999
 10
2107.431
 20
717.9679999999999
  0
LWPOLYLINE
  5
A23
330
20
100
AcDbEntity
  8
0
100
AcDbPolyline
 90
        2
 70
     0
 43
0.0
 10
2099.925
 20
672.893
 10
2026.868
 20
672.893
  0
LWPOLYLINE
  5
A27
330
20
100
AcDbEntity
  8
0
100
AcDbPolyline
 90
        2
 70
     0
 43
0.0
 10
2066.731
 20
585.0999999999999
 10
2117.468
 20
585.0999999999999
  0
LWPOLYLINE
  5
A2B
330
20
100
AcDbEntity
  8
0
100
AcDbPolyline
 90
        2
 70
     0
 43
0.0
 10
2070.25
 20
592.4809999999999
 10
2121.625
 20
592.4809999999999
  0
LWPOLYLINE
  5
A2F
330
20
100
AcDbEntity
  8
0
100
AcDbPolyline
 90
        2
 70
     0
 43
0.0
 10
2074.281
 20
599.8619999999999
 10
2126.843
 20
599.8619999999999
  0
LWPOLYLINE
  5
A33
330
20
100
AcDbEntity
  8
0
100
AcDbPolyline
 90
        2
 70
     0
 43
0.0
 10
2078.862
 20
607.243
 10
2136.587
 20
607.243
  0
LWPOLYLINE
  5
A37
330
20
100
AcDbEntity
  8
0
100
AcDbPolyline
 90
        2
 70
     0
 43
0.0
 10
2084.075
 20
614.625
 10
2234.743
 20
614.625
  0
LWPOLYLINE
  5
A3B
330
20
100
AcDbEntity
  8
0
100
AcDbPolyline
 90
        2
 70
     0
 43
0.0
 10
2090.156
 20
622.006
 10
2230.337
 20
622.006
  0
LWPOLYLINE
  5
A3F
330
20
100
AcDbEntity
  8
0
100
AcDbPolyline
 90
        2
 70
     0
 43
0.0
 10
2115.293
 20
642.1520000000001
 42
0.101689
 10
2084.522
 20
615.234
  0
LWPOLYLINE
  5
A43
330
20
100
AcDbEntity
  8
0
100
AcDbPolyline
 90
        2
 70
     0
 43
0.0
 10
2097.587
 20
629.3869999999999
 10
2224.581
 20
629.3869999999999
  0
LWPOLYLINE
  5
A47
330
20
100
AcDbEntity
  8
0
100
AcDbPolyline
 90
        2
 70
     0
 43
0.0
 10
2056.468
 20
540.806
 10
2237.375
 20
540.806
  0
LWPOLYLINE
  5
A4B
330
20
100
AcDbEntity
  8
0
100
AcDbPolyline
 90
        2
 70
     0
 43
0.0
 10
2058.168
 20
503.8929999999999
 10
2109.25
 20
503.8929999999999
  0
LWPOLYLINE
  5
A4F
330
20
100
AcDbEntity
  8
0
100
AcDbPolyline
 90
        2
 70
     0
 43
0.0
 10
2057.156
 20
511.281
 10
2105.95
 20
511.281
  0
LWPOLYLINE
  5
A53
330
20
100
AcDbEntity
  8
0
100
AcDbPolyline
 90
        2
 70
     0
 43
0.0
 10
2056.468
 20
518.662
 10
2104.081
 20
518.662
  0
LWPOLYLINE
  5
A57
330
20
100
AcDbEntity
  8
0
100
AcDbPolyline
 90
        2
 70
     0
 43
0.0
 10
2056.15
 20
526.043
 10
2103.518
 20
526.043
  0
LWPOLYLINE
  5
A5B
330
20
100
AcDbEntity
  8
0
100
AcDbPolyline
 90
        2
 70
     0
 43
0.0
 10
2056.15
 20
533.4249999999999
 10
2235.281
 20
533.4249999999999
  0
LWPOLYLINE
  5
A5F
330
20
100
AcDbEntity
  8
0
100
AcDbPolyline
 90
        2
 70
     0
 43
0.0
 10
2084.55
 20
615.211
 42
0.079865
 10
2061.814
 20
572.595
  0
LWPOLYLINE
  5
A63
330
20
100
AcDbEntity
  8
0
100
AcDbPolyline
 90
        2
 70
     0
 43
0.0
 10
2057.131
 20
548.1869999999999
 10
2239.487
 20
548.1869999999999
  0
LWPOLYLINE
  5
A67
330
20
100
AcDbEntity
  8
0
100
AcDbPolyline
 90
        2
 70
     0
 43
0.0
 10
2061.218
 20
570.331
 10
2111.781
 20
570.331
  0
LWPOLYLINE
  5
A6B
330
20
100
AcDbEntity
  8
0
100
AcDbPolyline
 90
        2
 70
     0
 43
0.0
 10
2063.681
 20
577.7179999999999
 10
2114.218
 20
577.7179999999999
  0
LWPOLYLINE
  5
A6F
330
20
100
AcDbEntity
  8
0
100
AcDbPolyline
 90
        2
 70
     0
 43
0.0
 10
2058.143
 20
555.5679999999999
 10
2241.606
 20
555.5679999999999
  0
LWPOLYLINE
  5
A73
330
20
100
AcDbEntity
  8
0
100
AcDbPolyline
 90
        2
 70
     0
 43
0.0
 10
2059.493
 20
562.95
 10
2242.887
 20
562.95
  0
LWPOLYLINE
  5
A77
330
20
100
AcDbEntity
  8
0
100
AcDbPolyline
 90
        2
 70
     0
 43
0.0
 10
1962.693
 20
622.006
 10
2016.506
 20
622.006
  0
LWPOLYLINE
  5
A7B
330
20
100
AcDbEntity
  8
0
100
AcDbPolyline
 90
        2
 70
     0
 43
0.0
 10
1961.193
 20
614.625
 10
2015.006
 20
614.625
  0
LWPOLYLINE
  5
A7F
330
20
100
AcDbEntity
  8
0
100
AcDbPolyline
 90
        2
 70
     0
 43
0.0
 10
1959.693
 20
607.243
 10
2013.506
 20
607.243
  0
LWPOLYLINE
  5
A83
330
20
100
AcDbEntity
  8
0
100
AcDbPolyline
 90
        2
 70
     0
 43
0.0
 10
1958.193
 20
599.8619999999999
 10
2012.006
 20
599.8619999999999
  0
LWPOLYLINE
  5
A87
330
20
100
AcDbEntity
  8
0
100
AcDbPolyline
 90
        2
 70
     0
 43
0.0
 10
1956.687
 20
592.4809999999999
 10
2010.506
 20
592.4809999999999
  0
LWPOLYLINE
  5
A8B
330
20
100
AcDbEntity
  8
0
100
AcDbPolyline
 90
        2
 70
     0
 43
0.0
 10
1955.187
 20
585.0999999999999
 10
2009.0
 20
585.0999999999999
  0
LWPOLYLINE
  5
A8F
330
20
100
AcDbEntity
  8
0
100
AcDbPolyline
 90
        2
 70
     0
 43
0.0
 10
1970.2
 20
658.9179999999999
 10
2024.012
 20
658.9179999999999
  0
LWPOLYLINE
  5
A93
330
20
100
AcDbEntity
  8
0
100
AcDbPolyline
 90
        2
 70
     0
 43
0.0
 10
1968.7
 20
651.537
 10
2022.512
 20
651.537
  0
LWPOLYLINE
  5
A97
330
20
100
AcDbEntity
  8
0
100
AcDbPolyline
 90
        2
 70
     0
 43
0.0
 10
1967.2
 20
644.1499999999999
 10
2021.012
 20
644.1499999999999
  0
LWPOLYLINE
  5
A9B
330
20
100
AcDbEntity
  8
0
100
AcDbPolyline
 90
        2
 70
     0
 43
0.0
 10
1965.693
 20
636.768
 10
2019.512
 20
636.768
  0
LWPOLYLINE
  5
A9F
330
20
100
AcDbEntity
  8
0
100
AcDbPolyline
 90
        2
 70
     0
 43
0.0
 10
1964.193
 20
629.3869999999999
 10
2018.006
 20
629.3869999999999
  0
LWPOLYLINE
  5
AA3
330
20
100
AcDbEntity
  8
0
100
AcDbPolyline
 90
        2
 70
     0
 43
0.0
 10
1946.156
 20
540.806
 10
2000.0
 20
540.806
  0
LWPOLYLINE
  5
AA7
330
20
100
AcDbEntity
  8
0
100
AcDbPolyline
 90
        2
 70
     0
 43
0.0
 10
1944.656
 20
533.4249999999999
 10
1998.493
 20
533.4249999999999
  0
LWPOLYLINE
  5
AAB
330
20
100
AcDbEntity
  8
0
100
AcDbPolyline
 90
        2
 70
     0
 43
0.0
 10
1943.156
 20
526.043
 10
1996.993
 20
526.043
  0
LWPOLYLINE
  5
AAF
330
20
100
AcDbEntity
  8
0
100
AcDbPolyline
 90
        2
 70
     0
 43
0.0
 10
1941.656
 20
518.662
 10
1995.493
 20
518.662
  0
LWPOLYLINE
  5
AB3
330
20
100
AcDbEntity
  8
0
100
AcDbPolyline
 90
        2
 70
     0
 43
0.0
 10
1940.156
 20
511.281
 10
1993.993
 20
511.281
  0
LWPOLYLINE
  5
AB7
330
20
100
AcDbEntity
  8
0
100
AcDbPolyline
 90
        2
 70
     0
 43
0.0
 10
1938.656
 20
503.8929999999999
 10
1992.493
 20
503.8929999999999
  0
LWPOLYLINE
  5
ABB
330
20
100
AcDbEntity
  8
0
100
AcDbPolyline
 90
        2
 70
     0
 43
0.0
 10
1953.662
 20
577.7179999999999
 10
2007.5
 20
577.7179999999999
  0
LWPOLYLINE
  5
ABF
330
20
100
AcDbEntity
  8
0
100
AcDbPolyline
 90
        2
 70
     0
 43
0.0
 10
1952.162
 20
570.331
 10
2006.0
 20
570.331
  0
LWPOLYLINE
  5
AC3
330
20
100
AcDbEntity
  8
0
100
AcDbPolyline
 90
        2
 70
     0
 43
0.0
 10
1950.662
 20
562.95
 10
2004.5
 20
562.95
  0
LWPOLYLINE
  5
AC7
330
20
100
AcDbEntity
  8
0
100
AcDbPolyline
 90
        2
 70
     0
 43
0.0
 10
1949.162
 20
555.5679999999999
 10
2003.0
 20
555.5679999999999
  0
LWPOLYLINE
  5
ACB
330
20
100
AcDbEntity
  8
0
100
AcDbPolyline
 90
        2
 70
     0
 43
0.0
 10
1947.662
 20
548.1869999999999
 10
2001.5
 20
548.1869999999999
  0
LWPOLYLINE
  5
ACF
330
20
100
AcDbEntity
  8
0
100
AcDbPolyline
 90
        2
 70
     0
 43
0.0
 10
1926.893
 20
446.05
 10
1973.031
 20
672.893
  0
LWPOLYLINE
  5
AD3
330
20
100
AcDbEntity
  8
0
100
AcDbPolyline
 90
        2
 70
     0
 43
0.0
 10
2026.868
 20
672.893
 10
1980.731
 20
446.05
  0
LWPOLYLINE
  5
AD7
330
20
100
AcDbEntity
  8
0
100
AcDbPolyline
 90
        2
 70
     0
 43
0.0
 10
2061.314
 20
488.564
 42
0.115099
 10
2080.687
 20
461.43
  0
LWPOLYLINE
  5
ADB
330
20
100
AcDbEntity
  8
0
100
AcDbPolyline
 90
        2
 70
     0
 43
0.0
 10
2080.691
 20
461.4379999999999
 42
0.161069
 10
2122.977
 20
442.213
  0
LWPOLYLINE
  5
ADF
330
20
100
AcDbEntity
  8
0
100
AcDbPolyline
 90
        2
 70
     0
 43
0.0
 10
2093.006
 20
452.225
 10
2204.306
 20
452.225
  0
LWPOLYLINE
  5
AE3
330
20
100
AcDbEntity
  8
0
100
AcDbPolyline
 90
        2
 70
     0
 43
0.0
 10
2082.75
 20
459.606
 10
2206.15
 20
459.606
  0
LWPOLYLINE
  5
AE7
330
20
100
AcDbEntity
  8
0
100
AcDbPolyline
 90
        2
 70
     0
 43
0.0
 10
2075.018
 20
466.987
 10
2207.993
 20
466.987
  0
LWPOLYLINE
  5
AEB
330
20
100
AcDbEntity
  8
0
100
AcDbPolyline
 90
        2
 70
     0
 43
0.0
 10
2069.093
 20
474.368
 10
2209.837
 20
474.368
  0
LWPOLYLINE
  5
AEF
330
20
100
AcDbEntity
  8
0
100
AcDbPolyline
 90
        2
 70
     0
 43
0.0
 10
2064.537
 20
481.7499999999999
 10
2211.687
 20
481.7499999999999
  0
LWPOLYLINE
  5
AF3
330
20
100
AcDbEntity
  8
0
100
AcDbPolyline
 90
        2
 70
     0
 43
0.0
 10
2061.268
 20
489.1309999999999
 10
2122.462
 20
489.1309999999999
  0
LWPOLYLINE
  5
AF7
330
20
100
AcDbEntity
  8
0
100
AcDbPolyline
 90
        2
 70
     0
 43
0.0
 10
2059.543
 20
496.5119999999999
 10
2114.393
 20
496.5119999999999
  0
LWPOLYLINE
  5
AFB
330
20
100
AcDbEntity
  8
0
100
AcDbPolyline
 90
        2
 70
     0
 43
0.0
 10
2061.821
 20
572.5929999999999
 42
0.131579
 10
2061.466
 20
488.345
  0
LWPOLYLINE
  5
AFF
330
20
100
AcDbEntity
  8
0
100
AcDbPolyline
 90
        2
 70
     0
 43
0.0
 10
1980.731
 20
446.05
 10
1926.893
 20
446.05
  0
LWPOLYLINE
  5
B03
330
20
100
AcDbEntity
  8
0
100
AcDbPolyline
 90
        2
 70
     0
 43
0.0
 10
1937.15
 20
496.5119999999999
 10
1990.993
 20
496.5119999999999
  0
LWPOLYLINE
  5
B07
330
20
100
AcDbEntity
  8
0
100
AcDbPolyline
 90
        2
 70
     0
 43
0.0
 10
1935.65
 20
489.1309999999999
 10
1989.487
 20
489.1309999999999
  0
LWPOLYLINE
  5
B0B
330
20
100
AcDbEntity
  8
0
100
AcDbPolyline
 90
        2
 70
     0
 43
0.0
 10
1934.15
 20
481.7499999999999
 10
1987.987
 20
481.7499999999999
  0
LWPOLYLINE
  5
B0F
330
20
100
AcDbEntity
  8
0
100
AcDbPolyline
 90
        2
 70
     0
 43
0.0
 10
1932.65
 20
474.368
 10
1986.487
 20
474.368
  0
LWPOLYLINE
  5
B13
330
20
100
AcDbEntity
  8
0
100
AcDbPolyline
 90
        2
 70
     0
 43
0.0
 10
1931.15
 20
466.987
 10
1984.987
 20
466.987
  0
LWPOLYLINE
  5
B17
330
20
100
AcDbEntity
  8
0
100
AcDbPolyline
 90
        2
 70
     0
 43
0.0
 10
1929.65
 20
459.606
 10
1983.487
 20
459.606
  0
LWPOLYLINE
  5
B1B
330
20
100
AcDbEntity
  8
0
100
AcDbPolyline
 90
        2
 70
     0
 43
0.0
 10
1928.143
 20
452.225
 10
1981.987
 20
452.225
  0
ENDSEC
  0
SECTION
  2
OBJECTS
  0
DICTIONARY
  5
C
330
0
100
AcDbDictionary
281
     1
  3
ACAD_COLOR
350
1B
  3
ACAD_GROUP
350
D
  3
ACAD_LAYOUT
350
19
  3
ACAD_MATERIAL
350
1A
  3
ACAD_MLINESTYLE
350
16
  3
ACAD_PLOTSETTINGS
350
18
  3
ACAD_PLOTSTYLENAME
350
E
  0
DICTIONARY
  5
1B
102
{ACAD_REACTORS
330
C
102
}
330
C
100
AcDbDictionary
281
     1
  0
DICTIONARY
  5
D
102
{ACAD_REACTORS
330
C
102
}
330
C
100
AcDbDictionary
281
     1
  0
DICTIONARY
  5
19
102
{ACAD_REACTORS
330
C
102
}
330
C
100
AcDbDictionary
281
     1
  3
Layout1
350
1F
  3
Model
350
23
  0
DICTIONARY
  5
1A
102
{ACAD_REACTORS
330
C
102
}
330
C
100
AcDbDictionary
281
     1
  0
DICTIONARY
  5
16
102
{ACAD_REACTORS
330
C
102
}
330
C
100
AcDbDictionary
281
     1
  3
Standard
350
17
  0
DICTIONARY
  5
18
102
{ACAD_REACTORS
330
C
102
}
330
C
100
AcDbDictionary
281
     1
  0
ACDBDICTIONARYWDFLT
  5
E
102
{ACAD_REACTORS
330
C
102
}
330
C
100
AcDbDictionary
281
     1
  3
Normal
350
F
100
AcDbDictionaryWithDefault
340
F
  0
LAYOUT
  5
1F
102
{ACAD_REACTORS
330
19
102
}
330
19
100
AcDbPlotSettings
  1

  2
\\server\HP LaserJet 1100
  4

  6

 40
0.0
 41
0.0
 42
0.0
 43
0.0
 44
0.0
 45
0.0
 46
0.0
 47
0.0
 48
0.0
 49
0.0
140
0.0
141
0.0
142
1.0
143
1.0
 70
   688
 72
     0
 73
     0
 74
     5
  7

 75
    16
147
1.0
 76
     0
 77
     2
 78
   300
148
0.0
149
0.0
100
AcDbLayout
  1
Layout1
 70
     1
 71
     1
 10
0.0
 20
0.0
 11
12.0
 21
9.0
 12
0.0
 22
0.0
 32
0.0
 14
1.000000000000000E+20
 24
1.000000000000000E+20
 34
1.000000000000000E+20
 15
-1.000000000000000E+20
 25
-1.000000000000000E+20
 35
-1.000000000000000E+20
146
0.0
 13
0.0
 23
0.0
 33
0.0
 16
1.0
 26
0.0
 36
0.0
 17
0.0
 27
1.0
 37
0.0
 76
     0
330
1C
  0
LAYOUT
  5
23
102
{ACAD_REACTORS
330
19
102
}
330
19
100
AcDbPlotSettings
  1

  2
\\server\HP LaserJet 1100
  4

  6

 40
0.0
 41
0.0
 42
0.0
 43
0.0
 44
0.0
 45
0.0
 46
0.0
 47
0.0
 48
0.0
 49
0.0
140
0.0
141
0.0
142
1.0
143
1.0
 70
  1712
 72
     0
 73
     0
 74
     0
  7

 75
     0
147
1.0
 76
     0
 77
     2
 78
   300
148
0.0
149
0.0
100
AcDbLayout
  1
Model
 70
     1
 71
     0
 10
0.0
 20
0.0
 11
12.0
 21
9.0
 12
0.0
 22
0.0
 32
0.0
 14
0.0
 24
0.0
 34
0.0
 15
0.0
 25
0.0
 35
0.0
146
0.0
 13
0.0
 23
0.0
 33
0.0
 16
1.0
 26
0.0
 36
0.0
 17
0.0
 27
1.0
 37
0.0
 76
     0
330
20
  0
MLINESTYLE
  5
17
102
{ACAD_REACTORS
330
16
102
}
330
16
100
AcDbMlineStyle
  2
STANDARD
 70
     0
  3

 62
   256
 51
90.0
 52
90.0
 71
     2
 49
0.5
 62
   256
  6
BYLAYER
 49
-0.5
 62
   256
  6
BYLAYER
  0
ACDBPLACEHOLDER
  5
F
102
{ACAD_REACTORS
330
E
102
}
330
E
  0
ENDSEC
  0
EOF
